<svg xmlns="http://www.w3.org/2000/svg" width="48.392" height="48.196" viewBox="0 0 48.392 48.196"><g transform="translate(0.196)"><path d="M9.76,38a5.5,5.5,0,1,0-5.5-5.5A5.5,5.5,0,0,0,9.76,38Z" fill="none" stroke="#2c3238" stroke-linecap="round" stroke-linejoin="round" stroke-width="2"/><path d="M18.518,47A8.98,8.98,0,0,0,1,47" fill="none" stroke="#2c3238" stroke-linecap="round" stroke-linejoin="round" stroke-width="2"/><path d="M38.24,38a5.5,5.5,0,1,0-5.5-5.5A5.5,5.5,0,0,0,38.24,38Z" fill="none" stroke="#2c3238" stroke-linecap="round" stroke-linejoin="round" stroke-width="2"/><path d="M47,47a8.98,8.98,0,0,0-17.518,0" fill="none" stroke="#2c3238" stroke-linecap="round" stroke-linejoin="round" stroke-width="2"/><path d="M40.414,18.414A2,2,0,0,0,41,17V3a2,2,0,0,0-2-2H11A2,2,0,0,0,9,3V17a2,2,0,0,0,2,2H25v6l6-6h8A2,2,0,0,0,40.414,18.414Z" fill="#f4fbff" stroke="#707070" stroke-linecap="round" stroke-linejoin="round" stroke-width="2"/><path d="M41,17a2,2,0,0,1-2,2H31l-6,6V19H11a2,2,0,0,1-2-2V3a2,2,0,0,1,2-2H39a2,2,0,0,1,2,2Z" fill="#f3f7fc"/><path d="M30,6l4,4-4,4" fill="#f3f7fc"/><path d="M20,6l-4,4,4,4" fill="#f3f7fc"/><path d="M30,6l4,4-4,4M20,6l-4,4,4,4m7-8-4,8m18,3a2,2,0,0,1-2,2H31l-6,6V19H11a2,2,0,0,1-2-2V3a2,2,0,0,1,2-2H39a2,2,0,0,1,2,2Z" fill="none" stroke="#1757c2" stroke-linecap="round" stroke-linejoin="round" stroke-width="2"/></g></svg>