<svg xmlns="http://www.w3.org/2000/svg" width="47.999" height="47.976" viewBox="0 0 47.999 47.976"><path d="M17.072,12.749a21.857,21.857,0,0,1-1.179,2.177c-.4.686-.782,1.306-1.272,1.992-.186.264-.4.554-.636.858a2.583,2.583,0,0,1-2.558,1.161c-1.034-.29-1.59-1.227-2.173-2.045a24,24,0,0,1-2.438-4.1C6.152,11.338,5.543,9.5,6.483,8.026a3.533,3.533,0,0,1,.954-.976,4.706,4.706,0,0,1,.808-.422,10.961,10.961,0,0,1,6.348-.3A5.786,5.786,0,0,1,16.316,7a3.314,3.314,0,0,1,.9.818,3,3,0,0,1,.623,1.57A6.37,6.37,0,0,1,17.072,12.749Z" fill="#f3f7fc" stroke="#1757c2" stroke-linecap="round" stroke-linejoin="round" stroke-width="2"/><path d="M19,33H3a2,2,0,0,1-2-2V3A2,2,0,0,1,3,1H33a2,2,0,0,1,2,2V14" fill="none" stroke="#2c3238" stroke-linecap="round" stroke-linejoin="round" stroke-width="2"/><path d="M47,44.484c-6.6,3.18-7.072,2.442-14.278,2.442-3.4,0-5.128-2.222-6.132-5.478v-.02l-2.39-8.7V32.71a2.6,2.6,0,0,1,2.478-3.346h6.354a2.6,2.6,0,0,0,2.506-3.252L34.4,21.78a2.218,2.218,0,0,1,3.96-1.84L44.7,28.916a2.6,2.6,0,0,0,2.116,1.1" fill="#f3f7fc"/><path d="M47,44.484c-6.6,3.18-7.072,2.442-14.278,2.442-3.4,0-5.128-2.222-6.132-5.478v-.02l-2.39-8.7V32.71a2.6,2.6,0,0,1,2.478-3.346h6.354a2.6,2.6,0,0,0,2.506-3.252L34.4,21.78a2.218,2.218,0,0,1,3.96-1.84L44.7,28.916a2.6,2.6,0,0,0,2.116,1.1Z" fill="none" stroke="#1757c2" stroke-linecap="round" stroke-linejoin="round" stroke-width="2"/></svg>