<svg xmlns="http://www.w3.org/2000/svg" width="842" height="829.875" viewBox="0 0 842 829.875"><g transform="translate(-1078 0.1)"><path d="M1030.769,501.971V948.558H901.635c1.9-30.068-3.482-59.819-18.357-85.773-22.155-37.981-61.085-61.718-101.914-75.012-44.627-14.559-94.951-6.014-137.68-24.054-18.674-7.6-35.132-22.472-40.513-41.779-5.064-18.041-.316-36.714,1.583-55.388,1.9-18.357-.633-39.88-15.509-50.957-15.509-11.394-37.031-6.963-55.388-1.9-30.384,8.229-95.268,40.2-116.157-.949-14.243-28.169,17.408-56.971,27.219-87.039,10.445-31.967-6.33-68.365-33.233-88.938C385.1,416.2,350.6,408.285,317.051,405.12c-25.32-2.532-51.59-3.165-75.645-11.394-24.054-8.546-46.526-26.9-51.59-51.907-9.812-50.641,52.223-86.406,63.934-136.413,7.28-31.334-6.963-64.567-30.7-86.406H375.288c-16.458,53.489-6.963,124.7,57.92,133.248,66.466,9.5,142.427-53.806,193.068,6.33,37.981,44.311-9.5,117.107,50.641,148.757,72.8,34.815,145.592-6.33,218.388-3.165h.633c24.371,0,45.577,16.458,52.54,39.88C966.835,505.452,999.435,486.778,1030.769,501.971Z" transform="translate(889.231 -118.783)" fill="#f065a6"/><path d="M1030.769,754.758v193.7H901.635c1.9-30.068-3.482-59.819-18.357-85.773-22.155-37.981-61.085-61.718-101.914-75.012-44.627-14.559-94.951-6.014-137.68-24.054-18.674-7.6-35.132-22.472-40.513-41.779-5.064-18.041-.316-36.715,1.583-55.388,1.9-18.357-.633-39.88-15.509-50.957-15.509-11.394-37.031-6.963-55.388-1.9-30.384,8.229-95.268,40.2-116.157-.95-14.243-28.169,17.408-56.971,27.219-87.039,10.445-31.967-6.33-68.365-33.233-88.938C385.1,416.1,350.6,408.185,317.051,405.02c-25.32-2.532-51.59-3.165-75.645-11.394-24.054-8.546-46.526-26.9-51.59-51.907-9.812-50.641,52.223-86.406,63.934-136.413,7.28-31.334-6.963-64.567-30.7-86.406h85.456c4.115,31.65,2.216,65.516-2.849,84.19-9.179,33.866-31.334,66.783-22.788,100.965,9.5,37.981,54.122,56.971,93.369,56.654s77.544-13.293,116.79-13.293c31.017,0,65.2,11.078,78.81,39.247,22.788,47.792-29.751,100.332-24.371,152.872,5.064,50.641,62.351,80.076,112.992,81.025s100.332-16.775,150.973-17.724c37.981-.633,81.342,12.344,96.85,47.159,6.647,15.192,7.279,32.283,13.926,47.476,12.344,28.169,43.361,43.361,73.113,50.641C1006.715,750.643,1018.742,752.859,1030.769,754.758Z" transform="translate(889.231 -119)" fill="#d5498f"/><path d="M639.506,333.263s-99.066,6.963-221.553,6.963S196.4,333.263,196.4,333.263s99.066-6.963,221.553-6.963S639.506,333.263,639.506,333.263Z" transform="translate(905.752 330.03)" fill="#f065a6"/><rect width="266.18" height="157.619" transform="translate(1444.61 234.746)" fill="#fff"/><path d="M467.752,305.7V231.319H452.877V305.7H443.7V251.576H428.822V305.7h-9.5V227.2H404.768V305.7h-9.5v-90.2H380.713v90.2h-9.5V251.576H356.659V305.7H345.265V204.1H342.1V308.863H478.514V305.7Z" transform="translate(1221.199 65.462)" fill="#353537"/><rect width="82.924" height="5.064" transform="translate(1459.486 259.75)" fill="#2a2a2a"/><rect width="82.924" height="5.064" transform="translate(1459.486 273.993)" fill="#2a2a2a"/><rect width="40.829" height="5.064" transform="translate(1459.486 288.236)" fill="#2a2a2a"/><path d="M341.139,229.8v14.243l-7.6,7.28H319.3V229.8Z" transform="translate(1171.836 121.104)" fill="#2a2a2a"/><path d="M331.4,234.3l-7.6,7.28V234.3Z" transform="translate(1181.579 130.846)" fill="#0b0b0b"/><rect width="21.522" height="21.522" transform="translate(1460.119 350.904)" fill="#f065a6"/><path d="M449,219.074l-12.66,3.165,3.482,3.481L424.627,240.6l-51.59-40.2L347.4,219.39l1.9,2.849L373.037,204.2l51.907,40.513,17.091-16.458,3.165,3.482Z" transform="translate(1232.674 57.451)" fill="#2a2a2a"/><path d="M338.952,231.176A14.876,14.876,0,1,1,324.076,216.3,14.859,14.859,0,0,1,338.952,231.176Z" transform="translate(1149.969 91.875)" fill="#5202b5"/><path d="M321.045,217.7a10.445,10.445,0,1,0,10.445,10.445A10.537,10.537,0,0,0,321.045,217.7Zm-1.9,1.583a6.435,6.435,0,0,0-2.216,3.8,5.1,5.1,0,0,1-2.216-1.266A9.024,9.024,0,0,1,319.146,219.283Zm-5.064,3.165a11.389,11.389,0,0,0,2.849,1.583,11.871,11.871,0,0,0-.316,3.482H312.5A6.144,6.144,0,0,1,314.082,222.448Zm-1.9,6.33H316.3a15.891,15.891,0,0,0,.633,3.8c-.949.317-1.9.95-2.849,1.266A7.76,7.76,0,0,1,312.183,228.778Zm2.532,5.7a7.933,7.933,0,0,1,2.215-1.266,10.945,10.945,0,0,0,2.216,3.8A9.022,9.022,0,0,1,314.715,234.475Zm6.013,2.216c-.949-.317-1.9-1.583-2.532-3.482a6.967,6.967,0,0,1,2.532-.317Zm0-5.064c-.949,0-1.9.317-2.849.317a11.869,11.869,0,0,1-.316-3.482h3.482v3.165Zm0-4.115h-3.482c0-1.266.317-2.216.317-3.482a8.762,8.762,0,0,0,2.849.317v3.165Zm0-3.8c-.949,0-1.9-.316-2.532-.316.633-1.9,1.582-3.482,2.532-3.8Zm9.5,3.8h-4.115c0-1.266-.317-2.532-.317-3.482a12.832,12.832,0,0,0,2.849-1.583C329.274,224.03,330.223,225.613,330.223,227.512Zm-2.532-5.7a7.933,7.933,0,0,1-2.216,1.266c-.633-1.583-1.266-3.165-2.216-3.8A9.022,9.022,0,0,1,327.691,221.815Zm-6.013-2.216a4.536,4.536,0,0,1,2.532,3.8,7.866,7.866,0,0,1-2.532.316Zm0,5.064c.949,0,1.9-.316,2.849-.316a11.868,11.868,0,0,1,.316,3.482h-3.482v-3.165Zm0,4.115h3.482c0,1.266-.317,2.532-.317,3.482a8.761,8.761,0,0,0-2.849-.317v-3.165Zm0,7.913v-4.115c.949,0,1.9.317,2.532.317C323.577,234.791,322.627,236.374,321.678,236.69Zm1.266.316c.949-.633,1.583-1.9,2.216-3.8a5.1,5.1,0,0,1,2.216,1.266A6.928,6.928,0,0,1,322.944,237.007Zm5.381-3.165a5.965,5.965,0,0,0-2.848-1.266c.316-1.266.316-2.532.633-3.8h4.115C330.223,230.677,329.274,232.259,328.324,233.842Z" transform="translate(1153 94.906)" fill="#fff"/><circle cx="14.559" cy="14.559" r="14.559" transform="translate(1495.251 308.492)" fill="#e34932"/><path d="M340.557,225.6h-1.9a1.644,1.644,0,0,0-.633-1.266l1.266-1.266a.962.962,0,0,0,0-1.266l-1.582-1.583a.963.963,0,0,0-1.266,0l-1.266,1.266c-.317-.317-.949-.317-1.266-.633v-1.9a.839.839,0,0,0-.949-.95h-2.216a.839.839,0,0,0-.949.95v1.9a1.644,1.644,0,0,0-1.266.633l-1.266-1.266a.963.963,0,0,0-1.266,0l-1.582,1.583a.963.963,0,0,0,0,1.266l1.266,1.266c-.317.317-.317.95-.633,1.266h-1.9a.839.839,0,0,0-.949.95v2.216a.839.839,0,0,0,.949.95h1.9a1.644,1.644,0,0,0,.633,1.266l-1.266,1.266a.963.963,0,0,0,0,1.266L326,235.091a.963.963,0,0,0,1.266,0l1.266-1.266c.316.317.949.317,1.266.633v1.9a.839.839,0,0,0,.949.95h2.216a.839.839,0,0,0,.949-.95v-1.9a1.644,1.644,0,0,0,1.266-.633l1.266,1.266a.963.963,0,0,0,1.266,0l1.582-1.583a.963.963,0,0,0,0-1.266l-1.266-1.266c.316-.317.316-.95.633-1.266h1.9a.839.839,0,0,0,.949-.95v-2.216Q341.032,225.6,340.557,225.6Zm-8.862,5.7a3.8,3.8,0,1,1,3.8-3.8A3.657,3.657,0,0,1,331.7,231.293Z" transform="translate(1178.115 95.556)" fill="#fff"/><rect width="6.014" height="6.014" transform="translate(1535.13 310.708)" fill="#353537"/><rect width="6.014" height="6.014" transform="translate(1544.942 310.708)" fill="#353537"/><rect width="6.014" height="6.014" transform="translate(1535.13 319.886)" fill="#353537"/><rect width="6.014" height="6.014" transform="translate(1544.942 319.886)" fill="#f065a6"/><rect width="6.014" height="6.014" transform="translate(1535.13 329.381)" fill="#f065a6"/><rect width="6.014" height="6.014" transform="translate(1544.942 329.381)" fill="#f065a6"/><path d="M472.19,272.768S445.6,294.291,422.5,286.695c-22.788-7.6-31.65-50.641-31.65-50.641s5.064-8.862,0-11.711c0,0,.949-7.28-4.115-7.913s-25.32,5.381-4.748,21.206c0,0,5.7,77.86,50.008,80.392,43.994,2.849,43.678-8.229,43.678-8.229Z" transform="translate(1287.975 92.061)" fill="#0957ea"/><path d="M390.573,244.074s.949-1.9,1.9-4.115h0c4.748-1.583,2.216-13.61.317-15.509-1.582-1.583-3.8-.633-4.748,0-.949-1.9-6.647-12.66-9.812-11.711-2.216.633,0,7.913,1.9,12.66-6.647,2.532-12.977,8.862,1.9,20.256a154.767,154.767,0,0,0,3.165,19.94,78.268,78.268,0,0,0,11.394-3.482A140.39,140.39,0,0,1,390.573,244.074Z" transform="translate(1287.934 84.041)" fill="#f4eed8"/><path d="M433.807,259.5,414.5,284.187l4.115,4.748,25.32-20.256Z" transform="translate(1377.949 185.405)" fill="#f4eed8"/><path d="M408.5,232.3s31.017,3.165,37.98,13.293,32.284,37.664,29.435,58.553c-2.532,20.889-14.559,27.219-14.559,27.219L446.48,318.389s9.812-7.913,7.913-15.509c-1.582-7.913-23.1-28.485-23.1-28.485l-16.775-33.866Z" transform="translate(1364.958 126.516)" fill="#0957ea"/><path d="M554.174,331.005a733.753,733.753,0,0,1-90.837,5.7,727.27,727.27,0,0,1-90.837-5.7,733.752,733.752,0,0,1,90.837-5.7A666.749,666.749,0,0,1,554.174,331.005Z" transform="translate(1287.017 327.857)" fill="#f065a6"/><path d="M432.576,322.7l.949,5.064,1.266,6.647-28.169,6.963a1.828,1.828,0,0,1-1.9-2.849,21.683,21.683,0,0,1,5.381-5.381,113.216,113.216,0,0,1,10.761-7.6Z" transform="translate(1356.074 322.236)" fill="#fff"/><path d="M419.4,322.7l-.317,5.064-.317,6.647-28.8.633a1.827,1.827,0,0,1-1.266-3.165c1.583-1.582,4.115-2.849,6.33-4.115a86.518,86.518,0,0,1,12.027-4.748Z" transform="translate(1320.823 322.236)" fill="#fff"/><path d="M466.978,274.728s-3.482,44.311-13.293,83.557l9.812,92.1-15.509,1.583s-16.142-60.452-20.573-74.7c-5.064-15.825,0-55.388,0-55.388s-13.61,30.385-13.61,44.944,1.582,81.975,1.582,81.975-10.445,2.848-15.509,0-9.179-89.887-9.179-89.887L410.956,264.6A367.72,367.72,0,0,0,466.978,274.728Z" transform="translate(1326.421 196.447)" fill="#0e0e15"/><path d="M465.164,347.826c.95-9.179,3.8-71.53-.317-85.456C456.3,231.353,437.628,232.3,437.628,232.3c-5.7,13.293-17.408,4.115-17.408,4.115s-20.889,12.66-13.926,47.159c4.431,22.155-4.431,42.728-11.394,54.439C415.156,352.257,441.743,355.739,465.164,347.826Z" transform="translate(1335.514 126.514)" fill="#0957ea"/><path d="M407.7,240.782s-7.6,4.431-7.6,8.546,5.064,10.128,5.064,10.128l7.28-8.546,6.963,10.128s22.789-17.408,7.913-27.219C412.444,224.323,407.7,240.782,407.7,240.782Z" transform="translate(1346.772 123.415)" fill="#fff"/><path d="M398.824,231.791s-5.7,31.017,11.394,30.7,23.421-12.66,22.155-19.94-2.216-21.839-16.775-23.738S398.824,231.791,398.824,231.791Z" transform="translate(1342.035 96.957)" fill="#f4eed8"/><path d="M446.045,233.374a13.809,13.809,0,0,0-5.381-5.064h0a18.523,18.523,0,0,0-.633-4.115,26.4,26.4,0,0,0-2.532-3.8,15.361,15.361,0,0,1,0,5.381,14.612,14.612,0,0,0-2.849-4.748,19.209,19.209,0,0,0-3.165-2.216,32.756,32.756,0,0,0-17.408-2.849c-1.266,0-2.849.317-4.115.317a5.84,5.84,0,0,1-3.8-1.583,13.785,13.785,0,0,0,3.165,5.064c-12.66,4.431-10.761,16.458-10.761,16.458,4.115-1.583,8.546.633,8.546.633-.316,11.394,20.573,16.775,20.573,16.775,3.165-2.849,7.28-1.266,7.28-1.266a4.86,4.86,0,0,1,2.532,3.8c4.747-3.482,6.014-20.889,6.014-20.889a5.294,5.294,0,0,1,3.8.316A7.939,7.939,0,0,1,446.045,233.374Z" transform="translate(1343.239 88.411)" fill="#0e0e15"/><path d="M407.323,232.754a5.6,5.6,0,1,0,4.748-6.33C408.906,226.74,407.007,229.589,407.323,232.754Z" transform="translate(1362.337 113.719)" fill="#f4eed8"/><path d="M420.957,227.8l.633,4.115a8.855,8.855,0,0,0,.317,1.9c0,1.582.317,4.115.317,6.647,0,3.8-.317,7.913-1.9,9.179-3.165,2.848-15.192,3.482-16.775,2.848-.633-.316-.95-2.532-.95-5.064v-5.064h0c0-5.064.317-10.445.317-10.445Z" transform="translate(1352.185 116.773)" fill="#f4eed8"/><path d="M421.907,229.8c0,1.583.317,4.115.317,6.647-4.748,2.216-14.243,6.33-19.623,6.647v-5.064h0S419.691,234.548,421.907,229.8Z" transform="translate(1352.185 121.104)" fill="#ebe0be"/><path d="M367.427,309.028H295.264a5,5,0,0,1-5.064-5.064h0a5,5,0,0,1,5.064-5.064h72.163a5,5,0,0,1,5.064,5.064h0A5.205,5.205,0,0,1,367.427,309.028Z" transform="translate(1108.833 270.708)" fill="#353537"/><rect width="9.812" height="49.691" transform="translate(1435.115 587.649)" fill="#ebe0be"/><rect width="15.192" height="19.307" transform="translate(1432.583 579.736)" fill="#f4eed8"/><rect width="59.186" height="6.33" transform="translate(1410.428 634.808)" fill="#353537"/><path d="M303.861,326.881a5.381,5.381,0,1,1-5.381-5.381A5.335,5.335,0,0,1,303.861,326.881Z" transform="translate(1115.112 319.638)" fill="#ebe0be"/><path d="M320.561,326.881a5.381,5.381,0,1,1-5.381-5.381A5.546,5.546,0,0,1,320.561,326.881Z" transform="translate(1151.268 319.638)" fill="#ebe0be"/><path d="M421.038,308.474c-.633-15.192-39.246-18.674-39.246-18.674-1.583,0-18.041,0-31.017.316-12.977,0-29.118-.316-31.017-.316,0,0-38.614,3.482-39.247,18.674s19.623,93.369,19.623,93.369h16.775s1.583-78.493-2.849-81.342c0,0,20.889-.317,36.715-1.582,15.825,1.266,36.715,1.582,36.715,1.582-4.431,2.849-2.849,81.342-2.849,81.342h16.775C401.1,401.843,421.671,323.349,421.038,308.474Z" transform="translate(1087.823 251.006)" fill="#0957ea"/><path d="M311.03,325.416l-.317,4.431v1.266l-.317,4.748H283.81a1.564,1.564,0,0,1-.949-2.849,4.37,4.37,0,0,1,1.266-.949c1.266-.949,3.165-1.9,4.748-2.849a80.028,80.028,0,0,1,11.078-4.114H311.03Z" transform="translate(1091.485 327.432)" fill="#353537"/><path d="M310.713,327.1l-.316,4.748H283.81a1.564,1.564,0,0,1-.949-2.849,4.368,4.368,0,0,1,1.266-.949A167.817,167.817,0,0,0,310.713,327.1Z" transform="translate(1091.486 331.762)" fill="#fff"/><path d="M314.4,325.416l.316,4.431v1.266l.317,4.748h26.586a1.564,1.564,0,0,0,.949-2.849,4.37,4.37,0,0,0-1.266-.949c-1.266-.949-3.165-1.9-4.748-2.849a80.032,80.032,0,0,0-11.078-4.114H314.4Z" transform="translate(1161.228 327.432)" fill="#353537"/><path d="M314.6,327.1l.317,4.748H341.5a1.564,1.564,0,0,0,.95-2.849,4.368,4.368,0,0,0-1.266-.949A167.817,167.817,0,0,1,314.6,327.1Z" transform="translate(1161.661 331.762)" fill="#fff"/><path d="M369.376,365.406l-.633.317a94.227,94.227,0,0,1-79.443,1.266s1.9-28.169,7.6-62.035a412.447,412.447,0,0,1,10.128-45.893h0l2.849-.95a56.145,56.145,0,0,1,36.715,0c.949.317,1.9.633,3.165.95C363.362,308.119,369.376,365.406,369.376,365.406Z" transform="translate(1106.885 175.717)" fill="#2a2a2a"/><path d="M328.933,256.3h0c-4.115,15.192-7.6,31.017-10.128,45.893-6.33,4.748-14.243,11.394-15.509,16.458-.633,2.849,2.216,5.064,6.647,6.963l-4.115,13.926h-8.862s-18.99-5.7-17.724-21.206c.949-15.509,30.7-49.058,34.815-55.072C315.956,260.415,322.6,257.882,328.933,256.3Z" transform="translate(1084.977 178.477)" fill="#0b0b0b"/><path d="M315.985,292.343v-8.229s-15.192-1.9-24.371-6.014L287.5,292.026h28.485Z" transform="translate(1102.988 225.675)" fill="#f4eed8"/><path d="M308.2,256.3h.316c4.115,15.192,7.28,31.017,9.812,45.893,6.33,4.748,14.243,11.394,15.509,16.458.633,2.849-2.215,5.064-6.647,6.963l4.115,13.926h8.862s18.99-5.7,17.724-21.206c-.95-15.509-30.7-49.058-34.816-55.072C321.177,260.415,314.53,257.882,308.2,256.3Z" transform="translate(1147.804 178.477)" fill="#0b0b0b"/><path d="M306.5,292.343v-8.229s15.192-1.9,24.371-6.014l4.115,13.926H306.5Z" transform="translate(1144.124 225.675)" fill="#f4eed8"/><rect width="74.695" height="49.058" transform="translate(1401.249 468.96)" fill="#353537"/><path d="M332.515,257.632c-.949,5.064-4.114,15.192-17.091,15.192s-18.041-9.812-19.623-14.876c1.266-.316,2.216-.633,3.482-.949a61.714,61.714,0,0,1,30.384,0A16.05,16.05,0,0,1,332.515,257.632Z" transform="translate(1120.958 175.879)" fill="#f4eed8"/><path d="M326.968,257.161c-3.482,3.8-9.5,9.179-16.142,9.179-7.913.316-12.344-6.014-13.926-9.179A53.965,53.965,0,0,1,326.968,257.161Z" transform="translate(1123.339 175.717)" fill="#ebe0be"/><path d="M333.481,266.442c0,13.293-8.546,23.738-18.99,23.738s-18.99-10.761-18.99-23.738c0-13.293,8.546-23.738,18.99-23.738C324.935,242.388,333.481,253.149,333.481,266.442Z" transform="translate(1120.308 149.028)" fill="#f4eed8"/><path d="M305.294,255.5a5.7,5.7,0,1,1-5.7-5.7A5.673,5.673,0,0,1,305.294,255.5Z" transform="translate(1116.844 164.405)" fill="#f4eed8"/><path d="M317.094,255.5a5.7,5.7,0,1,1-5.7-5.7A5.673,5.673,0,0,1,317.094,255.5Z" transform="translate(1142.392 164.405)" fill="#f4eed8"/><path d="M338.281,270.684c-.317,1.9-3.165,1.9-2.848,3.8a13.775,13.775,0,0,0-2.532-4.748c0-4.115-3.165-8.229-7.28-8.862-2.849-.633-6.014.317-9.179,0a15.643,15.643,0,0,1-9.5-4.431c-4.114,5.064-7.28,11.711-7.6,18.357a6.27,6.27,0,0,0-3.482-3.482s-4.748-15.509,1.582-18.357c0,0-2.532-7.6,7.6-9.179s28.169,3.165,31.017-3.482c0,0,4.115,10.761,0,13.61C336.382,253.91,340.813,253.593,338.281,270.684Z" transform="translate(1117.407 143.837)" fill="#0957ea"/><path d="M286.622,277.2c.317-7.6,4.748-14.559,3.8-21.839-1.9-13.293-20.889-21.522-32.916-17.724-4.115,1.266-7.28,4.431-9.5,8.229a30.489,30.489,0,0,0-7.28,13.293c-1.266,4.748-.316,9.5-.316,14.559a23.952,23.952,0,0,1-.317,4.748,12.044,12.044,0,0,1-2.849,4.115c-2.216,2.216-4.748,4.115-6.963,6.33a30.449,30.449,0,0,0-6.33,10.128c-2.216,5.381-3.8,11.078-2.216,16.458,1.9,5.381,6.647,9.179,11.394,11.711a49.512,49.512,0,0,0,30.7,5.381c6.647-.949,12.977-3.165,17.724-7.913,4.431-4.431,6.963-11.078,7.6-17.408s-.317-12.977-1.583-18.99C287.571,284.795,286.622,281,286.622,277.2Zm-44.627-2.532a53.637,53.637,0,0,0-.317-6.963,27.727,27.727,0,0,1,4.748-17.724c0,.317-.316.633-.316,1.266C243.893,258.841,244.526,267.387,241.994,274.666Z" transform="translate(959.224 136.056)" fill="#ff6748"/><path d="M240.883,378.295c-15.509-1.9-25.953-7.913-30.7-18.674-13.926-30.384,24.371-86.089,25.953-88.621l4.431,3.165c-.317.633-38.3,55.388-25.637,83.241,3.8,8.862,12.66,13.926,26.27,15.509Z" transform="translate(929.002 210.303)" fill="#f4eed8"/><path d="M268.038,320.638H225.31a13.509,13.509,0,0,1-13.61-13.61V277.91a13.509,13.509,0,0,1,13.61-13.61h42.728Z" transform="translate(938.878 195.798)" fill="#353537"/><path d="M288.927,312.728H216.764a5,5,0,0,1-5.064-5.064h0a5,5,0,0,1,5.064-5.064h72.163a5,5,0,0,1,5.064,5.064h0A5.205,5.205,0,0,1,288.927,312.728Z" transform="translate(938.878 278.719)" fill="#353537"/><path d="M226.416,326.247s37.664,1.582,49.375,0L264.4,398.41h14.559s31.65-86.722,20.889-97.483-44.627-9.5-44.627-9.5L224.2,307.573Z" transform="translate(965.941 254.439)" fill="#0957ea"/><path d="M237.7,325.2l.317,4.431.633,6.33h26.586a1.564,1.564,0,0,0,.95-2.848,49.813,49.813,0,0,0-6.014-3.8,80.035,80.035,0,0,0-11.078-4.114Z" transform="translate(995.169 327.649)" fill="#353537"/><path d="M237.7,325.2l.317,4.431a15.586,15.586,0,0,0,5.381,1.9,46.356,46.356,0,0,0,9.179.633c2.848,0,5.7-.633,7.28-2.848a80.036,80.036,0,0,0-11.078-4.115H237.7Z" transform="translate(995.169 327.649)" fill="#f4eed8"/><path d="M245.762,251.9s7.913,3.482,11.711,18.99c3.482,15.825,6.33,53.806,6.33,53.806l26.586,8.546.317,12.027L236.9,347.8l1.582-46.843Z" transform="translate(993.437 168.951)" fill="#2a2a2a"/><path d="M261.3,321.533l1.582,4.115,2.216,5.7,25.32-7.913c1.583-.317,1.583-2.532.316-3.165-1.9-.949-4.431-1.266-6.647-1.9a65.166,65.166,0,0,0-12.027-.633Z" transform="translate(1046.264 311.376)" fill="#353537"/><path d="M261.3,321.316l1.582,4.115a34.4,34.4,0,0,0,5.7.316,48.4,48.4,0,0,0,9.179-2.216c2.532-.949,5.064-2.216,6.013-5.064a65.172,65.172,0,0,0-12.027-.633Z" transform="translate(1046.264 311.593)" fill="#f4eed8"/><path d="M219.522,287.8s-9.5,39.563,13.61,46.843c22.788,7.279,87.672-20.889,87.672-20.889l32.6,75.012,15.825-4.431s-18.674-95.584-30.7-96.85-50.957,0-50.957,0H219.522Z" transform="translate(951.628 244.776)" fill="#0092ff"/><path d="M289.929,363.626l-6.014.949-17.091,3.165L216.5,376.919s20.889-57.6,22.155-65.2,1.583-28.169,0-38.3S253.215,251.9,253.215,251.9h36.4l.316.317C309.236,274.372,289.929,363.626,289.929,363.626Z" transform="translate(949.27 168.951)" fill="#0b0b0b"/><path d="M254.038,364.576l-17.091,3.165C248.024,293.679,230.3,251.9,230.3,251.9h29.435l.316.317C271.446,266.143,256.886,349.383,254.038,364.576Z" transform="translate(979.147 168.951)" fill="#0957ea"/><path d="M230.4,251.9s10.445,16.142,22.155,12.66c11.394-3.482,7.6-12.66,7.6-12.66Z" transform="translate(979.364 168.951)" fill="#f4eed8"/><path d="M305.881,287.2c-2.532-2.216-7.913-8.862-12.344-9.5-1.9-.316-14.876,4.748-14.876,4.748s-22.155-.949-42.412-2.532l-.949,12.344c14.243-.316,30.7-.633,44.311-.949,10.128,2.848,20.573.317,25.637-1.266A1.52,1.52,0,0,0,305.881,287.2Z" transform="translate(989.973 224.8)" fill="#f4eed8"/><path d="M244.679,251.9a35.613,35.613,0,0,0-22.155,27.219c-3.8,21.522-1.9,71.53,4.748,75.328,6.33,3.482,45.26-1.9,45.26-1.9V335.141l-25.953-1.583C246.578,333.875,261.138,265.193,244.679,251.9Z" transform="translate(958.121 168.951)" fill="#2a2a2a"/><rect width="9.812" height="49.691" transform="translate(1186.659 599.36)" fill="#ebe0be"/><rect width="15.192" height="19.307" transform="translate(1184.127 591.447)" fill="#f4eed8"/><rect width="59.186" height="6.33" transform="translate(1161.972 646.519)" fill="#353537"/><path d="M225.461,330.581a5.381,5.381,0,1,1-5.381-5.381A5.546,5.546,0,0,1,225.461,330.581Z" transform="translate(945.373 327.649)" fill="#ebe0be"/><path d="M242.061,330.581a5.381,5.381,0,1,1-5.381-5.381A5.546,5.546,0,0,1,242.061,330.581Z" transform="translate(981.312 327.649)" fill="#ebe0be"/><rect width="358.283" height="7.913" transform="translate(1235.401 518.018)" fill="#ff6748"/><rect width="338.343" height="8.862" transform="translate(1245.529 525.931)" fill="#e34932"/><path d="M250.947,423.9l14.559-136.1H254.745L244.3,423.9Z" transform="translate(1009.458 246.676)" fill="#353537"/><path d="M360.189,423.9,349.745,287.8H339.3l14.243,136.1Z" transform="translate(1215.137 246.676)" fill="#353537"/><rect width="42.095" height="5.381" transform="translate(1252.808 512.637)" fill="#353537"/><path d="M320.432,316.158H252.7L263.461,267.1h67.732Z" transform="translate(1027.644 201.86)" fill="#353537"/><path d="M260.8,250.94s4.115,25.953-10.128,25.637c-14.243-.633-19.307-10.761-18.041-17.091,1.266-6.014,2.216-18.357,14.559-19.623C259.214,238.6,260.8,250.94,260.8,250.94Z" transform="translate(983.782 142.692)" fill="#f4eed8"/><path d="M240.006,251.508a4.657,4.657,0,1,1-3.8-5.381A4.686,4.686,0,0,1,240.006,251.508Z" transform="translate(980.202 156.366)" fill="#f4eed8"/><path d="M234.869,262.868a6.641,6.641,0,0,1,6.33,1.266s17.724-4.115,17.408-13.61a10.188,10.188,0,0,1,6.963-.317s-3.165-15.825-23.421-10.445-9.5,26.27-9.5,26.27A5.192,5.192,0,0,1,234.869,262.868Z" transform="translate(978.06 140.259)" fill="#ff6748"/><path d="M233.666,247.3l-.633,3.482a5.539,5.539,0,0,1-.317,1.583c0,1.266-.316,3.482-.316,5.381,0,3.165.316,6.647,1.583,7.6,2.532,2.532,12.66,3.165,13.926,2.532.317-.317.633-1.9.95-4.431a19.466,19.466,0,0,1,.317-4.115h0v-8.546Z" transform="translate(983.694 158.992)" fill="#f4eed8"/><path d="M232.716,249c0,1.266-.316,3.481-.316,5.381,3.8,1.9,12.027,5.7,16.458,6.014a19.467,19.467,0,0,1,.317-4.115h0C248.542,255.963,234.616,252.8,232.716,249Z" transform="translate(983.694 162.672)" fill="#ebe0be"/><path d="M310.031,212.7h-63.3a6.349,6.349,0,0,0-6.33,6.33v45.26a6.349,6.349,0,0,0,6.33,6.33h3.482v15.509L265.72,270.62h44.311a6.349,6.349,0,0,0,6.33-6.33V219.03A6.349,6.349,0,0,0,310.031,212.7Z" transform="translate(1001.014 84.081)" fill="#0957ea"/><path d="M300.787,216.9l-16.458,4.431,4.431,4.748-8.546,8.546-17.091-12.344L243.5,242.853l3.165,3.165,17.091-18.041,17.091,12.344,11.078-11.394,4.748,4.431Z" transform="translate(1007.726 93.175)" fill="#fff"/><path d="M299.28,232,292,239.28V232Z" transform="translate(1112.731 125.867)" fill="#ebe0be"/><path d="M379.348,191.174A18.674,18.674,0,1,1,360.674,172.5,18.508,18.508,0,0,1,379.348,191.174Z" transform="translate(1220.983 -2.953)" fill="#f065a6"/><path d="M407.948,360.574a18.674,18.674,0,0,1-37.348,0A18.508,18.508,0,0,1,389.274,341.9,18.708,18.708,0,0,1,407.948,360.574Z" transform="translate(1282.903 363.805)" fill="#d5498f"/><path d="M359.488,173.694A11.394,11.394,0,1,1,348.094,162.3,11.347,11.347,0,0,1,359.488,173.694Z" transform="translate(1209.508 -25.037)" fill="#f065a6"/><path d="M382.788,346.494A11.394,11.394,0,1,1,371.394,335.1,11.347,11.347,0,0,1,382.788,346.494Z" transform="translate(1259.954 349.083)" fill="#d5498f"/><path d="M291.964,260.492l.949,3.165.949-3.165a9.5,9.5,0,0,1,5.064-6.014h0a10.549,10.549,0,0,1-5.064-6.014l-.949-3.165-.949,3.165a9.5,9.5,0,0,1-5.064,6.014h0C289.432,255.428,291.015,257.644,291.964,260.492Z" transform="translate(1101.689 154.662)" fill="#fff"/><path d="M288.5,262.327l.633,2.532.633-2.532a8.087,8.087,0,0,1,3.8-4.748h0a8.086,8.086,0,0,1-3.8-4.748l-.633-2.532-.633,2.532a8.086,8.086,0,0,1-3.8,4.748h0A8.31,8.31,0,0,1,288.5,262.327Z" transform="translate(1096.926 165.487)" fill="#fff"/><path d="M424.864,234.692l.949,3.165.95-3.165a9.5,9.5,0,0,1,5.064-6.014h0a10.549,10.549,0,0,1-5.064-6.014l-.95-3.165-.949,3.165a9.5,9.5,0,0,1-5.064,6.014h0A9.5,9.5,0,0,1,424.864,234.692Z" transform="translate(1389.423 98.804)" fill="#fff"/><path d="M421.4,236.527l.633,2.532.633-2.532a8.086,8.086,0,0,1,3.8-4.748h0a8.086,8.086,0,0,1-3.8-4.748l-.633-2.532-.633,2.532a8.086,8.086,0,0,1-3.8,4.748h0C419.5,233.046,421.082,234.628,421.4,236.527Z" transform="translate(1384.66 109.629)" fill="#fff"/><path d="M389.862,274.64l-1.266,4.114-1.266-4.114a12.282,12.282,0,0,0-6.33-7.913h0a12.283,12.283,0,0,0,6.33-7.913L388.6,254.7l1.266,4.115a12.282,12.282,0,0,0,6.33,7.913h0A13.318,13.318,0,0,0,389.862,274.64Z" transform="translate(1305.42 175.013)" fill="#fff"/><path d="M391.747,276.492l-.949,3.165-.949-3.165a10.035,10.035,0,0,0-4.747-6.014h0a9.025,9.025,0,0,0,4.747-6.014l.949-3.165.949,3.165a10.035,10.035,0,0,0,4.748,6.014h0A10.035,10.035,0,0,0,391.747,276.492Z" transform="translate(1314.296 189.302)" fill="#fff"/><path d="M253.963,261.092l-.95,3.165-.949-3.165A9.5,9.5,0,0,0,247,255.079h0a10.549,10.549,0,0,0,5.064-6.014l.949-3.165.95,3.165a9.5,9.5,0,0,0,5.064,6.014h0A9.5,9.5,0,0,0,253.963,261.092Z" transform="translate(1015.304 155.961)" fill="#d5498f"/><path d="M255.164,262.927l-.633,2.532-.633-2.532a8.086,8.086,0,0,0-3.8-4.748h0a8.086,8.086,0,0,0,3.8-4.748l.633-2.532.633,2.532a8.086,8.086,0,0,0,3.8,4.748h0A9.479,9.479,0,0,0,255.164,262.927Z" transform="translate(1022.015 166.786)" fill="#d5498f"/></g></svg>