<svg xmlns="http://www.w3.org/2000/svg" xmlns:xlink="http://www.w3.org/1999/xlink" width="516.202" height="483.193" viewBox="0 0 516.202 483.193">
  <defs>
    <linearGradient id="linear-gradient" x1="0.498" y1="0.999" x2="0.498" gradientUnits="objectBoundingBox">
      <stop offset="0" stop-color="#ffb412"/>
      <stop offset="1" stop-color="#ffcb59"/>
    </linearGradient>
    <linearGradient id="linear-gradient-2" x1="0.003" y1="0.5" x2="1" y2="0.5" gradientUnits="objectBoundingBox">
      <stop offset="0" stop-color="#b47cee"/>
      <stop offset="0.995" stop-color="#0957ea"/>
      <stop offset="1" stop-color="#0092ff"/>
    </linearGradient>
    <linearGradient id="linear-gradient-3" x1="0.001" y1="0.501" x2="1" y2="0.501" gradientUnits="objectBoundingBox">
      <stop offset="0.005" stop-color="#4b52d3"/>
      <stop offset="1" stop-color="#b47cee"/>
    </linearGradient>
    <linearGradient id="linear-gradient-4" x1="0.5" y1="1" x2="0.5" y2="0.002" xlink:href="#linear-gradient-3"/>
    <linearGradient id="linear-gradient-6" x1="0.501" y1="1" x2="0.501" y2="0.002" xlink:href="#linear-gradient-3"/>
    <linearGradient id="linear-gradient-7" x1="0.499" y1="1" x2="0.499" gradientUnits="objectBoundingBox">
      <stop offset="0" stop-color="#b47cee"/>
      <stop offset="0.995" stop-color="#4b52d3"/>
    </linearGradient>
  </defs>
  <g id="IllustrationApplicationDevelopment" transform="translate(-277.679 -2274.718)">
    <path id="Path_44" data-name="Path 44" d="M424.424,329.385a1.951,1.951,0,0,1,1.483-2.33h0a1.951,1.951,0,0,1,2.33,1.483h0a1.951,1.951,0,0,1-1.483,2.33h-.424a2.035,2.035,0,0,1-1.906-1.483ZM435.862,326a2.048,2.048,0,0,1,1.059-2.542h0a2.048,2.048,0,0,1,2.542,1.059h0a1.973,1.973,0,0,1-1.271,2.542h0c-.212,0-.424.212-.635.212h0A2.1,2.1,0,0,1,435.862,326Zm11.014-4.66a2.317,2.317,0,0,1,.847-2.754h0a2.317,2.317,0,0,1,2.754.847h0a2.317,2.317,0,0,1-.847,2.754h0a1.273,1.273,0,0,1-.847.212h0a2.225,2.225,0,0,1-1.906-1.063Zm10.379-5.719a1.883,1.883,0,0,1,.635-2.754h0a1.883,1.883,0,0,1,2.754.635h0a1.883,1.883,0,0,1-.635,2.754h0c-.424.212-.635.424-1.059.424h0a4.612,4.612,0,0,1-1.7-1.063Zm9.743-6.99a1.981,1.981,0,0,1,.212-2.754h0a1.98,1.98,0,0,1,2.754.212h0a1.98,1.98,0,0,1-.212,2.754h0a3.01,3.01,0,0,1-1.271.424h0a1.923,1.923,0,0,1-1.481-.64Zm8.684-8.261a2,2,0,0,1-.212-2.754h0a2,2,0,0,1,2.754-.212h0a1.98,1.98,0,0,1,.212,2.754h0a1.923,1.923,0,0,1-1.483.635h0c-.423.207-.846,0-1.27-.427Zm7.837-9.108a2.008,2.008,0,0,1-.424-2.754h0a2.008,2.008,0,0,1,2.754-.424h0a2.008,2.008,0,0,1,.424,2.754h0a1.926,1.926,0,0,1-1.694.847h0a1.618,1.618,0,0,1-1.059-.427Zm6.354-10.167a1.869,1.869,0,0,1-.847-2.754h0a1.869,1.869,0,0,1,2.754-.847h0a2.023,2.023,0,0,1,.847,2.754h0a2.16,2.16,0,0,1-1.694,1.059h0c-.633-.007-.846-.007-1.058-.216Zm4.66-10.8a1.973,1.973,0,0,1-1.271-2.542h0a1.973,1.973,0,0,1,2.542-1.271h0a1.973,1.973,0,0,1,1.271,2.542h0a1.852,1.852,0,0,1-1.906,1.271h-.635Zm3.389-11.65a2.1,2.1,0,0,1-1.694-2.33h0a2.3,2.3,0,0,1,2.33-1.7h0a2.3,2.3,0,0,1,1.694,2.33h0a2.008,2.008,0,0,1-1.906,1.7h-.424Zm1.483-11.862a2.09,2.09,0,0,1-1.906-2.118h0a2.09,2.09,0,0,1,2.118-1.906h0a2.09,2.09,0,0,1,1.906,2.118h0a1.956,1.956,0,0,1-2.118,1.906ZM368.929,234.492h0a2.1,2.1,0,0,1,1.694-2.33h0a2.1,2.1,0,0,1,2.33,1.7h0a2.1,2.1,0,0,1-1.694,2.33h-.212a2.063,2.063,0,0,1-2.118-1.695Zm128.147-1.271a1.793,1.793,0,0,1,1.694-2.118h0a1.793,1.793,0,0,1,2.118,1.7h0a1.793,1.793,0,0,1-1.7,2.118h-.212a2.251,2.251,0,0,1-1.9-1.7Zm-126.665-8.9a1.793,1.793,0,0,1-1.694-2.118h0a1.793,1.793,0,0,1,2.118-1.7h0a1.793,1.793,0,0,1,1.694,2.118h0a1.938,1.938,0,0,1-2.118,1.7Zm124.758-2.754a1.951,1.951,0,0,1,1.483-2.33h0a1.951,1.951,0,0,1,2.33,1.483h0a1.951,1.951,0,0,1-1.483,2.33h-.424a1.649,1.649,0,0,1-1.9-1.478Zm-122.64-9.108a1.973,1.973,0,0,1-1.271-2.542h0a1.973,1.973,0,0,1,2.542-1.271h0a1.973,1.973,0,0,1,1.271,2.542h0a1.853,1.853,0,0,1-1.906,1.271h0c-.211.216-.423,0-.635,0Zm118.828-1.7a1.869,1.869,0,0,1,1.059-2.542h0a1.869,1.869,0,0,1,2.542,1.059h0a1.869,1.869,0,0,1-1.059,2.542h0a1.273,1.273,0,0,1-.847.212h0c-.635-.207-1.483-.635-1.7-1.266Zm-114.38-9.32a2.084,2.084,0,0,1-.847-2.754h0a2.083,2.083,0,0,1,2.754-.847h0a2.084,2.084,0,0,1,.847,2.754h0a2.16,2.16,0,0,1-1.694,1.059h0a1.587,1.587,0,0,1-1.059-.207Zm108.66-.847h0a1.883,1.883,0,0,1,.635-2.754h0a1.883,1.883,0,0,1,2.754.635h0a1.883,1.883,0,0,1-.635,2.754h0c-.424.212-.635.424-1.059.424h0a4.613,4.613,0,0,1-1.694-1.056Zm-7.2-9.108a1.979,1.979,0,0,1,0-2.754h0a1.978,1.978,0,0,1,2.754,0h0a1.978,1.978,0,0,1,0,2.754h0a1.923,1.923,0,0,1-1.483.635h0a1.831,1.831,0,0,1-1.271-.63Zm-95.1,0a1.981,1.981,0,0,1-.212-2.754h0a1.81,1.81,0,0,1,2.754-.212h0a1.98,1.98,0,0,1,.212,2.754h0a2.288,2.288,0,0,1-1.483.635h0a3.011,3.011,0,0,1-1.276-.418Zm86.42-7.625a2.008,2.008,0,0,1-.424-2.754h0a2.008,2.008,0,0,1,2.754-.424h0a2.008,2.008,0,0,1,.424,2.754h0a1.926,1.926,0,0,1-1.694.847h0a1.618,1.618,0,0,1-1.065-.418ZM391.6,182.8a1.98,1.98,0,0,1,.212-2.754h0a1.98,1.98,0,0,1,2.753.212h0a1.98,1.98,0,0,1-.212,2.754h0a3.01,3.01,0,0,1-1.271.424h0a2.288,2.288,0,0,1-1.487-.631Zm68.2-5.084h0a2.023,2.023,0,0,1-.847-2.754h0a2.023,2.023,0,0,1,2.754-.847h0a2.023,2.023,0,0,1,.847,2.754h0a2.16,2.16,0,0,1-1.694,1.059h0a1.588,1.588,0,0,1-1.058-.207Zm-58.461-1.906a2.084,2.084,0,0,1,.847-2.754h0a2.084,2.084,0,0,1,2.754.847h0a2.083,2.083,0,0,1-.847,2.754h0a1.273,1.273,0,0,1-.847.212h0a2.224,2.224,0,0,1-1.907-1.054Zm47.658-2.33a1.973,1.973,0,0,1-1.271-2.542h0a1.973,1.973,0,0,1,2.542-1.271h0a1.973,1.973,0,0,1,1.271,2.542h0a2.034,2.034,0,0,1-1.906,1.483h0a.778.778,0,0,0-.636-.207Zm-36.644-2.542a2.3,2.3,0,0,1,1.483-2.542h0a2.3,2.3,0,0,1,2.542,1.483h0a2.3,2.3,0,0,1-1.483,2.542h-.635a1.813,1.813,0,0,1-1.907-1.478Zm25.418,0h0a1.985,1.985,0,0,1-1.694-2.33h0a1.9,1.9,0,0,1,2.118-1.694h0a1.985,1.985,0,0,1,1.694,2.33h0a2.008,2.008,0,0,1-1.906,1.7h-.212ZM424,168.618a2.09,2.09,0,0,1,1.906-2.118h0a2.09,2.09,0,0,1,2.118,1.906h0a2.09,2.09,0,0,1-1.906,2.118h-.212A2.235,2.235,0,0,1,424,168.618Z" transform="translate(181.708 2164.928)" fill="#999"/>
    <path id="Path_45" data-name="Path 45" d="M394.018,214.424h-.847c-.212,0-.212-.212-.424-.212l-.212-.212c-.212-.212-.424-.424-.424-.635s-.212-.424-.212-.847a2.288,2.288,0,0,1,.635-1.483,2.589,2.589,0,0,1,1.906-.635c.212,0,.212,0,.424.212.212,0,.212.212.424.212s.212.212.424.212a1.923,1.923,0,0,1,.635,1.483,1.6,1.6,0,0,1-.212.847c0,.212-.212.424-.424.635l-.847.424h-.847Z" transform="translate(207.666 2214.015)" fill="#999"/>
    <path id="Path_46" data-name="Path 46" d="M401.984,444.594a2.09,2.09,0,0,1-1.906-2.118h0a2.09,2.09,0,0,1,2.118-1.906h0a2.09,2.09,0,0,1,1.906,2.118h0a1.956,1.956,0,0,1-2.118,1.906Zm10.167-2.118a2.09,2.09,0,0,1,1.906-2.118h0a2.09,2.09,0,0,1,2.118,1.906h0a2.09,2.09,0,0,1-1.906,2.118h-.212a1.9,1.9,0,0,1-1.906-1.906Zm-22.24,1.059a1.985,1.985,0,0,1-1.694-2.33h0a1.9,1.9,0,0,1,2.118-1.694h0a1.9,1.9,0,0,1,1.694,2.118h0a2.008,2.008,0,0,1-1.906,1.694h0c0,.212,0,.212-.213.212Zm-11.862-1.906a1.951,1.951,0,0,1-1.483-2.33h0a1.951,1.951,0,0,1,2.33-1.483h0a1.951,1.951,0,0,1,1.483,2.33h0a2.251,2.251,0,0,1-1.906,1.7h0a.656.656,0,0,0-.424-.213Zm-11.861-2.965a1.973,1.973,0,0,1-1.271-2.542h0a1.973,1.973,0,0,1,2.542-1.271h0a1.973,1.973,0,0,1,1.271,2.542h0a2.035,2.035,0,0,1-1.906,1.483h0a.778.778,0,0,0-.637-.213ZM354.75,434.64a1.869,1.869,0,0,1-1.059-2.542h0a1.869,1.869,0,0,1,2.542-1.059h0a1.869,1.869,0,0,1,1.059,2.542h0a2.036,2.036,0,0,1-1.906,1.271h0a.778.778,0,0,0-.637-.213Zm-11.014-5.084a2.023,2.023,0,0,1-.847-2.754h0a2.023,2.023,0,0,1,2.754-.847h0a2.023,2.023,0,0,1,.847,2.754h0a2.16,2.16,0,0,1-1.694,1.059h0a1.587,1.587,0,0,1-1.061-.213Zm-10.591-5.931a2.062,2.062,0,0,1-.635-2.754h0a2.062,2.062,0,0,1,2.754-.635h0a2.062,2.062,0,0,1,.635,2.754h0a1.927,1.927,0,0,1-1.7.847h0a1.587,1.587,0,0,1-1.06-.213Zm-10.167-6.99a2.008,2.008,0,0,1-.424-2.754h0a2.008,2.008,0,0,1,2.754-.424h0a2.008,2.008,0,0,1,.424,2.754h0a2.615,2.615,0,0,1-1.7.847h0a3.576,3.576,0,0,1-1.06-.424ZM313.87,408.8a2,2,0,0,1-.212-2.754h0a1.98,1.98,0,0,1,2.754-.212h0a1.98,1.98,0,0,1,.212,2.754h0a1.923,1.923,0,0,1-1.483.635h0a1.018,1.018,0,0,1-1.272-.421Zm-8.684-8.684a1.98,1.98,0,0,1,.212-2.754h0a1.98,1.98,0,0,1,2.753.212h0a1.98,1.98,0,0,1-.212,2.754h0a1.556,1.556,0,0,1-1.271.424h0a2.288,2.288,0,0,1-1.483-.637Zm-7.625-9.32a2.008,2.008,0,0,1,.424-2.754h0a2.008,2.008,0,0,1,2.754.424h0a2.008,2.008,0,0,1-.424,2.754h0a3.011,3.011,0,0,1-1.271.424h0a1.6,1.6,0,0,1-1.485-.849Zm-6.99-9.955h0a2.062,2.062,0,0,1,.635-2.754h0a2.062,2.062,0,0,1,2.754.635h0a2.062,2.062,0,0,1-.635,2.754h0a1.91,1.91,0,0,1-1.059.212h0a1.927,1.927,0,0,1-1.7-.848Zm-5.931-10.591a2.317,2.317,0,0,1,.847-2.754h0a2.084,2.084,0,0,1,2.754.847h0a2.317,2.317,0,0,1-.847,2.754h0a1.273,1.273,0,0,1-.847.212h0a2.224,2.224,0,0,1-1.908-1.06Zm-5.084-11.014a1.869,1.869,0,0,1,1.059-2.542h0a1.869,1.869,0,0,1,2.542,1.059h0a1.869,1.869,0,0,1-1.059,2.542h0c-.212,0-.424.212-.847.212h0c-.637,0-1.272-.637-1.7-1.272ZM275.532,347.8a1.973,1.973,0,0,1,1.271-2.542h0a1.973,1.973,0,0,1,2.542,1.271h0a1.973,1.973,0,0,1-1.271,2.542h-.635a1.853,1.853,0,0,1-1.908-1.272Zm-2.965-11.862a1.951,1.951,0,0,1,1.483-2.33h0a1.951,1.951,0,0,1,2.33,1.483h0a1.951,1.951,0,0,1-1.483,2.33h-.424a1.649,1.649,0,0,1-1.908-1.484Zm-2.118-11.862a1.793,1.793,0,0,1,1.694-2.118h0a2.1,2.1,0,0,1,2.33,1.7h0a1.793,1.793,0,0,1-1.694,2.118h-.212a2.281,2.281,0,0,1-2.12-1.7Zm-.847-12.285h0a2.252,2.252,0,0,1,1.906-2.118h0a2.252,2.252,0,0,1,2.118,1.906h0a2.252,2.252,0,0,1-1.906,2.118h0a1.832,1.832,0,0,1-2.12-1.906Zm2.118-9.955a2.09,2.09,0,0,1-1.906-2.118h0a2.09,2.09,0,0,1,2.118-1.906h0a2.09,2.09,0,0,1,1.906,2.118h0a1.956,1.956,0,0,1-2.118,1.906Zm1.48-11.862a2.1,2.1,0,0,1-1.7-2.33h0a2.3,2.3,0,0,1,2.33-1.694h0a2.3,2.3,0,0,1,1.7,2.33h0a2.008,2.008,0,0,1-1.906,1.7H273.2Zm2.33-11.65a1.973,1.973,0,0,1-1.271-2.542h0a1.9,1.9,0,0,1,2.542-1.271h0a1.9,1.9,0,0,1,1.271,2.542h0a2.035,2.035,0,0,1-1.906,1.483h0a.778.778,0,0,0-.635-.212Zm3.6-11.438a1.869,1.869,0,0,1-1.059-2.542h0a1.869,1.869,0,0,1,2.542-1.059h0a1.869,1.869,0,0,1,1.059,2.542h0a1.852,1.852,0,0,1-1.906,1.271h0c0-.212-.211-.212-.634-.212ZM284,255.868a1.869,1.869,0,0,1-.847-2.754h0a2.023,2.023,0,0,1,2.754-.847h0a1.869,1.869,0,0,1,.847,2.754h0a2.16,2.16,0,0,1-1.695,1.059h0a4.311,4.311,0,0,1-1.059-.212Zm5.507-10.591a2.062,2.062,0,0,1-.635-2.754h0a2.062,2.062,0,0,1,2.754-.635h0a2.062,2.062,0,0,1,.635,2.754h0a1.926,1.926,0,0,1-1.694.847h0a2.3,2.3,0,0,1-1.056-.212Zm6.778-9.955a2.008,2.008,0,0,1-.424-2.754h0a2.008,2.008,0,0,1,2.754-.424h0a2.008,2.008,0,0,1,.424,2.754h0a2.69,2.69,0,0,1-1.483.847h0a3.009,3.009,0,0,1-1.267-.423Zm222.193-1.906h0a2.1,2.1,0,0,1-1.694-2.33h0a2.1,2.1,0,0,1,2.33-1.694h0a2.1,2.1,0,0,1,1.7,2.33h0a2.008,2.008,0,0,1-1.906,1.695h-.424Zm-11.862-2.33h0a1.951,1.951,0,0,1-1.483-2.33h0a1.951,1.951,0,0,1,2.33-1.483h0a1.951,1.951,0,0,1,1.483,2.33h0a2.035,2.035,0,0,1-1.906,1.483h-.424Zm-11.65-3.177h0a1.9,1.9,0,0,1-1.271-2.542h0a1.9,1.9,0,0,1,2.542-1.271h0a1.973,1.973,0,0,1,1.271,2.542h0a2.035,2.035,0,0,1-1.906,1.483h0a.778.778,0,0,0-.632-.213ZM303.91,226.215a1.806,1.806,0,0,1,0-2.754h0a1.806,1.806,0,0,1,2.754,0h0a1.809,1.809,0,0,1,0,2.754h0a1.923,1.923,0,0,1-1.483.635h0c-.208-.213-.844-.213-1.267-.636Zm179.618-1.906a1.973,1.973,0,0,1-1.271-2.542h0A1.973,1.973,0,0,1,484.8,220.5h0a1.973,1.973,0,0,1,1.271,2.542h0a1.853,1.853,0,0,1-1.906,1.271h-.635Zm-11.438-4.024a2.161,2.161,0,0,1-1.271-2.542h0a2.161,2.161,0,0,1,2.542-1.271h0a2.161,2.161,0,0,1,1.271,2.542h0a1.853,1.853,0,0,1-1.906,1.271h0a.4.4,0,0,1-.632,0Zm-159.5-2.33a1.981,1.981,0,0,1,.212-2.754h0a1.98,1.98,0,0,1,2.754.212h0a1.98,1.98,0,0,1-.212,2.754h0a1.556,1.556,0,0,1-1.271.424h0a2.288,2.288,0,0,1-1.473-.638Zm148.27-1.7a2.161,2.161,0,0,1-1.271-2.542h0a2.161,2.161,0,0,1,2.542-1.271h0a2.161,2.161,0,0,1,1.271,2.542h0a1.853,1.853,0,0,1-1.906,1.271h-.635Zm-11.226-4.236a2.161,2.161,0,0,1-1.271-2.542h0a2.161,2.161,0,0,1,2.542-1.271h0a2.161,2.161,0,0,1,1.271,2.542h0a1.853,1.853,0,0,1-1.906,1.271h0a.4.4,0,0,1-.628,0Zm-127.5-1.484a1.883,1.883,0,0,1,.635-2.754h0a1.883,1.883,0,0,1,2.754.635h0a1.883,1.883,0,0,1-.635,2.754h0c-.424.212-.635.424-1.059.424h0a2.911,2.911,0,0,1-1.695-1.059ZM438.416,208a1.973,1.973,0,0,1-1.271-2.542h0a1.973,1.973,0,0,1,2.542-1.271h0a1.973,1.973,0,0,1,1.271,2.542h0A1.853,1.853,0,0,1,439.051,208h0a.4.4,0,0,1-.635,0ZM332.3,204.4a2.317,2.317,0,0,1,.847-2.754h0a2.317,2.317,0,0,1,2.754.847h0a2.317,2.317,0,0,1-.847,2.754h0a1.273,1.273,0,0,1-.847.212h0A2.224,2.224,0,0,1,332.3,204.4Zm94.681,0h0a1.973,1.973,0,0,1-1.271-2.542h0a1.973,1.973,0,0,1,2.542-1.271h0a1.973,1.973,0,0,1,1.271,2.542h0a2.035,2.035,0,0,1-1.906,1.483h0c-.217,0-.427-.212-.639-.212Zm-11.441-3.18h0a1.951,1.951,0,0,1-1.483-2.33h0a1.951,1.951,0,0,1,2.33-1.483h0a1.951,1.951,0,0,1,1.483,2.33h0a2.034,2.034,0,0,1-1.906,1.483h-.424Zm-72.229-1.7a1.973,1.973,0,0,1,1.271-2.542h0a1.973,1.973,0,0,1,2.542,1.271h0a1.973,1.973,0,0,1-1.271,2.542h-.635a1.649,1.649,0,0,1-1.907-1.271Zm60.579-.847a1.951,1.951,0,0,1-1.483-2.33h0a1.951,1.951,0,0,1,2.33-1.483h0a1.951,1.951,0,0,1,1.483,2.33h0a2.008,2.008,0,0,1-1.906,1.7h0C404.314,198.678,404.1,198.678,403.89,198.678Zm-49.141-2.33a1.951,1.951,0,0,1,1.483-2.33h0a1.951,1.951,0,0,1,2.33,1.483h0a1.951,1.951,0,0,1-1.483,2.33h-.424a2.034,2.034,0,0,1-1.906-1.483Zm37.491.424a1.9,1.9,0,0,1-1.694-2.118h0a1.9,1.9,0,0,1,2.118-1.695h0a1.9,1.9,0,0,1,1.694,2.118h0a2.008,2.008,0,0,1-1.906,1.7Zm-25.629-2.33a1.947,1.947,0,0,1,1.906-2.118h0a1.947,1.947,0,0,1,2.118,1.906h0a1.947,1.947,0,0,1-1.906,2.118h-.212a2.048,2.048,0,0,1-1.906-1.906Zm13.98,1.483a1.956,1.956,0,0,1-1.906-2.118h0A1.956,1.956,0,0,1,380.8,191.9h0a2.09,2.09,0,0,1,1.906,2.118h0a2.252,2.252,0,0,1-2.118,1.906Z" transform="translate(70.918 2193.329)" fill="#999"/>
    <path id="Path_47" data-name="Path 47" d="M344.618,312.691a1.923,1.923,0,0,1-1.483-.635c-.212-.212-.424-.424-.424-.635s-.212-.424-.212-.847v-.424c0-.212,0-.212.212-.424,0-.212.212-.212.212-.424a.207.207,0,0,1,.212-.212c.212-.212.424-.424.635-.424a1.946,1.946,0,0,1,2.118.424l.212.212a.74.74,0,0,1,.212.424c0,.212,0,.212.212.424v.424a1.6,1.6,0,0,1-.212.847c0,.212-.212.424-.424.635s-.424.424-.635.424a.778.778,0,0,1-.635.211Z" transform="translate(152.43 2323.749)" fill="#999"/>
    <path id="Path_48" data-name="Path 48" d="M483.937,65.572c-5.033-50.328-45.3-54.522-87.794-59.834-7.27-.839-15.378-1.957-23.486-3.355-23.635-.911-32.458-3.826-46-1.5C301.867,3.344,197.73,7.236,132.863,29.6,55.693,56.446,7.69,219.808.51,254.022-12.12,304.639,47.289,387.5,66.323,403.248c6.9,6.021,40.155,38.944,65.6,44.256,35.789,7.549,73.535-1.957,104.57-20.97,24.884-15.378,45.854-33.552,76.331-36.907,25.723-3.076,52.565,1.4,78.568.28C442,387.391,493.164,357.753,481.7,297.36c-8.668-45.575-46.413-74.094-31.315-124.7C461.29,132.675,488.411,111.146,483.937,65.572Z" transform="translate(792.648 2724.003) rotate(175.988)" fill="rgba(251,172,46,0.25)"/>
    <path id="Path_49" data-name="Path 49" d="M492.429,534.469H346.7a30.509,30.509,0,0,1-30.5-30.5V215.9a30.509,30.509,0,0,1,30.5-30.5H492.429a30.509,30.509,0,0,1,30.5,30.5V503.968a30.509,30.509,0,0,1-30.5,30.5Z" transform="translate(123.023 2186.061)" fill="#2a2a2a"/>
    <path id="Path_50" data-name="Path 50" d="M486.95,190.2H457.084a6.6,6.6,0,0,0-6.566,6.566h0a6.6,6.6,0,0,1-6.566,6.566H385.7a6.6,6.6,0,0,1-6.566-6.566h0a6.6,6.6,0,0,0-6.566-6.566H341.646A20.565,20.565,0,0,0,321.1,210.746V498.813a20.565,20.565,0,0,0,20.546,20.546H487.374a20.565,20.565,0,0,0,20.546-20.546V210.746A21.212,21.212,0,0,0,486.95,190.2Z" transform="translate(128.502 2191.428)" fill="url(#linear-gradient)"/>
    <path id="Path_51" data-name="Path 51" d="M321,435.62,507.608,249.012v-47.87a10.312,10.312,0,0,0-.212-2.542L321,385Z" transform="translate(128.39 2200.821)" fill="#fff"/>
    <path id="Path_52" data-name="Path 52" d="M507.608,254.906V229.7L321,416.308v25.206Z" transform="translate(128.39 2235.595)" fill="#fff"/>
    <path id="Path_53" data-name="Path 53" d="M422.253,347.991H351.3a5.244,5.244,0,0,1-5.3-5.3h0a5.244,5.244,0,0,1,5.3-5.3h70.958a5.244,5.244,0,0,1,5.3,5.3h0a5.244,5.244,0,0,1-5.3,5.3Z" transform="translate(156.344 2356.019)" fill="url(#linear-gradient-2)"/>
    <path id="Path_54" data-name="Path 54" d="M361.571,275.816H327.045A17,17,0,0,1,310.1,258.871V224.345A17,17,0,0,1,327.045,207.4h34.526a17,17,0,0,1,16.945,16.945v34.526a17,17,0,0,1-16.945,16.945Z" transform="translate(116.203 2210.66)" fill="url(#linear-gradient-3)"/>
    <path id="Path_55" data-name="Path 55" d="M361.571,275.816H327.045A17,17,0,0,1,310.1,258.871V224.345A17,17,0,0,1,327.045,207.4h34.526a17,17,0,0,1,16.945,16.945v34.526a17,17,0,0,1-16.945,16.945Z" transform="translate(116.203 2210.66)" opacity="0.5"/>
    <path id="Path_56" data-name="Path 56" d="M361.571,274.016H327.045A17,17,0,0,1,310.1,257.071V222.545A17,17,0,0,1,327.045,205.6h34.526a17,17,0,0,1,16.945,16.945v34.526A17,17,0,0,1,361.571,274.016Z" transform="translate(116.203 2208.648)" fill="url(#linear-gradient-4)"/>
    <rect id="Rectangle_12" data-name="Rectangle 12" width="49.776" height="33.678" transform="translate(435.622 2431.617)" fill="#fff"/>
    <path id="Path_57" data-name="Path 57" d="M339.494,225.043l-8.9-6.143-16.1,22.876H364.27L348.39,218.9Z" transform="translate(121.122 2223.519)" opacity="0.05"/>
    <path id="Path_58" data-name="Path 58" d="M339.494,238.794,364.276,213.8H314.5Z" transform="translate(121.122 2217.817)" opacity="0.1"/>
    <path id="Path_59" data-name="Path 59" d="M339.494,230.745,364.276,213.8H314.5Z" transform="translate(121.122 2217.817)" opacity="0.16"/>
    <path id="Path_60" data-name="Path 60" d="M373.261,217.4a20.814,20.814,0,0,0-1.483-7.2L314.8,267.178a16.254,16.254,0,0,0,7.2,1.483h1.7l49.776-49.776V217.4Z" transform="translate(121.458 2213.791)" fill="#fff"/>
    <path id="Path_61" data-name="Path 61" d="M361.571,205.6h-3.389L310.1,253.682v3.389a17.293,17.293,0,0,0,5.3,12.285L373.856,210.9a17.293,17.293,0,0,0-12.285-5.3Z" transform="translate(116.202 2208.648)" fill="#fff"/>
    <path id="Path_62" data-name="Path 62" d="M449.071,238.616H414.545A17,17,0,0,1,397.6,221.671V187.145A17,17,0,0,1,414.545,170.2h34.526a17,17,0,0,1,16.945,16.945v34.526a17,17,0,0,1-16.945,16.945Z" transform="translate(214.04 2169.066)" fill="url(#linear-gradient-3)"/>
    <path id="Path_63" data-name="Path 63" d="M449.071,238.616H414.545A17,17,0,0,1,397.6,221.671V187.145A17,17,0,0,1,414.545,170.2h34.526a17,17,0,0,1,16.945,16.945v34.526a17,17,0,0,1-16.945,16.945Z" transform="translate(214.04 2169.066)" opacity="0.5"/>
    <path id="Path_64" data-name="Path 64" d="M449.071,236.816H414.545A17,17,0,0,1,397.6,219.871V185.345A17,17,0,0,1,414.545,168.4h34.526a17,17,0,0,1,16.945,16.945v34.526A17,17,0,0,1,449.071,236.816Z" transform="translate(214.04 2167.053)" fill="url(#linear-gradient-6)"/>
    <path id="Path_65" data-name="Path 65" d="M443.128,182.067c-6.143-9.32-14.827-4.448-18.64-1.483-3.813-2.754-12.709-7.837-18.64,1.483-7.414,11.438,9.955,28.383,18.64,31.56C433.172,210.45,450.541,193.505,443.128,182.067Z" transform="translate(221.254 2176.262)" fill="#fff"/>
    <path id="Path_66" data-name="Path 66" d="M441.508,182.067c-6.143-9.32-14.827-4.448-18.64-1.483-3.6-2.542-11.438-7.2-17.369-.212,5.719-4.872,12.709-.847,15.886,1.7,3.813-2.754,12.709-7.837,18.64,1.483,4.66,7.2-.424,16.521-6.99,23.3C440.237,199.859,446.592,189.692,441.508,182.067Z" transform="translate(222.873 2176.262)" opacity="0.1"/>
    <path id="Path_67" data-name="Path 67" d="M460.761,180.2a20.816,20.816,0,0,0-1.483-7.2L402.3,229.978a16.254,16.254,0,0,0,7.2,1.483h1.7l49.776-49.776V180.2Z" transform="translate(219.295 2172.196)" fill="#fff"/>
    <path id="Path_68" data-name="Path 68" d="M449.071,168.4h-3.389L397.6,216.482v3.389a17.293,17.293,0,0,0,5.3,12.285L461.356,173.7a17.293,17.293,0,0,0-12.285-5.3Z" transform="translate(214.04 2167.053)" fill="#fff"/>
    <path id="Path_69" data-name="Path 69" d="M513.69,319.36H390.626A11.164,11.164,0,0,1,379.4,308.134V225.526A11.164,11.164,0,0,1,390.626,214.3H513.69a11.164,11.164,0,0,1,11.226,11.226v82.607A11.164,11.164,0,0,1,513.69,319.36Z" transform="translate(193.689 2218.375)" fill="#ebebeb"/>
    <path id="Path_70" data-name="Path 70" d="M513.69,319.36H390.626A11.164,11.164,0,0,1,379.4,308.134V225.526A11.164,11.164,0,0,1,390.626,214.3H513.69a11.164,11.164,0,0,1,11.226,11.226v82.607A11.164,11.164,0,0,1,513.69,319.36Z" transform="translate(193.689 2218.375)" opacity="0.2"/>
    <path id="Path_71" data-name="Path 71" d="M513.69,317.06H390.626A11.164,11.164,0,0,1,379.4,305.834V223.226A11.164,11.164,0,0,1,390.626,212H513.69a11.164,11.164,0,0,1,11.226,11.226v82.607A11.164,11.164,0,0,1,513.69,317.06Z" transform="translate(193.689 2215.804)" fill="#ebebeb"/>
    <rect id="Rectangle_13" data-name="Rectangle 13" width="54.436" height="33.043" transform="translate(583.045 2448.773)" fill="#fff"/>
    <rect id="Rectangle_14" data-name="Rectangle 14" width="54.436" height="33.043" transform="translate(583.045 2488.806)" fill="#fff"/>
    <rect id="Rectangle_15" data-name="Rectangle 15" width="54.436" height="33.043" transform="translate(655.697 2448.773)" fill="#fff"/>
    <rect id="Rectangle_16" data-name="Rectangle 16" width="54.436" height="33.043" transform="translate(655.697 2488.806)" fill="#fff"/>
    <path id="Path_72" data-name="Path 72" d="M379.4,229.95,524.916,218.3H379.4Z" transform="translate(193.689 2222.848)" fill="#ebebeb"/>
    <path id="Path_73" data-name="Path 73" d="M524.916,225.456v-2.33A11.164,11.164,0,0,0,513.69,211.9H390.626A11.164,11.164,0,0,0,379.4,223.126v2.33Z" transform="translate(193.69 2215.692)" fill="#ebebeb"/>
    <path id="Path_74" data-name="Path 74" d="M390.031,217.165a2.965,2.965,0,1,1-2.965-2.965,3.029,3.029,0,0,1,2.965,2.965Z" transform="translate(198.945 2218.264)" fill="#f56300"/>
    <path id="Path_75" data-name="Path 75" d="M396.231,217.165a2.965,2.965,0,1,1-2.965-2.965,2.9,2.9,0,0,1,2.965,2.965Z" transform="translate(205.877 2218.264)" fill="#ffd350"/>
    <path id="Path_76" data-name="Path 76" d="M402.531,217.165a2.965,2.965,0,1,1-2.965-2.965,2.9,2.9,0,0,1,2.965,2.965Z" transform="translate(212.921 2218.264)" fill="#b6ff1c"/>
    <path id="Path_77" data-name="Path 77" d="M423.879,279H322.209A12.746,12.746,0,0,0,309.5,291.709v55.707a12.746,12.746,0,0,0,12.709,12.709h69.475l10.167,13.132,9.955-13.132h12.073a12.746,12.746,0,0,0,12.709-12.709V291.709A12.746,12.746,0,0,0,423.879,279Z" transform="translate(115.532 2290.719)" fill="#ebebeb"/>
    <path id="Path_78" data-name="Path 78" d="M423.879,279H322.209A12.746,12.746,0,0,0,309.5,291.709v55.707a12.746,12.746,0,0,0,12.709,12.709h69.475l10.167,13.132,9.955-13.132h12.073a12.746,12.746,0,0,0,12.709-12.709V291.709A12.746,12.746,0,0,0,423.879,279Z" transform="translate(115.532 2290.719)" opacity="0.2"/>
    <path id="Path_79" data-name="Path 79" d="M423.879,276.4H322.209A12.746,12.746,0,0,0,309.5,289.109v55.707a12.746,12.746,0,0,0,12.709,12.709h69.475l10.167,13.132,9.955-13.132h12.073a12.746,12.746,0,0,0,12.709-12.709V289.109A12.746,12.746,0,0,0,423.879,276.4Z" transform="translate(115.532 2287.812)" fill="#ebebeb"/>
    <path id="Path_80" data-name="Path 80" d="M409.286,290.825H320.113a3.8,3.8,0,0,1-3.813-3.813h0a3.8,3.8,0,0,1,3.813-3.813h89.174a3.8,3.8,0,0,1,3.813,3.813h0a3.8,3.8,0,0,1-3.814,3.813Z" transform="translate(123.135 2295.415)" fill="#fff"/>
    <path id="Path_81" data-name="Path 81" d="M409.286,299.925H320.113a3.8,3.8,0,0,1-3.813-3.813h0a3.8,3.8,0,0,1,3.813-3.813h89.174a3.8,3.8,0,0,1,3.813,3.813h0a3.8,3.8,0,0,1-3.814,3.813Z" transform="translate(123.135 2305.591)" fill="#fff"/>
    <path id="Path_82" data-name="Path 82" d="M409.286,309.025H320.113a3.8,3.8,0,0,1-3.813-3.813h0a3.8,3.8,0,0,1,3.813-3.813h89.174a3.8,3.8,0,0,1,3.813,3.813h0a3.8,3.8,0,0,1-3.814,3.813Z" transform="translate(123.135 2315.765)" fill="#fff"/>
    <path id="Path_83" data-name="Path 83" d="M350.5,192.456a11.544,11.544,0,0,1,1.694-4.024,3.55,3.55,0,0,1,3.813-1.7c-.847-1.906.847-3.813,2.33-5.3,1.059-1.271,2.33-2.542,4.025-2.542a4.829,4.829,0,0,1,2.33.635,6.71,6.71,0,0,1,3.389,2.965c1.059,2.118.212,4.66-.847,6.778a18.913,18.913,0,0,1-12.5,9.108c-.847-.847-2.118-.847-2.965-1.483C349.865,195.845,350.924,194.151,350.5,192.456Z" transform="translate(161.375 2178.793)" fill="#edd478"/>
    <path id="Path_84" data-name="Path 84" d="M299.128,227.651c-2.542.635-4.872-.847-7.2-2.118-2.965-1.906-5.931-3.6-8.049-6.143-3.813-4.448-5.507-10.167-6.354-15.886-4.66-2.542-8.9-6.143-11.014-10.8-2.118-4.872-1.906-11.014,1.906-14.827a17.173,17.173,0,0,1,5.931-3.6c12.073-4.448,26.9-.635,35.373,9.108a10.3,10.3,0,0,0,3.6,3.177c2.965-.847,5.931.635,7.837,2.965a10.935,10.935,0,0,1,1.906,10.379c-1.271,3.6-4.236,6.566-5.931,9.955-1.7,3.177-2.118,6.778-2.965,10.379-.847,3.389-2.542,6.99-5.719,8.684C305.483,230.616,300.4,231.04,299.128,227.651Z" transform="translate(65.96 2171.558)" fill="#0957ea"/>
    <path id="Path_85" data-name="Path 85" d="M263.1,261.9l26.053,205.671h11.226l9.108-175.17,25.63,177.5h11.226l5.931-208Z" transform="translate(63.65 2271.599)" fill="url(#linear-gradient-7)"/>
    <path id="Path_86" data-name="Path 86" d="M263.1,261.9l26.053,205.671h11.226l9.108-175.17,25.63,177.5h11.226l5.931-208Z" transform="translate(63.65 2271.599)" fill="#0092ff" opacity="0.4"/>
    <path id="Path_87" data-name="Path 87" d="M275.4,463.881h11.226l9.108-175.17,25.63,177.5h3.389l1.906-2.754L304.418,294.43l6.143-29.23-18,13.344-11.014-7.837L287.9,287.44l-5.3,165.427Z" transform="translate(77.403 2275.289)" fill="#0957ea" opacity="0.4"/>
    <path id="Path_88" data-name="Path 88" d="M460.358,193.1c-1.694-2.965-4.448-7.2-7.414-8.9-21.181,20.758-48.505,34.314-76.677,43-8.049,2.542-16.1,4.448-24.359,4.66a84.253,84.253,0,0,1-20.334-2.965,69.557,69.557,0,0,1-6.566-4.236c-6.354-4.448-12.285-11.438-11.862-19.275-4.448-2.965-8.684-.635-13.344,2.33,2.965,7.414-1.7,15.674-7.837,20.758s-13.556,8.261-19.063,13.98c-6.566,6.778-9.743,16.1-11.65,25.418a140.578,140.578,0,0,0,7.2,82.4h89.6c7.2-12.073,5.3-26.9,4.448-40.88q-.636-11.12-1.271-22.24a145.635,145.635,0,0,0-2.754-23.3A253.25,253.25,0,0,0,460.358,193.1Z" transform="translate(58.083 2184.719)" fill="#2a2a2a"/>
    <path id="Path_89" data-name="Path 89" d="M421.136,190.972a33.789,33.789,0,0,0-3.389-4.872A276.839,276.839,0,0,1,300.19,257.693c2.118,2.754,3.813,3.813,6.778,5.507-2.33.847-5.3,1.7-7.625,2.542,4.236,2.118,7.837,5.084,12.073,7.2.212,15.251-1.483,31.348-3.389,46.387A60.732,60.732,0,0,1,305.7,331.4c-2.33,6.778-7.2,12.073-12.5,17.157h25.206c7.2-12.073,5.3-26.9,4.448-40.88q-.636-11.12-1.271-22.24a145.628,145.628,0,0,0-2.754-23.3,256.907,256.907,0,0,0,102.307-71.165Z" transform="translate(97.306 2186.844)" fill="#0b0b0b" opacity="0.1"/>
    <path id="Path_90" data-name="Path 90" d="M330.108,254.727c-1.483-1.7-4.024-2.118-6.354-1.7s-4.872.847-5.931,2.965a19.866,19.866,0,0,0-2.118,5.931,24.834,24.834,0,0,1-.847,5.719,12.1,12.1,0,0,0-1.694-1.483,26.083,26.083,0,0,1-10.379,9.955c-5.3,2.754-11.65,3.389-16.945.635A14.5,14.5,0,0,1,278,265.53c-7.413-.212-14.615-6.778-12.285-15.886H265.5l.635-1.271c.212-.635.424-1.059.635-1.7a10.312,10.312,0,0,0,.635-1.483c0-.212.212-.424.424-.635,2.118-4.236,4.236-8.261,6.566-12.5a14.766,14.766,0,0,1,1.271-4.024,107.766,107.766,0,0,0,4.66-11.438,14.4,14.4,0,0,1,1.906-3.6A47.714,47.714,0,0,0,268.04,227.19a86.916,86.916,0,0,0-8.261,15.886,142.613,142.613,0,0,0,1.906,53.589c7.625,4.66,18,5.719,26.689,2.965,13.344-4.024,23.511-14.192,33.043-24.359a9.407,9.407,0,0,0-1.694-2.33,23.98,23.98,0,0,1,2.118-2.754c2.33-2.542,5.507-4.448,8.473-6.566a1.654,1.654,0,0,0,.847-.847,1.587,1.587,0,0,0,.212-1.059C331.8,259.387,331.8,256.634,330.108,254.727Z" transform="translate(58.068 2216.922)" fill="#0b0b0b" opacity="0.1"/>
    <path id="Path_91" data-name="Path 91" d="M274.6,216.842a32.568,32.568,0,0,0,18.64,5.507,27.841,27.841,0,0,0,16.521-6.143c-1.059-.635-2.118-1.271-2.965-1.906-6.354-4.448-12.285-11.438-11.862-19.275-4.448-2.965-8.684-.635-13.344,2.33C284.132,203.921,280.107,211.758,274.6,216.842Z" transform="translate(76.509 2195.288)" fill="#e6c087"/>
    <path id="Path_92" data-name="Path 92" d="M291.156,194.925c-4.448-2.965-8.684-.635-13.344,2.33a14.612,14.612,0,0,1-.212,10.379,26.3,26.3,0,0,0,10.591,5.3,25.781,25.781,0,0,0,12.709-.212C295.6,208.057,290.944,201.915,291.156,194.925Z" transform="translate(79.863 2195.176)" opacity="0.1"/>
    <path id="Path_93" data-name="Path 93" d="M277.7,180.479c-3.177,6.566-4.66,14.192-2.754,21.181,1.694,6.99,6.778,13.556,13.556,16.1,4.448-.635,8.684-4.024,11.014-7.837a24.758,24.758,0,0,0,3.813-12.709,19.779,19.779,0,0,0-1.059-7.2c-1.7-4.024-5.719-6.99-9.955-8.473C287.868,180.055,282.149,180.267,277.7,180.479Z" transform="translate(75.95 2180.392)" fill="#ffd596"/>
    <path id="Path_94" data-name="Path 94" d="M287.143,181.4c.847,6.143,1.483,12.285.847,18.428s-2.754,12.285-6.99,16.733c4.236-.847,8.261-4.024,10.8-7.837a24.758,24.758,0,0,0,3.813-12.709,19.78,19.78,0,0,0-1.059-7.2,15.739,15.739,0,0,0-7.411-7.415Z" transform="translate(83.665 2181.589)" opacity="0.1"/>
    <path id="Path_95" data-name="Path 95" d="M304.293,255.063H287.348a4.474,4.474,0,0,1-4.448-4.448V217.148a4.474,4.474,0,0,1,4.448-4.448H304.5a4.474,4.474,0,0,1,4.448,4.448v33.467a4.664,4.664,0,0,1-4.655,4.448Z" transform="translate(85.789 2216.587)" fill="#ebebeb"/>
    <path id="Path_96" data-name="Path 96" d="M283.7,243.49c1.906-1.7,1.694-4.872,2.118-7.414a12.568,12.568,0,0,1,2.118-5.931c1.059-1.906,3.813-2.33,5.931-2.965,2.33-.424,4.872,0,6.354,1.694,1.694,1.906,1.694,4.66,1.271,7.2,0,.424-.212.635-.212,1.059-.212.424-.635.635-.847.847a64.545,64.545,0,0,0-8.473,6.566,31.98,31.98,0,0,0-3.813,5.507C285.394,248.362,283.7,246.244,283.7,243.49Z" transform="translate(86.684 2232.607)" fill="#edd478"/>
    <path id="Path_97" data-name="Path 97" d="M295.794,206.144c-10.167,2.542-18.64,9.955-24.57,18.64s-9.532,18.64-12.921,28.6-6.566,20.97-2.33,30.713c5.507,12.709,22.452,16.945,35.585,12.921,13.344-4.024,23.511-14.192,33.043-24.359a36.607,36.607,0,0,0-8.049-9.108,26.084,26.084,0,0,1-10.379,9.955c-5.3,2.754-11.65,3.389-16.945.635-5.3-2.542-8.9-8.9-7.413-14.615a20.916,20.916,0,0,1,2.542-5.931c2.542-4.66,5.3-9.32,7.837-13.98,5.084-9.108,10.379-19.063,8.049-29.23C299.607,208.685,297.912,205.508,295.794,206.144Z" transform="translate(53.408 2209.163)" fill="#2a2a2a"/>
    <path id="Path_98" data-name="Path 98" d="M272.872,196.281a25.99,25.99,0,0,0,23.511-6.566,17.623,17.623,0,0,0,10.167,9.32c.212-4.872.635-10.167-2.754-13.768-2.754-2.965-7.2-3.389-11.014-4.66-2.754-.847-5.507-2.118-8.473-2.542a9.676,9.676,0,0,0-8.261,2.33,12.784,12.784,0,0,0-2.33,5.507C273.084,189.715,272.449,192.892,272.872,196.281Z" transform="translate(74.424 2177.722)" fill="#0957ea"/>
    <path id="Path_99" data-name="Path 99" d="M296.991,221.6a5.3,5.3,0,1,1-5.3-5.3,5.244,5.244,0,0,1,5.3,5.3Z" transform="translate(89.703 2220.612)" fill="#c9c9c9"/>
  </g>
</svg>
