<svg xmlns="http://www.w3.org/2000/svg" width="617.289" height="483.411" viewBox="0 0 617.289 483.411">
  <g id="IllustrationSEO" transform="translate(-1024.703 -2908.006)">
    <g id="Group_5" data-name="Group 5" transform="translate(478.54 -204.594)">
      <path id="Path_100" data-name="Path 100" d="M234,258.609a7.9,7.9,0,1,1,7.9-7.9,8.049,8.049,0,0,1-7.9,7.9Zm0-12.769a4.864,4.864,0,1,0,4.864,4.864A5,5,0,0,0,234,245.84Z" transform="translate(341.137 3093.879)" fill="#46cccc" opacity="0.4"/>
      <path id="Path_101" data-name="Path 101" d="M227.332,241.964a2.432,2.432,0,1,1,2.432-2.432C230.068,241.052,228.852,241.964,227.332,241.964Z" transform="translate(338.689 3082.25)" fill="#48cc90" opacity="0.4"/>
      <path id="Path_102" data-name="Path 102" d="M779.646,502.5a17.289,17.289,0,0,1-16.113,18.241l-181.2,10.641-16.721.912-11.249.608-16.721.912-26.754,1.52L489,536.553l-9.425.608-21.89,1.216-173.9,10.033a17.289,17.289,0,0,1-18.24-16.11L247,214.9l513.8-30.1Z" transform="translate(383.778 2975.546)" fill="#fbac2e"/>
      <path id="Path_103" data-name="Path 103" d="M494.516,471.735H281.4a14.921,14.921,0,0,1-14.9-14.9V219.4a14.921,14.921,0,0,1,14.9-14.9H494.516a14.921,14.921,0,0,1,14.9,14.9V456.838a14.921,14.921,0,0,1-14.9,14.9Z" transform="translate(423.562 3015.739)" fill="#fe9dca" opacity="0.5"/>
      <path id="Path_104" data-name="Path 104" d="M762.543,217.15l-513.8,29.794L246.314,205.9A7.146,7.146,0,0,1,253,198.3l499.812-29.186a7.146,7.146,0,0,1,7.6,6.688Z" transform="translate(382.336 2943.501)" fill="#d3d3d3"/>
      <rect id="Rectangle_17" data-name="Rectangle 17" width="495.86" height="15.809" transform="matrix(0.998, -0.058, 0.058, 0.998, 638.942, 3164.133)" fill="#f2f2f2"/>
      <rect id="Rectangle_18" data-name="Rectangle 18" width="8.209" height="8.209" transform="translate(638.143 3150.558) rotate(-3.327)" fill="#f9f4ea"/>
      <rect id="Rectangle_19" data-name="Rectangle 19" width="8.209" height="8.209" transform="translate(653.041 3149.645) rotate(-3.338)" fill="#f9f4ea"/>
      <rect id="Rectangle_20" data-name="Rectangle 20" width="8.209" height="8.209" transform="translate(667.631 3148.74) rotate(-3.338)" fill="#f9f4ea"/>
      <path id="Path_105" data-name="Path 105" d="M269.121,269.343a6.966,6.966,0,0,1-6.992-6.384L260,226.476a6.9,6.9,0,0,1,1.824-4.864,7.506,7.506,0,0,1,4.864-2.432l214.943-12.465a7.023,7.023,0,0,1,7.3,6.384l2.128,36.483a6.9,6.9,0,0,1-1.824,4.864,7.506,7.506,0,0,1-4.864,2.432L269.425,269.343Zm212.815-59.284h0L266.992,222.523a3.753,3.753,0,0,0-2.432,1.216,3.452,3.452,0,0,0-.912,2.432l2.128,36.483A3.65,3.65,0,0,0,269.425,266l214.943-12.465a3.753,3.753,0,0,0,2.432-1.216,3.452,3.452,0,0,0,.912-2.432L485.584,213.4a3.65,3.65,0,0,0-3.648-3.342Z" transform="translate(410.301 3020.213)" fill="#bbceff"/>
      <path id="Path_106" data-name="Path 106" d="M270.335,289.643a6.966,6.966,0,0,1-6.992-6.384l-2.128-36.483a6.835,6.835,0,0,1,6.384-7.3l214.943-12.465a6.835,6.835,0,0,1,7.3,6.384l2.128,36.483a6.835,6.835,0,0,1-6.385,7.3L270.639,289.643ZM483.15,230.358h0L268.207,242.823a3.651,3.651,0,0,0-3.344,3.648l2.128,36.483a3.651,3.651,0,0,0,3.648,3.344l214.943-12.465a3.65,3.65,0,0,0,3.344-3.648L486.8,233.7a3.886,3.886,0,0,0-3.65-3.342Z" transform="translate(412.735 3061.629)" fill="#bbceff"/>
      <path id="Path_107" data-name="Path 107" d="M478.516,275.472l-215.247-3.648a5.2,5.2,0,0,1-5.168-5.472l.608-36.483a5.2,5.2,0,0,1,5.472-5.168l215.247,3.648a5.2,5.2,0,0,1,5.168,5.472l-.608,36.483a5.2,5.2,0,0,1-5.472,5.168Z" transform="translate(406.424 3056.951)" fill="#f6f3ff"/>
      <path id="Path_108" data-name="Path 108" d="M271.521,310.147a6.187,6.187,0,0,1-4.56-1.824,7.506,7.506,0,0,1-2.432-4.864L262.4,266.975a6.9,6.9,0,0,1,1.824-4.864,7.506,7.506,0,0,1,4.864-2.432l214.943-12.465a7.023,7.023,0,0,1,7.3,6.384l2.128,36.483a6.835,6.835,0,0,1-6.384,7.3L272.129,309.843C271.825,310.147,271.825,310.147,271.521,310.147Zm212.815-59.284h0L269.393,263.327a3.753,3.753,0,0,0-2.432,1.216,3.452,3.452,0,0,0-.912,2.432l2.128,36.483a3.651,3.651,0,0,0,3.648,3.344l214.943-12.465a3.65,3.65,0,0,0,3.344-3.648l-2.128-36.483a3.887,3.887,0,0,0-3.648-3.344Z" transform="translate(415.197 3102.842)" fill="#bbceff"/>
      <path id="Path_109" data-name="Path 109" d="M272.721,330.433a6.187,6.187,0,0,1-4.56-1.824,7.506,7.506,0,0,1-2.432-4.864L263.6,287.261a6.9,6.9,0,0,1,1.824-4.864,7.506,7.506,0,0,1,4.864-2.432L485.232,267.5a6.9,6.9,0,0,1,4.864,1.824,7.506,7.506,0,0,1,2.432,4.864l2.128,36.483a6.835,6.835,0,0,1-6.384,7.3L273.329,330.433Zm212.815-59.284h0L270.593,283.613a3.753,3.753,0,0,0-2.432,1.216,3.452,3.452,0,0,0-.912,2.432l2.128,36.483a3.65,3.65,0,0,0,3.648,3.344l214.943-12.465a3.65,3.65,0,0,0,3.344-3.648l-2.128-36.483a3.753,3.753,0,0,0-1.216-2.432,4.044,4.044,0,0,0-2.432-.912Z" transform="translate(417.646 3144.272)" fill="#bbceff"/>
      <rect id="Rectangle_21" data-name="Rectangle 21" width="5.472" height="90.598" transform="matrix(0.016, -1, 1, 0.016, 676.527, 3295.288)" fill="#7bcaff"/>
      <rect id="Rectangle_22" data-name="Rectangle 22" width="5.472" height="90.598" transform="matrix(0.016, -1, 1, 0.016, 676.333, 3304.899)" fill="#7bcaff"/>
      <rect id="Rectangle_23" data-name="Rectangle 23" width="5.472" height="40.131" transform="translate(676.237 3314.198) rotate(-89.067)" fill="#7bcaff"/>
      <rect id="Rectangle_24" data-name="Rectangle 24" width="24.626" height="24.626" transform="translate(821.325 3317.092) rotate(-89.067)" fill="#7bcaff" opacity="0.6"/>
      <rect id="Rectangle_25" data-name="Rectangle 25" width="24.626" height="24.626" transform="translate(850.007 3317.518) rotate(-89.067)" fill="#7bcaff" opacity="0.6"/>
      <rect id="Rectangle_26" data-name="Rectangle 26" width="137.722" height="3.344" transform="translate(1140.445 3439.255) rotate(-89.523)" fill="#4c8"/>
      <rect id="Rectangle_27" data-name="Rectangle 27" width="46.211" height="3.344" transform="translate(990.281 3438.007) rotate(-89.523)" fill="#edf4fc"/>
      <rect id="Rectangle_28" data-name="Rectangle 28" width="96.983" height="3.344" transform="translate(1065.442 3438.715) rotate(-89.522)" fill="#edf4fc"/>
      <rect id="Rectangle_29" data-name="Rectangle 29" width="91.511" height="7.297" transform="translate(703.599 3376.726) rotate(-3.333)" fill="#7bcaff" opacity="0.5"/>
      <rect id="Rectangle_30" data-name="Rectangle 30" width="61.716" height="7.297" transform="matrix(0.998, -0.058, 0.058, 0.998, 704.191, 3389.55)" fill="#7bcaff" opacity="0.5"/>
      <rect id="Rectangle_31" data-name="Rectangle 31" width="15.505" height="7.297" transform="matrix(0.998, -0.058, 0.058, 0.998, 772.849, 3385.463)" fill="#7bcaff" opacity="0.5"/>
      <rect id="Rectangle_32" data-name="Rectangle 32" width="91.511" height="7.297" transform="matrix(0.998, -0.058, 0.058, 0.998, 696.301, 3254.833)" fill="#7bcaff" opacity="0.5"/>
      <rect id="Rectangle_33" data-name="Rectangle 33" width="54.42" height="7.297" transform="matrix(0.998, -0.058, 0.058, 0.998, 697.196, 3267.727)" fill="#7bcaff" opacity="0.5"/>
      <rect id="Rectangle_34" data-name="Rectangle 34" width="57.764" height="7.297" transform="translate(758.609 3264.185) rotate(-3.333)" fill="#7bcaff" opacity="0.5"/>
      <rect id="Rectangle_35" data-name="Rectangle 35" width="36.483" height="7.297" transform="translate(707.208 3438.667) rotate(-3.331)" fill="#7bcaff" opacity="0.5"/>
      <rect id="Rectangle_36" data-name="Rectangle 36" width="36.483" height="7.297" transform="translate(750.366 3435.94) rotate(-3.331)" fill="#7bcaff" opacity="0.5"/>
      <rect id="Rectangle_37" data-name="Rectangle 37" width="61.716" height="7.297" transform="matrix(0.998, -0.058, 0.058, 0.998, 707.839, 3451.263)" fill="#7bcaff" opacity="0.5"/>
      <rect id="Rectangle_38" data-name="Rectangle 38" width="60.804" height="7.297" transform="translate(776.543 3447.283) rotate(-3.333)" fill="#7bcaff" opacity="0.5"/>
      <path id="Path_110" data-name="Path 110" d="M373.245,234.044A75.394,75.394,0,0,0,255.589,323.73a77.8,77.8,0,0,0,12.161,17.937l-6.992,7.9-1.52-1.52-2.128,2.128,1.52,28.274,14.593-17.937L271.7,359l6.992-7.9a75.5,75.5,0,0,0,48.643,14.289,76.467,76.467,0,0,0,51.988-25.234,74.764,74.764,0,0,0,18.849-54.42C397.263,265.662,388.142,247.421,373.245,234.044Zm-8.817,93.031a55.343,55.343,0,1,1-44.691-92.119c14.9-.912,28.882,4.256,40.131,13.985a55.127,55.127,0,0,1,4.56,78.134Z" transform="translate(385.526 3037.271)" fill="#375e82" opacity="0.4"/>
      <rect id="Rectangle_39" data-name="Rectangle 39" width="26.754" height="14.593" transform="translate(602.891 3356.772) rotate(-48.332)" fill="#38464c"/>
      <path id="Path_111" data-name="Path 111" d="M223.516,323.914h0a12.809,12.809,0,0,0,18.545-1.52l50.772-62.325L278.544,247.3,222.6,305.064a13.406,13.406,0,0,0,.916,18.85Z" transform="translate(327 3103.06)" fill="#676772"/>
      <path id="Path_112" data-name="Path 112" d="M238.373,276.3a65.3,65.3,0,0,0,69.013,61.412,66.557,66.557,0,0,0,40.131-16.721,60.887,60.887,0,0,0,10.033-11.553,53.165,53.165,0,0,0,4.864-8.209,64.008,64.008,0,0,0,6.688-27.666V268.39a65.3,65.3,0,0,0-69.013-61.412,29.956,29.956,0,0,0-5.168.608,64.418,64.418,0,0,0-26.45,9.729,69.929,69.929,0,0,0-17.937,17.025A66.879,66.879,0,0,0,238.373,276.3Z" transform="translate(365.955 3020.557)" fill="#bde5f2" opacity="0.6"/>
      <path id="Path_113" data-name="Path 113" d="M248.1,216.829l94.247,83.91a64.008,64.008,0,0,0,6.688-27.666L274.55,207.1a67.784,67.784,0,0,0-26.45,9.729Z" transform="translate(386.022 3021.043)" fill="#e3fbff" opacity="0.3"/>
      <path id="Path_114" data-name="Path 114" d="M242.3,223.653,339.283,310a60.893,60.893,0,0,0,10.033-11.553L252.333,212.1A118.652,118.652,0,0,0,242.3,223.653Z" transform="translate(374.189 3031.244)" fill="#e3fbff" opacity="0.3"/>
      <path id="Path_115" data-name="Path 115" d="M310.353,354.489A75.463,75.463,0,0,1,306.1,203.7a74.32,74.32,0,0,1,54.42,18.849,75.953,75.953,0,0,1,25.234,51.988,74.32,74.32,0,0,1-18.849,54.42,75.514,75.514,0,0,1-56.552,25.537Zm0-130.729h-3.344a53.744,53.744,0,0,0-38,18.545,55.176,55.176,0,0,0-13.985,40.131,53.745,53.745,0,0,0,18.545,38,55.433,55.433,0,0,0,92.119-44.691,53.744,53.744,0,0,0-18.545-38A54.406,54.406,0,0,0,310.353,223.76Z" transform="translate(359.339 3013.808)" fill="#375e82"/>
      <g id="Group_2" data-name="Group 2" transform="translate(72 43)">
        <path id="Path_116" data-name="Path 116" d="M371.8,179.925a13.478,13.478,0,0,1,13.985,3.648,11.308,11.308,0,0,1,3.04,6.688l-6.384.912a6.466,6.466,0,0,0-6.08-5.472,5.926,5.926,0,0,0-2.432.3Z" transform="translate(638.397 2964.308)" fill="#edf4fc"/>
        <path id="Path_117" data-name="Path 117" d="M373.247,180.6l.3-.3,4.256,4.864a8.364,8.364,0,0,0-2.432,4.56,6.5,6.5,0,0,0,6.08,6.993,7.009,7.009,0,0,0,6.08-3.344l5.776,3.344a9.5,9.5,0,0,1-2.736,3.344,13.319,13.319,0,0,1-18.545-.912C367.471,193.677,367.775,185.164,373.247,180.6Z" transform="translate(632.39 2966.366)" fill="#ffc550"/>
        <path id="Path_118" data-name="Path 118" d="M375.912,185.332v-1.52l6.385-.912a12,12,0,0,1-1.52,8.513L375,188.068a4.243,4.243,0,0,0,.912-2.736Z" transform="translate(644.926 2971.67)" fill="#ffc550"/>
        <path id="Path_119" data-name="Path 119" d="M370.4,181.932a11.929,11.929,0,0,1,4.256-2.432l2.128,6.08a4.9,4.9,0,0,0-2.128,1.216Z" transform="translate(635.541 2964.733)" fill="#4c8"/>
      </g>
      <g id="Group_3" data-name="Group 3" transform="translate(83 34)">
        <path id="Path_120" data-name="Path 120" d="M388.557,213.132a12.91,12.91,0,0,1-12.465,7.3A11.477,11.477,0,0,1,369.1,218l3.952-5.168a6.852,6.852,0,0,0,8.209-.3,8.06,8.06,0,0,0,1.52-1.824Z" transform="translate(632.889 3028.388)" fill="#4c8"/>
        <path id="Path_121" data-name="Path 121" d="M393.222,219.193v.3l-6.385-.608a5.608,5.608,0,0,0-1.52-4.864c-2.432-2.736-6.688-3.04-9.121-.608-1.824,1.824-2.736,4.256-1.824,6.688l-6.385,1.824a9.762,9.762,0,0,1-.3-4.256A13.177,13.177,0,0,1,381.368,205.2,13.407,13.407,0,0,1,393.222,219.193Z" transform="translate(629.744 3017.159)" fill="#d1d9fe"/>
        <path id="Path_122" data-name="Path 122" d="M375.4,212.836l.912.912-3.952,5.168a12.355,12.355,0,0,1-4.864-6.993l6.384-1.824A4.093,4.093,0,0,0,375.4,212.836Z" transform="translate(629.624 3027.164)" fill="#edf4fc"/>
        <path id="Path_123" data-name="Path 123" d="M380.692,210.612a11.271,11.271,0,0,1-1.216,4.56l-5.776-3.04a5.726,5.726,0,0,0,.608-2.432Z" transform="translate(642.274 3026.348)" fill="#ffc550"/>
      </g>
      <g id="Group_4" data-name="Group 4" transform="translate(78 38)">
        <path id="Path_124" data-name="Path 124" d="M375.411,213.457a12.91,12.91,0,0,1-7.3-12.465A11.477,11.477,0,0,1,370.546,194l5.168,3.952a6.852,6.852,0,0,0,.3,8.209,8.059,8.059,0,0,0,1.824,1.52Z" transform="translate(645.954 2968.796) rotate(4.012)" fill="#d1d9fe"/>
        <path id="Path_125" data-name="Path 125" d="M374.036,218.122h-.3l.608-6.384a5.608,5.608,0,0,0,4.864-1.52c2.736-2.432,3.04-6.688.608-9.121-1.824-1.824-4.256-2.736-6.688-1.824l-1.824-6.384a9.76,9.76,0,0,1,4.256-.3,13.177,13.177,0,0,1,12.465,13.681,13.407,13.407,0,0,1-13.989,11.852Z" transform="translate(637.377 2991.172)" fill="#4c8"/>
        <path id="Path_126" data-name="Path 126" d="M375.08,200.3l-.912.912L369,197.264a12.355,12.355,0,0,1,6.992-4.864l1.824,6.384a4.093,4.093,0,0,0-2.736,1.516Z" transform="translate(632.685 2991.052)" fill="#ffc550"/>
        <path id="Path_127" data-name="Path 127" d="M375.06,205.592a11.27,11.27,0,0,1-4.56-1.216l3.04-5.776a5.726,5.726,0,0,0,2.432.608Z" transform="matrix(0.999, -0.035, 0.035, 0.999, 628.919, 3016.851)" fill="#edf4fc"/>
      </g>
      <path id="Path_128" data-name="Path 128" d="M476.567,314.455,457.11,362.49a4.817,4.817,0,0,1-6.688,2.736l-65.669-26.45a4.817,4.817,0,0,1-2.736-6.689l19.457-48.035a4.817,4.817,0,0,1,6.688-2.736l65.669,26.45C476.263,308.678,477.479,311.719,476.567,314.455Z" transform="translate(658.279 3171.499)" fill="#abb2b7" opacity="0.5"/>
      <path id="Path_129" data-name="Path 129" d="M476.532,309.991,459.81,358.939a4.852,4.852,0,0,1-6.384,3.04l-66.885-23.106a4.852,4.852,0,0,1-3.04-6.384l16.721-48.948a4.852,4.852,0,0,1,6.384-3.04l66.885,23.106a4.961,4.961,0,0,1,3.041,6.384Z" transform="translate(661.659 3170.186)" fill="#cad3db" opacity="0.5"/>
      <path id="Path_130" data-name="Path 130" d="M477.3,304.115l-13.681,49.859a5.116,5.116,0,0,1-6.08,3.648l-68.4-18.545a5.117,5.117,0,0,1-3.65-6.077l13.681-49.86a5.116,5.116,0,0,1,6.08-3.648l68.4,18.545a5.116,5.116,0,0,1,3.65,6.078Z" transform="translate(666.055 3168.462)" fill="#edf4fc"/>
      <path id="Path_131" data-name="Path 131" d="M470.074,304.319l-3.04,10.945L388.9,293.982l3.04-10.945a5.116,5.116,0,0,1,6.08-3.648l68.4,18.545a5.609,5.609,0,0,1,3.654,6.385Z" transform="translate(673.285 3168.258)" fill="#4c8"/>
      <rect id="Rectangle_40" data-name="Rectangle 40" width="3.648" height="80.87" transform="translate(1061.095 3465.909) rotate(-74.728)" fill="#fff"/>
      <path id="Path_132" data-name="Path 132" d="M405.71,288.054a5.973,5.973,0,1,1-4.256-7.3C404.494,281.669,406.622,285.013,405.71,288.054Z" transform="translate(683.533 3170.843)" fill="#32a066"/>
      <path id="Path_133" data-name="Path 133" d="M419.31,291.854a5.973,5.973,0,1,1-4.256-7.3,5.973,5.973,0,0,1,4.256,7.3Z" transform="translate(711.28 3178.595)" fill="#32a066"/>
      <path id="Path_134" data-name="Path 134" d="M398.747,295.212h-1.216a4.265,4.265,0,0,1-3.04-5.168l2.432-8.513a4.417,4.417,0,0,1,5.168-3.04,4.264,4.264,0,0,1,3.04,5.168l-2.432,8.513a3.937,3.937,0,0,1-3.952,3.04Z" transform="translate(684.415 3166.42)" fill="#ffc550"/>
      <path id="Path_135" data-name="Path 135" d="M412.447,299.116h-1.216a4.265,4.265,0,0,1-3.04-5.168l2.432-8.817a4.24,4.24,0,1,1,8.209,2.128l-2.432,8.817A4.2,4.2,0,0,1,412.447,299.116Z" transform="translate(712.366 3173.765)" fill="#ffc550"/>
      <rect id="Rectangle_41" data-name="Rectangle 41" width="6.688" height="7.905" transform="translate(1066.847 3481.018) rotate(-74.728)" fill="#72edad"/>
      <rect id="Rectangle_42" data-name="Rectangle 42" width="6.688" height="7.905" transform="translate(1119.266 3495.495) rotate(-74.7)" fill="#72edad"/>
      <rect id="Rectangle_43" data-name="Rectangle 43" width="6.688" height="7.905" transform="translate(1106.068 3491.88) rotate(-74.728)" fill="#72edad"/>
      <rect id="Rectangle_44" data-name="Rectangle 44" width="6.688" height="7.905" transform="translate(1093.19 3488.313) rotate(-74.728)" fill="#72edad"/>
      <rect id="Rectangle_45" data-name="Rectangle 45" width="6.688" height="7.905" transform="translate(1080.019 3484.665) rotate(-74.728)" fill="#72edad"/>
      <rect id="Rectangle_46" data-name="Rectangle 46" width="6.688" height="7.905" transform="translate(1064.084 3491.716) rotate(-74.728)" fill="#72edad"/>
      <rect id="Rectangle_47" data-name="Rectangle 47" width="6.688" height="7.905" transform="translate(1116.557 3505.933) rotate(-74.728)" fill="#72edad"/>
      <rect id="Rectangle_48" data-name="Rectangle 48" width="6.688" height="7.905" transform="translate(1103.386 3502.284) rotate(-74.728)" fill="#72edad"/>
      <rect id="Rectangle_49" data-name="Rectangle 49" width="6.688" height="7.905" transform="translate(1090.24 3498.606) rotate(-74.7)" fill="#72edad"/>
      <rect id="Rectangle_50" data-name="Rectangle 50" width="6.688" height="7.905" transform="translate(1076.963 3495.284) rotate(-74.728)" fill="#72edad"/>
      <rect id="Rectangle_51" data-name="Rectangle 51" width="6.688" height="7.905" transform="translate(1061.136 3502.008) rotate(-74.7)" fill="#72edad"/>
      <rect id="Rectangle_52" data-name="Rectangle 52" width="6.688" height="7.905" transform="translate(1113.502 3516.549) rotate(-74.728)" fill="#72edad"/>
      <rect id="Rectangle_53" data-name="Rectangle 53" width="6.688" height="7.905" transform="translate(1100.367 3512.882) rotate(-74.7)" fill="#72edad"/>
      <rect id="Rectangle_54" data-name="Rectangle 54" width="6.688" height="7.905" transform="translate(1087.453 3509.335) rotate(-74.728)" fill="#72edad"/>
      <rect id="Rectangle_55" data-name="Rectangle 55" width="6.688" height="7.905" transform="translate(1074.281 3505.687) rotate(-74.728)" fill="#72edad"/>
      <path id="Path_136" data-name="Path 136" d="M235.779,294.475l6.08,31.922a5.1,5.1,0,0,0,5.776,3.952l66.581-13.073a5.1,5.1,0,0,0,3.952-5.776l-6.081-31.922a5.1,5.1,0,0,0-5.776-3.952L239.731,289a4.579,4.579,0,0,0-3.952,5.475Z" transform="translate(360.645 3160.773)" fill="#ffc550"/>
      <path id="Path_137" data-name="Path 137" d="M235.779,294.475l.3,1.824,36.483,13.985a10.855,10.855,0,0,0,11.249-2.128L312.392,281.4l-.3-1.824a5.1,5.1,0,0,0-5.776-3.952L239.731,289a4.579,4.579,0,0,0-3.952,5.475Z" transform="translate(360.645 3160.773)" fill="#ffe1ab"/>
      <path id="Path_138" data-name="Path 138" d="M234.939,303.828a12.223,12.223,0,1,0,9.729-14.289,12.479,12.479,0,0,0-9.729,14.289Z" transform="translate(358.748 3188.814)" fill="#4c8"/>
      <path id="Path_139" data-name="Path 139" d="M420.716,311.041c0-2.432-.912-5.776-3.04-9.729-5.472-11.857-17.633-29.186-25.538-40.131l-.912-.912a5.157,5.157,0,0,0-4.864-2.736H372.376a42.625,42.625,0,0,0,.3-10.641,26.009,26.009,0,0,0,10.337-10.337,3.437,3.437,0,0,0,3.344-.608,8.711,8.711,0,0,0,3.04-6.688,9.187,9.187,0,0,0-1.52-4.864,12.2,12.2,0,0,0,.912-4.56c.3-5.472,0-11.553-6.992-14.289,2.736-4.256-7.9-13.377-16.721-10.337-20.37,6.993-20.673-.608-20.673-.608-8.817,2.736-9.729,10.641-5.776,14.289-2.432,3.04-2.432,6.992-2.128,10.641,0,.912.3,1.52.3,2.736,0,.912-.3,1.824-.3,2.736a24.23,24.23,0,0,0,20.673,24.018c0,3.04,0,6.08-.608,8.209H340.758a5.319,5.319,0,0,0-4.256,2.128,6.634,6.634,0,0,0-1.52,1.216c-8.513,10.337-28.578,34.962-30.1,43.779-1.216,6.688,6.688,23.714,14.289,38.611-.912.608-1.52,1.216-2.128,1.216a6.442,6.442,0,0,0-3.952,8.209,6.2,6.2,0,0,0,6.08,4.256,5.174,5.174,0,0,0,2.128-.3,21.869,21.869,0,0,0,6.384-3.648c-.3,5.776-.3,9.121-.3,9.121a288.057,288.057,0,0,0,.608,34.963c.3,6.992,2.432,59.892,5.472,80.262,1.52,9.121,3.952,25.234,6.08,40.435l21.89-1.216c-2.432-15.809-5.168-33.138-6.384-42.563-2.736-17.937-4.864-65.669-5.472-76.309H359.3c.3,8.817,2.736,59.892,5.472,79.654,1.216,8.513,3.648,23.714,6.081,38.611l21.89-1.216c-2.432-15.505-4.864-31.618-6.384-40.739-3.04-20.065-5.472-77.83-5.472-78.438v-1.216c1.824-5.168,3.952-16.113,1.216-32.53a68.769,68.769,0,0,1-.3-8.209,23.761,23.761,0,0,0,6.08,3.344,5.173,5.173,0,0,0,2.128.3,6.612,6.612,0,0,0,6.081-4.256,6.442,6.442,0,0,0-3.952-8.209h-.3c3.648-3.344,6.688-6.384,9.729-9.121C420.412,318.033,420.716,312.865,420.716,311.041Zm-91.511,22.194c-5.472-11.249-10.641-22.8-10.945-26.146.912-3.04,6.992-11.857,14.289-21.586-1.216,14.6-2.432,32.834-3.344,47.731Zm53.812,3.344c1.216-18.241,3.952-40.131,6.384-56.548,9.121,13.073,17.025,26.146,17.937,30.4-1.823,3.954-13.072,15.507-24.321,26.148Z" transform="translate(501.619 2995.54)" fill="rgba(55,94,130,0.37)"/>
      <path id="Path_140" data-name="Path 140" d="M421.169,360.352a39.191,39.191,0,0,1-3.648-1.824c4.864-7.3,13.377-23.714,10.945-42.563-1.52-13.377-22.5-36.787-24.93-39.523a4.428,4.428,0,0,0-3.648-1.52,3.856,3.856,0,0,0-1.824-.3h-17.33a47.075,47.075,0,0,1,.3-6.688A24.8,24.8,0,0,0,405.056,243.3s6.992-19.457-18.241-28.274l-2.736-.912a11.819,11.819,0,0,0-4.256-5.776c-9.729-8.817-27.97-3.648-31.922,9.425-3.648,12.161.912,16.721,5.472,24.93a7.672,7.672,0,0,0-1.824,5.168,8.743,8.743,0,0,0,2.736,6.08.942.942,0,0,0,.608.3c-1.216,6.993-5.472,13.681-5.472,13.681a42.11,42.11,0,0,0,15.505-4.864,28.6,28.6,0,0,0,6.689,3.648,63.753,63.753,0,0,0-.3,8.209H360.973a5.035,5.035,0,0,0-3.648,1.52l-.3.3-.3.3a.3.3,0,0,1-.3.3c-.3.608-1.824,2.736-3.648,5.472-5.168,8.209-14.593,23.41-15.809,33.138a5.936,5.936,0,0,1-.3,2.128c-1.216,18.545,12.465,34.355,20.065,41.651a17.927,17.927,0,0,1-2.432,1.216,4.715,4.715,0,0,0,1.824,9.121,3.855,3.855,0,0,0,1.824-.3,5.133,5.133,0,0,0,1.52-.608c-5.472,26.146,3.344,66.885,3.344,66.885h.912c-.608,9.121-1.216,17.329-1.824,22.8-1.216,8.209-4.256,22.5-7.3,36.483l16.721-.912c2.736-13.073,5.168-25.538,6.384-33.138.912-6.081,1.52-15.2,2.128-25.234h10.337c-.608,9.121-1.52,17.329-2.432,22.8-1.216,7.9-3.344,21.282-5.472,34.962l16.721-.912c1.824-12.465,3.648-24.322,4.864-31.618.912-6.081,1.824-15.2,2.432-25.234h1.52c1.52-6.992,3.04-48.035,3.648-69.013a36.442,36.442,0,0,0,5.776,2.736,3.855,3.855,0,0,0,1.824.3,5.322,5.322,0,0,0,4.56-3.04C424.817,364,423.6,361.264,421.169,360.352Zm-55.94-6.688c-6.08-5.472-20.673-20.673-18.545-37.091.912-6.08,6.08-15.809,10.945-24.018,3.952,19.761,9.12,42.563,7.6,61.108Zm41.347-58.676c6.08,8.209,11.857,17.025,12.465,21.89,1.52,13.073-3.04,24.93-7.3,32.226-.6-10.338-2.429-35.268-5.165-54.117Z" transform="translate(566.53 3014.635)" fill="rgba(55,94,130,0.37)"/>
      <path id="Path_141" data-name="Path 141" d="M303.264,334.629H506.351a4.8,4.8,0,0,0,4.864-4.864h0a4.8,4.8,0,0,0-4.864-4.864H303.264a4.8,4.8,0,0,0-4.864,4.864h0a5.224,5.224,0,0,0,4.864,4.864Z" transform="translate(488.645 3261.381)" fill="#e2e2e2"/>
      <path id="Path_142" data-name="Path 142" d="M337.261,336.182l-2.736-20.065L325.1,314.9l4.56,20.977Z" transform="translate(543.119 3240.979)" fill="#ffaf84"/>
      <path id="Path_143" data-name="Path 143" d="M337.584,321.768a2.322,2.322,0,0,0-1.52.608c-3.344,2.736-6.992,6.08-12.769,7.6-5.168,1.52-3.04,3.952,2.128,3.952,7.6,0,10.641-.3,13.985-.3s1.216.3,9.425.3c3.952,0,2.432-7.6.608-11.857a2.509,2.509,0,0,0-3.04-1.52Z" transform="translate(533.372 3252.352)" fill="#4c8"/>
      <path id="Path_144" data-name="Path 144" d="M323.961,336.182l-2.736-20.065L311.8,314.9l4.56,20.977Z" transform="translate(515.984 3240.979)" fill="#ffaf84"/>
      <path id="Path_145" data-name="Path 145" d="M328.65,321.768a2.322,2.322,0,0,0-1.52.608c-3.344,2.736-13.073,7.6-18.241,8.209-5.472.912-5.776,3.344,1.824,3.344s13.073-.608,16.721-.608c3.344,0,2.432.608,10.945.608,6.384,0,4.256-8.209,2.128-11.857a2.509,2.509,0,0,0-3.04-1.52Z" transform="translate(501.87 3252.352)" fill="#4c8"/>
      <path id="Path_146" data-name="Path 146" d="M320.363,190.535c5.472-.912,16.113,10.337,3.04,27.058-9.425,11.857-14.289-3.344-14.9-10.033C307.9,200.567,308.506,192.663,320.363,190.535Z" transform="translate(508.942 2987.141)" fill="#e65234"/>
      <path id="Path_147" data-name="Path 147" d="M341.076,212.273c-3.04-2.736-7.6-2.128-10.337.912-9.729,11.553-32.226,39.523-34.051,49.556-1.52,8.209,10.337,30.4,20.673,47.731L326.483,305c-11.857-17.025-12.465-32.53-15.2-39.827,1.824-5.472,17.937-23.106,31.618-39.523C345.636,222.3,344.42,214.7,341.076,212.273Z" transform="translate(484.884 3028.032)" fill="#0957ea"/>
      <path id="Path_148" data-name="Path 148" d="M306.706,262.381a10.129,10.129,0,0,1-6.384-5.776c-3.344-8.513,1.824-6.08,5.776-7.3,1.824-.608,4.56-5.168,5.776-6.384,2.736-3.04,6.688-3.648,9.729-1.216,3.04,2.736,2.432,6.688.912,10.337-.912,2.128-2.432,6.688-8.209,9.729C311.266,262.989,309.746,263.293,306.706,262.381Z" transform="translate(490.372 3088.588)" fill="#ffaf84"/>
      <path id="Path_149" data-name="Path 149" d="M339.316,219.285c0,6.384-.912,13.985-4.256,19.457-4.56,6.992-5.472,8.513-5.472,8.817a8.668,8.668,0,0,1-7.6,4.256,8.58,8.58,0,0,1-4.56-1.216,8.768,8.768,0,0,1-3.04-11.857s.608-1.216,5.776-9.121c.912-1.216,1.216-3.952,1.52-6.688a70.333,70.333,0,0,0-.3-11.553,8.6,8.6,0,1,1,17.026-2.432A53.784,53.784,0,0,1,339.316,219.285Z" transform="translate(518.87 3009.771)" fill="#ffaf84"/>
      <path id="Path_150" data-name="Path 150" d="M377.561,217.4c-4.256,24.626-12.769,86.342-10.945,111.272H304.9s3.648-91.511,9.729-114.008a5.859,5.859,0,0,1,5.776-4.56h51.076a6.244,6.244,0,0,1,6.08,7.3Z" transform="translate(501.906 3027.164)" fill="#0957ea"/>
      <path id="Path_151" data-name="Path 151" d="M364.062,289.231s7.6-13.681,2.736-40.131H305.082a379.7,379.7,0,0,0,.608,40.131Z" transform="translate(501.724 3106.733)" fill="#0b0b0b"/>
      <path id="Path_152" data-name="Path 152" d="M350.471,360.357c-3.344-22.5-2.432-89.99-3.952-97.591-1.216-6.689-11.553-6.384-18.545-6.08-6.688.3-13.073,9.425-13.073,16.113,0,2.736,8.209,67.189,11.857,91.207,2.736,17.329,13.985,62.629,18.241,82.694l15.505-1.824C357.767,424.809,352.9,377.686,350.471,360.357Z" transform="translate(522.309 3121.949)" fill="#0b0b0b"/>
      <path id="Path_153" data-name="Path 153" d="M335.814,358.037c-1.824-23.106-2.736-88.774-2.736-89.382-.3-6.688-9.425-11.249-16.113-10.945a12.464,12.464,0,0,0-11.857,12.769c0,2.736,2.736,67.189,6.384,91.207,2.736,17.329,8.817,64.149,13.985,84.518l13.985-1.824C336.118,424.01,337.03,375.366,335.814,358.037Z" transform="translate(502.307 3124.269)" fill="#0b0b0b"/>
      <path id="Path_154" data-name="Path 154" d="M339.713,213.513a7.319,7.319,0,0,0-10.337-1.52c-3.344,2.432-4.256,8.817-1.824,12.161,13.073,17.937,26.754,39.219,28.274,45.3-13.073,10.641-6.992,17.633-32.226,34.659l6.384,8.209c35.875-30.1,41.347-40.131,41.347-42.867C371.94,259.42,351.57,230.234,339.713,213.513Z" transform="translate(540.059 3028.008)" fill="#0957ea"/>
      <path id="Path_155" data-name="Path 155" d="M333.889,219.285a26.838,26.838,0,0,1-13.985,3.952,14.8,14.8,0,0,1-3.648-.3,70.327,70.327,0,0,0-.3-11.553,8.6,8.6,0,1,1,17.026-2.432,53.774,53.774,0,0,1,.907,10.333Z" transform="translate(524.297 3009.771)" fill="#ed8c62"/>
      <path id="Path_156" data-name="Path 156" d="M308.8,217.07c0,15.2,11.249,28.274,26.45,28.274,13.073,0,27.666-13.377,27.666-28.578A27.767,27.767,0,0,0,335.25,189.1C320.049,189.1,308.8,201.869,308.8,217.07Z" transform="translate(509.863 2984.32)" fill="#ffaf84"/>
      <path id="Path_157" data-name="Path 157" d="M338.088,261.63a9.719,9.719,0,0,1-5.776-2.128c-3.344-2.128-5.776-3.952-7.9-7.3a7.18,7.18,0,0,1,1.216-10.033c3.04-2.736,7.6-2.128,10.337.912,1.216,1.52,3.344,4.864,5.472,5.472,5.776,1.52,8.209,3.344,6.08,6.688C345.081,257.982,340.824,261.63,338.088,261.63Z" transform="translate(538.644 3089.034)" fill="#ffaf84"/>
      <path id="Path_158" data-name="Path 158" d="M330.178,190.53c-5.472-.912-17.329,12.161-1.216,26.146,8.817,7.6,12.465-2.432,13.073-9.121C342.339,200.563,341.731,192.658,330.178,190.53Z" transform="translate(534.393 2987.146)" fill="#ff6748"/>
      <path id="Path_159" data-name="Path 159" d="M340.475,187.571c10.641-3.648,23.714,7.9,18.241,12.465-2.432,1.824-2.432,1.52-8.513,3.344s-31.618,3.952-37.7.912-6.384-13.985,4.864-17.329C317.37,186.659,317.674,195.475,340.475,187.571Z" transform="translate(508.894 2979.768)" fill="#ff6748"/>
      <path id="Path_160" data-name="Path 160" d="M334.633,205.314a10.147,10.147,0,0,1-3.648,7.6,3.906,3.906,0,0,1-6.384-3.04v-9.121a3.906,3.906,0,0,1,6.384-3.04,9.224,9.224,0,0,1,3.648,7.6Z" transform="translate(542.099 3000.028)" fill="#ffaf84"/>
      <path id="Path_161" data-name="Path 161" d="M313.886,210.1c-1.52,4.864,3.344,7.9,11.553,6.688A42.118,42.118,0,0,0,342.16,210.1Z" transform="translate(519.675 3027.164)" fill="#ffaf84"/>
      <path id="Path_162" data-name="Path 162" d="M338.752,460.483c0-.6-10.454-68.009-11.906-89.784-1.742-22.67-4.646-80.537-4.646-89.486V248.7h1.452v32.513c0,8.949,2.9,66.518,4.646,89.486,1.452,21.775,11.906,88.889,11.906,89.486Z" transform="translate(537.202 3107.133)" fill="#2a2a2a"/>
      <rect id="Rectangle_56" data-name="Rectangle 56" width="1.52" height="40.651" transform="translate(835.689 3355.616)" fill="#2a2a2a"/>
      <path id="Path_163" data-name="Path 163" d="M319.7,280.622a7.392,7.392,0,0,1-7.6-7.322V248.7h1.52v24.6a5.99,5.99,0,0,0,6.08,5.857Z" transform="translate(516.596 3107.133)" fill="#2a2a2a"/>
      <path id="Path_164" data-name="Path 164" d="M381.137,202.127c-10.945-9.729-31.618-3.952-35.874,10.641s1.824,19.457,6.992,29.794c5.168,10.641-5.168,26.45-5.168,26.45s32.226-2.128,31.922-30.4C379.009,220.977,394.514,213.984,381.137,202.127Z" transform="translate(581.329 3001.086)" fill="#370bd8"/>
      <path id="Path_165" data-name="Path 165" d="M369.577,261.9a4.9,4.9,0,0,1-2.736.912,5.016,5.016,0,0,1-4.56-2.736s-.912-1.52-5.472-8.817c-3.648-6.08-3.952-15.505-3.648-21.89.3-3.344.608-6.08.608-6.688a5.61,5.61,0,0,1,6.08-4.56c3.04.3,4.864,3.04,4.56,6.08a51.264,51.264,0,0,0-.608,7.6c0,5.168.3,10.641,2.128,13.681,4.864,7.9,5.776,9.121,5.776,9.121a5.828,5.828,0,0,1-2.128,7.3Z" transform="translate(600.185 3043.464)" fill="#ffaf84"/>
      <path id="Path_166" data-name="Path 166" d="M379.938,268.629c0,2.128-.912,41.043-2.736,70.229v.912c-.608,8.209-1.52,16.113-2.432,21.282-3.648,24.018-20.977,88.774-21.586,91.511l-6.385-.608c.3-.608.608-65.669,8.209-93.943,1.216-4.56,1.216-10.641,1.824-17.937v-.912c1.824-28.578,1.824-70.533,2.128-71.141a8.958,8.958,0,0,1,9.121-9.121h0C372.946,259.2,379.938,263.764,379.938,268.629Z" transform="translate(587.392 3126.727)" fill="#ffaf84"/>
      <path id="Path_167" data-name="Path 167" d="M389.538,268.737c0,2.128-1.824,41.347-3.952,70.229v.3c-.608,8.513-1.52,16.113-2.432,21.586-2.736,18.545-17.025,71.749-20.065,90.9l-6.689-1.52c0-54.724,5.168-77.221,8.209-90.295,1.216-4.56.608-13.377.3-20.673v-.608c-.912-30.4.608-54.42.3-69.317.3-5.168,10.337-10.641,15.2-10.337a9.683,9.683,0,0,1,9.129,9.735Z" transform="translate(606.978 3126.923)" fill="#ffaf84"/>
      <path id="Path_168" data-name="Path 168" d="M364.249,224.2a51.24,51.24,0,0,0-.608,7.6A23.85,23.85,0,0,1,353,229.371c.3-3.344.608-6.08.608-6.688a5.61,5.61,0,0,1,6.08-4.56A5.432,5.432,0,0,1,364.249,224.2Z" transform="translate(600.041 3043.464)" fill="#ed8c62"/>
      <path id="Path_169" data-name="Path 169" d="M400.4,230.67c-2.432,15.505-10.337,30.1-25.842,30.1S347.8,247.087,347.8,231.582,358.441,202.7,373.946,202.7C388.843,202.7,402.828,215.469,400.4,230.67Z" transform="translate(589.432 3012.067)" fill="#ffaf84"/>
      <path id="Path_170" data-name="Path 170" d="M391.345,320.233c-2.736-.912-4.864.912-7.9-3.344,10.033-16.721,18.241-25.538,15.809-47.123-1.824-15.2-25.234-41.347-27.97-44.387a5.379,5.379,0,1,0-7.9,7.3c9.122,10.336,24.019,29.793,25.235,38.61,3.04,24.018-13.377,44.387-13.377,44.691a.3.3,0,0,1-.3.3c0,.3-.3.3-.3.608a.941.941,0,0,1-.3.608c0,.3,0,.3-.3.608v3.648c0,.3,0,.3.3.608,0,.3,0,.3.3.608l.3.3c0,.3.3.3.3.608l.3.3.3.3.3.3h0a35.515,35.515,0,0,0,8.513,5.472,4.507,4.507,0,0,0,2.128.3c2.128,0,6.08-1.824,6.992-3.952C394.385,322.362,394.385,321.145,391.345,320.233Z" transform="translate(618.245 3054.753)" fill="#ffaf84"/>
      <path id="Path_171" data-name="Path 171" d="M373.206,268.425c0,2.128-.912,41.043-2.736,70.229v.912l-20.37.608v-.912c1.824-28.578,1.824-70.533,2.128-71.141A8.958,8.958,0,0,1,361.349,259h0C366.213,259,373.206,263.56,373.206,268.425Z" transform="translate(594.125 3126.931)" fill="#ed8c62"/>
      <path id="Path_172" data-name="Path 172" d="M383.82,268.533c0,2.128-1.824,41.347-3.952,70.229l-20.37.608v-.608c-.912-30.4.608-54.42.3-69.317.3-5.168,10.337-10.641,15.2-10.337C379.868,259.108,383.82,263.364,383.82,268.533Z" transform="translate(612.696 3127.127)" fill="#ed8c62"/>
      <path id="Path_173" data-name="Path 173" d="M353.716,344.511S339.427,277.322,356.149,253h52.9s-1.824,80.566-4.256,91.511Z" transform="translate(589.9 3114.689)" fill="#0957ea"/>
      <path id="Path_174" data-name="Path 174" d="M410.233,309.738a13.793,13.793,0,0,0,.3,3.04h-52.9a10.343,10.343,0,0,1,.3-3.04v-.912c0-3.648,0-7.6-.3-11.249v-1.216c0-1.52-.3-3.04-.3-4.256v-1.216c-.3-3.648-.912-7.3-1.52-10.945v-.912a23.473,23.473,0,0,1-.608-4.56v-.912c-.608-3.952-1.216-7.6-2.128-11.553h0c-.3-1.824-.608-3.344-.912-5.168v-.3c-.608-3.648-1.52-7.3-2.128-10.641,0-.608-.3-.912-.3-1.52-.3-1.216-.3-2.432-.608-3.344,0-.608-.3-1.52-.3-2.128-.608-2.736-.912-5.472-1.52-7.9V230.4a7.223,7.223,0,0,1,.912-3.648,6.385,6.385,0,0,1,5.472-3.04h41.955a6.793,6.793,0,0,1,5.472,3.04,2.322,2.322,0,0,1,.608,1.52c.3.912.3,1.52.608,2.432.608,2.128.912,4.256,1.52,6.993a14.2,14.2,0,0,1,3.04,1.52,10.487,10.487,0,0,1,2.736,2.432,6.309,6.309,0,0,1,1.824,3.04,4.321,4.321,0,0,1,.608,1.824,8.417,8.417,0,0,1,.3,2.736,13.3,13.3,0,0,1-2.432,7.6l-.3.3a9.256,9.256,0,0,1-2.432,2.432c0,.912.3,1.824.3,2.736v.3c.3,3.648.912,7.6,1.216,11.249v.912c0,1.52.3,3.04.3,4.256v1.216c.3,3.648.608,7.3.912,10.641v1.52c0,1.216.3,2.736.3,3.952v1.824c.3,4.256.608,7.9.608,10.641C410.233,308.826,410.233,309.434,410.233,309.738Z" transform="translate(588.412 3054.911)" fill="#0b0b0b"/>
      <path id="Path_175" data-name="Path 175" d="M376.636,321.083c0-.3.3-.3.3-.608v-2.128c0-.3,0-.608-.3-.608v-.3c0-.3-.3-.3-.3-.608a.3.3,0,0,0-.3-.3l-.3-.3-.3-.3h0l-.3-.3-.3-.3c-.3-.3-24.322-20.673-23.714-44.387.3-10.337,14.593-31.314,19.761-38.307a5.443,5.443,0,1,0-8.817-6.384c-2.128,2.736-19.761,28.578-21.586,43.475-2.736,21.89,19.153,39.523,27.97,48.036-3.648,3.344-6.08,2.128-8.209,2.432-3.04.3-3.04,2.736-2.432,5.472a6.029,6.029,0,0,0,1.824,3.952c1.824,2.432,4.56,1.216,5.472.912a46.834,46.834,0,0,0,10.337-6.689h0a.3.3,0,0,0,.3-.3l.608-.608h0c-.3-1.216,0-1.52.3-1.824Z" transform="translate(573.973 3055.423)" fill="#ffaf84"/>
      <path id="Path_176" data-name="Path 176" d="M356.281,221.938c11.249,6.384,37.7,4.864,42.563,13.073,0,0,7.9-21.89-20.37-31.922C352.329,193.664,340.472,213.121,356.281,221.938Z" transform="translate(592.199 3007.726)" fill="#40f"/>
      <path id="Path_177" data-name="Path 177" d="M364.033,204.493c7.3,2.736-3.344,26.45-14.9,26.45C343.968,230.943,343.36,197.2,364.033,204.493Z" transform="translate(585.968 3013.618)" fill="#40f"/>
      <path id="Path_178" data-name="Path 178" d="M346.1,218.607a9.9,9.9,0,0,0,3.04,6.992,3.561,3.561,0,0,0,5.776-2.736v-8.209c0-3.04-3.648-4.864-5.776-2.736a8.711,8.711,0,0,0-3.04,6.689Z" transform="translate(585.964 3028.993)" fill="#ffaf84"/>
      <path id="Path_179" data-name="Path 179" d="M353.62,329.353l-1.52-.912L391.623,257.3l1.216.608Z" transform="translate(598.205 3123.462)" fill="#0092ff"/>
      <path id="Path_180" data-name="Path 180" d="M360.12,322.724l-1.52-.3,21.281-62.02,1.216.3Z" transform="translate(611.466 3129.787)" fill="#0092ff"/>
      <path id="Path_181" data-name="Path 181" d="M351.7,223.5a33.425,33.425,0,0,0,4.56,4.864c6.08,4.56,13.681,6.08,16.417,3.344,1.824-1.824,1.52-4.864-.3-7.9H351.7Z" transform="translate(597.389 3054.503)" fill="#ffaf84"/>
      <path id="Path_182" data-name="Path 182" d="M355.991,322.816a2.305,2.305,0,0,1,1.216.608c2.432,1.824,5.168,4.56,9.121,5.472s2.432,2.736-1.52,2.736c-5.472,0-7.6-.3-10.337,0h-6.992c-2.736,0-1.824-5.472-.3-8.817A2.036,2.036,0,0,1,349.3,321.6Z" transform="translate(585.193 3254.648)" fill="#332f4f"/>
      <path id="Path_183" data-name="Path 183" d="M365.714,322.612a2.3,2.3,0,0,1,1.216.608c2.432,1.824,9.425,5.472,13.073,6.081,3.952.608,4.256,2.432-1.52,2.432-5.472,0-9.425-.608-12.161-.3-2.432,0-1.824.3-7.9.3-4.56,0-3.344-5.776-1.52-8.817a2.3,2.3,0,0,1,2.128-1.216Z" transform="translate(604.656 3254.853)" fill="#332f4f"/>
    </g>
  </g>
</svg>
