<svg xmlns="http://www.w3.org/2000/svg" xmlns:xlink="http://www.w3.org/1999/xlink" width="537" height="518.054" viewBox="0 0 537 518.054">
  <defs>
    <linearGradient id="linear-gradient" x1="0.751" y1="0.02" x2="0.08" y2="0.685" gradientUnits="objectBoundingBox">
      <stop offset="0" stop-color="#fff"/>
      <stop offset="1" stop-color="#fff" stop-opacity="0"/>
    </linearGradient>
    <linearGradient id="linear-gradient-2" x1="0.67" y1="0.283" x2="0.149" y2="0.949" xlink:href="#linear-gradient"/>
  </defs>
  <g id="IllustrationWebDevelopment" transform="translate(-1106 -1606.999)">
    <path id="Path_200" data-name="Path 200" d="M555.057,167.612a262.351,262.351,0,0,0-33.722,2.137,242.985,242.985,0,0,1-117.79-13.774,132,132,0,0,0-41.559-8.312c-64.832-2.612-119.215,41.559-121.352,98.792-1.187,33.485,15.911,63.882,43.221,83.83,26.6,19.473,46.071,47.733,55.333,80.506,24.7,87.63,116.128,147.713,215.869,147.713,122.777,0,222.519-87.393,222.519-195.446C777.338,255,677.834,167.612,555.057,167.612Z" transform="translate(865.424 1459.446)" fill="rgba(251,172,46,0.22)"/>
    <path id="Path_201" data-name="Path 201" d="M380.188,358.675c0,2.375-31.11,4.275-69.344,4.275s-69.344-1.9-69.344-4.275,31.11-4.275,69.344-4.275S380.188,356.3,380.188,358.675Z" transform="translate(866.695 1743.819)" fill="#d2f0ff"/>
    <path id="Path_202" data-name="Path 202" d="M561.107,358.449c0,3.8-50.108,6.649-111.853,6.649S345,362.012,345,358.449c0-3.8,42.271-6.649,104.254-6.649C511,351.8,561.107,354.887,561.107,358.449Z" transform="translate(1008.987 1740.244)" fill="#d2f0ff"/>
    <path id="Path_203" data-name="Path 203" d="M605.523,428.806H312.236A21.182,21.182,0,0,1,291.1,407.67V226.236A21.183,21.183,0,0,1,312.236,205.1H605.523a21.183,21.183,0,0,1,21.136,21.136V407.67a21.182,21.182,0,0,1-21.136,21.136Z" transform="translate(934.885 1538.561)" fill="#353537"/>
    <rect id="Rectangle_67" data-name="Rectangle 67" width="300.412" height="188.322" transform="translate(1243.559 1761.472)" fill="#feedd1"/>
    <rect id="Rectangle_68" data-name="Rectangle 68" width="300.412" height="18.048" transform="translate(1243.559 1931.983)" fill="#b1b1b1"/>
    <rect id="Rectangle_69" data-name="Rectangle 69" width="300.412" height="9.024" transform="translate(1243.559 1761.472)" fill="rgba(42,42,42,0.25)"/>
    <path id="Path_204" data-name="Path 204" d="M634.333,321.861H305.661A22.55,22.55,0,0,1,283.1,299.3H656.893a22.7,22.7,0,0,1-22.56,22.561Z" transform="translate(923.887 1668.067)" fill="#2a2a2a"/>
    <path id="Path_205" data-name="Path 205" d="M634.333,314.124H305.661A22.472,22.472,0,0,1,284.525,299.4H283.1a22.55,22.55,0,0,0,22.561,22.561H634.333a22.55,22.55,0,0,0,22.56-22.561h-1.425A22.952,22.952,0,0,1,634.333,314.124Z" transform="translate(923.887 1668.205)" fill="#0b0b0b"/>
    <rect id="Rectangle_70" data-name="Rectangle 70" width="352.42" height="4.512" transform="translate(1217.674 1963.093)" fill="#0b0b0b"/>
    <path id="Path_206" data-name="Path 206" d="M399.708,306.9H357.2a7.5,7.5,0,0,1-7.6-7.6h57.47a7.169,7.169,0,0,1-7.362,7.6Z" transform="translate(1015.311 1668.067)" fill="#0b0b0b"/>
    <rect id="Rectangle_71" data-name="Rectangle 71" width="41.321" height="7.124" transform="translate(1254.246 1955.968)" fill="#0b0b0b"/>
    <rect id="Rectangle_72" data-name="Rectangle 72" width="41.321" height="7.124" transform="translate(1492.913 1955.968)" fill="#0957ea"/>
    <path id="Path_207" data-name="Path 207" d="M398.716,212.6,298.5,312.816v88.342h.238L487.3,212.6Z" transform="translate(945.059 1548.872)" opacity="0.51" fill="url(#linear-gradient)"/>
    <path id="Path_208" data-name="Path 208" d="M310.3,401.159h54.858L553.717,212.6H498.859Z" transform="translate(961.282 1548.872)" opacity="0.51" fill="url(#linear-gradient-2)"/>
    <path id="Path_209" data-name="Path 209" d="M441.858,344.242l35.384-35.384V254L387,344.242Z" transform="translate(1066.729 1605.789)" fill="#fff" opacity="0.51"/>
    <path id="Path_210" data-name="Path 210" d="M259.04,343.577l-4.512,15.2a4.773,4.773,0,0,1-.95,1.9l-3.325,4.75a5.489,5.489,0,0,0,2.85,8.312s5.7,2.375,12.586,4.512c6.887,2.375,15.674.475,15.674-1.425,0-4.037-3.8-.95-10.212-4.987a50.112,50.112,0,0,1-5.462-4.512c-5.462-4.275-.712-15.2,2.612-21.373a3.725,3.725,0,0,0-2.612-5.462l-1.662-.238C262.127,339.778,259.753,341.2,259.04,343.577Z" transform="translate(877.416 1724.244)" fill="#fab9af"/>
    <path id="Path_211" data-name="Path 211" d="M301.887,299.361c.712-3.087,1.187-6.175,1.425-7.362a13.251,13.251,0,0,1,1.187-1.9c.712-.95,1.9-2.612,1.9-3.8v-5.225c0-2.375,1.187-4.275,3.562-4.275h0c2.612,0,3.8,2.375,3.562,4.987v3.562a13.661,13.661,0,0,0,1.187,6.174c1.187,4.275.238,9.024-.95,13.061-.712,2.375-6.649,1.9-11.161,1.662-3.087-.237-6.649-1.187-6.175-2.612.95-2.137,12.349.712,10.449-5.937,0-.238-.475-1.187-.712-1.187-1.187,0-1.425,2.612-2.137,4.037-.712,1.9-2.137,2.612-2.85,2.375S301.412,301.5,301.887,299.361Z" transform="translate(942.147 1637.134)" fill="#fab9af"/>
    <path id="Path_212" data-name="Path 212" d="M300.631,219.048s39.9,53.67,39.9,83.593c0,20.423-8.549,65.307-8.549,65.307a17.4,17.4,0,0,1-8.074,0s.237-57-3.087-67.207-36.572-58.658-37.284-69.582C282.582,220.235,293.981,210.261,300.631,219.048Z" transform="translate(924.405 1553.111)" fill="#2a2a2a"/>
    <path id="Path_213" data-name="Path 213" d="M434.233,370.336,274.409,350.15a10.524,10.524,0,0,1-9.262-11.874l11.874-93.567a10.524,10.524,0,0,1,11.874-9.262l159.824,20.186a10.524,10.524,0,0,1,9.262,11.874l-11.874,93.567a10.692,10.692,0,0,1-11.874,9.262Z" transform="translate(899.094 1580.171)" fill="#fbac2e"/>
    <path id="Path_214" data-name="Path 214" d="M424.992,356.2,272.53,336.959a2.955,2.955,0,0,1-2.612-3.325l11.636-91.9a2.955,2.955,0,0,1,3.325-2.612l152.462,19.236a2.955,2.955,0,0,1,2.612,3.325l-11.636,91.9a2.955,2.955,0,0,1-3.325,2.617Z" transform="translate(905.722 1585.287)" fill="#fff"/>
    <path id="Path_215" data-name="Path 215" d="M433,266.194l.712-4.987a2.145,2.145,0,0,0-2.137-2.612l-153.65-19.474a2.145,2.145,0,0,0-2.612,2.137l-.712,4.987Z" transform="translate(912.201 1585.283)" fill="#c8e6eb"/>
    <circle id="Ellipse_46" data-name="Ellipse 46" cx="39.422" cy="39.422" r="39.422" transform="translate(1202.655 1875.925) rotate(-38.096)" fill="#fbac2e"/>
    <path id="Path_216" data-name="Path 216" d="M297.145,294.4l4.75-36.809a4.925,4.925,0,0,1,8.074-3.087L334.9,276.347a4.9,4.9,0,0,1-.95,8.074l-29.68,14.962C300.708,301.045,296.433,298.2,297.145,294.4Z" transform="translate(943.089 1604.815)" fill="#fff"/>
    <path id="Path_217" data-name="Path 217" d="M281.159,346.11v12.824a26.682,26.682,0,0,1-.95,7.6l-1.187,3.8a4.935,4.935,0,0,0,4.75,6.412h27.31a1.087,1.087,0,0,0,1.187-.95c.237-3.8-10.449-6.175-18.523-9.262-6.174-2.375-5.937-13.536-4.987-19.948a3.877,3.877,0,0,0-4.275-4.275h0a3.681,3.681,0,0,0-3.325,3.8Z" transform="translate(917.991 1727.173)" fill="#fab9af"/>
    <path id="Path_218" data-name="Path 218" d="M262.91,194.012c1.187-4.512,7.6-6.649,14.249-4.987a51.378,51.378,0,0,1,5.462,1.9,17.218,17.218,0,0,0,13.3,0,15.935,15.935,0,0,1,6.649-1.425c9.737,0,18.761,7.362,22.561,14.724.95,1.9-.238,4.037-.238,5.937.712,22.561-10.687,19-22.8,19s-20.9-7.124-20.9-16.861v-1.187a4.9,4.9,0,0,0-4.512-5.462,13.454,13.454,0,0,1-3.562-.712C266.234,203.511,261.722,198.287,262.91,194.012Z" transform="translate(895.869 1515.69)" fill="#ff6748"/>
    <path id="Path_219" data-name="Path 219" d="M344.88,338.727l-17.1-119.452L281.948,213.1,258.2,337.777Z" transform="translate(889.655 1549.56)" fill="#fab9af"/>
    <path id="Path_220" data-name="Path 220" d="M273.2,268.975l50.821-4.275s5.225,37.047-7.837,103.779c-5.937,31.347-18.523,91.43-18.523,91.43a14.53,14.53,0,0,1-9.5.95s-.95-26.36-1.425-54.858c-.475-27.31-.712-56.52-2.375-66.019C280.562,320.27,273.2,268.975,273.2,268.975Z" transform="translate(910.277 1620.499)" fill="#0092ff"/>
    <path id="Path_221" data-name="Path 221" d="M305.36,270.062c-6.649,2.375-14.011,8.787-12.824,19.711,2.137,20.423,3.562,48.921-4.75,61.507-2.85,4.275-1.9-4.275-3.562-14.011C280.662,317.8,273.3,266.5,273.3,266.5Z" transform="translate(910.414 1622.974)" fill="#0957ea"/>
    <path id="Path_222" data-name="Path 222" d="M312.52,273.8c5.225,28.023,16.861,70.294-5.7,109.716s-46.309,80.506-46.309,80.506a11.846,11.846,0,0,1-8.312-2.85s4.037-17.811,9.737-38.947c6.649-23.985,14.724-52.008,12.349-66.732-4.512-27.548-9.5-64.12-8.074-81.93C267.874,255.988,309.67,259.075,312.52,273.8Z" transform="translate(881.406 1616.15)" fill="#0092ff"/>
    <path id="Path_223" data-name="Path 223" d="M344.77,340.389a4.46,4.46,0,0,0,2.375-4.75L328.384,219.274,282.551,213.1l-24.7,122.777a4.139,4.139,0,0,0,3.325,4.987,290.916,290.916,0,0,0,52.246,4.987C330.759,345.851,340.258,342.526,344.77,340.389Z" transform="translate(889.052 1549.56)" fill="#fff"/>
    <path id="Path_224" data-name="Path 224" d="M300.084,219.512c0,8.312,1.662,15.2,2.375,23.51,1.662,17.1,1.9,39.9,2.375,66.019.95,45.121-1.9,57.233-13.774,65.782s-34.91-5.7-35.622-10.449,4.512-63.645,10.212-89.055,22.086-62.22,22.086-62.22l6.887.712a5.569,5.569,0,0,1,5.462,5.7Z" transform="translate(885.767 1549.56)" fill="#2a2a2a"/>
    <path id="Path_225" data-name="Path 225" d="M272.5,273.657c5.7-9.024,18.523-38.472,18.523-46.784L282.236,213.1s-15.674,37.284-21.373,62.7C254.926,301.442,266.325,283.394,272.5,273.657Z" transform="translate(891.029 1549.56)" fill="#0b0b0b"/>
    <path id="Path_226" data-name="Path 226" d="M282.3,215a202.151,202.151,0,0,1,6.412,44.646c.712,26.123,3.087,84.78,12.112,108.291,2.85,7.362,23.273-12.349,23.273-18.286s-5.462-25.648-10.449-43.7c-4.037-14.486-9.737-63.407-11.637-81.693-.475-4.037-.95-7.362-5.225-7.837Z" transform="translate(922.787 1552.172)" fill="#2a2a2a"/>
    <path id="Path_227" data-name="Path 227" d="M274.13,195.669a3.785,3.785,0,0,0-4.512,4.75,11.73,11.73,0,0,1,0,6.412c-1.425,5.462,4.987,6.887,7.124,9.024,2.375,2.137,2.612,6.649,6.649,7.124,3.8.475,12.824-3.087,12.824-6.887C296.216,213,283.63,198.043,274.13,195.669Z" transform="translate(905.072 1525.432)" fill="#ff6748"/>
    <path id="Path_228" data-name="Path 228" d="M287.849,192.6c-10.212,0-14.011,7.362-14.249,20.661,0,4.987,2.137,9.974,4.037,13.3a10.063,10.063,0,0,1,.95,7.837L276.45,242c-1.425,7.124,1.9,10.924,6.649,12.349a9.581,9.581,0,0,0,7.6-1.187c2.612-1.662,2.85-5.225,2.375-8.074l-.475-2.137c-.712-2.85.95-6.174,3.8-6.649,7.837-1.662,9.024-9.974,11.162-22.561C309.46,199.962,298.06,192.6,287.849,192.6Z" transform="translate(910.827 1521.376)" fill="#fab9af"/>
    <path id="Path_229" data-name="Path 229" d="M311.116,198.9c0-3.087-3.325-6.649-6.412-6.887a24,24,0,0,1-4.037-.712l-11.162-1.9c-7.124,0-18.761,4.037-17.336,14.249l1.187,6.887a7.068,7.068,0,0,0,5.937,5.7h0a1.06,1.06,0,0,1,1.187,0c.475.238.712.475.712.95l.95,4.037c1.187,0,1.662-4.275,1.662-5.462a6.862,6.862,0,0,1,5.462-6.649c3.8-.95,4.75-4.037,9.262-2.85l3.325,1.187c3.8.95,8.549-1.662,8.549-5.7C310.4,201.037,311.116,199.612,311.116,198.9Z" transform="translate(908.695 1516.977)" fill="#ff6748"/>
    <path id="Path_230" data-name="Path 230" d="M281.362,204.562c0,3.087-1.187,5.7-4.275,5.7s-4.987-4.275-4.987-7.362,1.9-3.8,4.987-3.8S281.362,201.475,281.362,204.562Z" transform="translate(908.764 1530.312)" fill="#fab9af"/>
    <path id="Path_231" data-name="Path 231" d="M289.25,211.587a2.378,2.378,0,0,1-2.375,2.85h0A2.343,2.343,0,0,1,284.5,212.3v-9.974a1.234,1.234,0,0,1,.475-.95,1.8,1.8,0,0,1,.95-.475,1.578,1.578,0,0,1,1.187.95Z" transform="translate(925.812 1532.787)" fill="#fa968c"/>
    <path id="Path_232" data-name="Path 232" d="M285.2,196.85c4.037.95,6.174,7.6,6.412,10.212h0a1.532,1.532,0,0,0,1.425-1.425v-4.275c0-.712-2.137-5.462-3.087-5.462Z" transform="translate(926.774 1525.913)" fill="#ff6748"/>
    <path id="Path_233" data-name="Path 233" d="M264.94,296.661c-.712-3.087-1.187-6.174-1.425-7.362a13.248,13.248,0,0,0-1.187-1.9c-.712-.95-1.9-2.612-1.9-3.8v-5.225c0-2.375-1.187-4.275-3.562-4.275h0c-2.612,0-3.8,2.375-3.562,4.987v3.562a13.662,13.662,0,0,1-1.187,6.174c-1.187,4.275-.238,9.024.95,13.061.712,2.375,3.8,4.037,8.074,5.7,2.137.95,5.462,1.662,4.275-.95-1.187-2.137-7.362-5.225-5.462-11.874,0-.238.475-1.187.712-1.187,1.187,0,1.425,2.612,2.137,4.037.712,1.9,2.137,2.612,2.85,2.375C266.6,300.223,265.415,298.8,264.94,296.661Z" transform="translate(880.54 1633.422)" fill="#fab9af"/>
    <path id="Path_234" data-name="Path 234" d="M288.3,216.333S248.4,270,248.4,299.926c0,20.423,8.549,65.307,8.549,65.307a17.4,17.4,0,0,0,8.074,0s-.238-57,3.087-67.207,35.622-58.9,37.284-69.582C307.532,217.045,298.033,207.783,288.3,216.333Z" transform="translate(876.182 1549.414)" fill="#2a2a2a"/>
    <path id="Path_235" data-name="Path 235" d="M473.83,343.188a18.459,18.459,0,0,0-3.8.475,7.273,7.273,0,0,1-6.887-2.137,14.562,14.562,0,0,0-10.212-4.987,5.694,5.694,0,0,1-5.225-3.325A18.755,18.755,0,0,0,439.4,324.9a9.638,9.638,0,0,1-5.7-9.262,21.469,21.469,0,0,0-5.937-14.724A12.521,12.521,0,0,1,424.2,289.28a17.379,17.379,0,0,0,.237-7.837,20.2,20.2,0,1,0-27.31,22.086,19.567,19.567,0,0,0-4.037,12.112,20.169,20.169,0,0,0,20.186,20.186h2.137a18.52,18.52,0,0,0-.712,5.225,17.582,17.582,0,0,0,19.236,17.336,11.219,11.219,0,0,1,9.262,2.85,14.09,14.09,0,0,0,15.674,1.9,11.357,11.357,0,0,1,8.787-.95c8.312,3.087,19.473-.95,19.473-8.787C487.129,347.7,481.192,343.188,473.83,343.188Z" transform="translate(1063.017 1620.142)" fill="#0957ea"/>
    <path id="Path_236" data-name="Path 236" d="M537.225,363.969C523.451,352.1,461.469,327.4,461.469,327.4c-4.75-1.9-30.635-2.137-34.91-.238,0,0-64.12,25.41-76.943,36.809-3.087,2.612-5.462,8.787-3.8,12.824,3.8,9.262,58.895,7.124,85.73-.712a39.394,39.394,0,0,1,23.985.237c27.785,8.549,85.73,12.586,89.767,3.325C546.962,375.605,546.249,371.806,537.225,363.969Z" transform="translate(1009.358 1704.565)" fill="#0092ff"/>
    <path id="Path_237" data-name="Path 237" d="M377.081,354.533c4.987.95,8.312-2.85,11.874-3.8a11.281,11.281,0,0,1,9.974,2.612c7.837,6.649,14.961,5.937,23.036,6.174l40.609-7.362s34.91-13.774,46.309-11.4c12.586,2.612,18.049,9.5,18.049,16.149,0,6.174-22.086,17.336-47.971,17.1-30.872-.238-66.969-5.225-77.418-7.6,0,0-41.8-10.687-42.034-12.586C359.032,352.158,372.094,353.583,377.081,354.533Z" transform="translate(1028.914 1724.687)" fill="#fa968c"/>
    <path id="Path_238" data-name="Path 238" d="M393.792,309.678c.475,0,.712.475.712.95a8.826,8.826,0,0,0,1.9,5.225,8.418,8.418,0,0,0,6.649,3.087,4.414,4.414,0,0,1,3.562,2.137,8.217,8.217,0,0,0,2.375,2.612,7.862,7.862,0,0,0,7.6.475,9.3,9.3,0,0,0,2.375-1.9,5.966,5.966,0,0,1,4.987-2.375,8.094,8.094,0,0,0,5.225-1.662,7.273,7.273,0,0,0,2.612-6.412,8.665,8.665,0,0,0-1.425-4.75,4.381,4.381,0,0,1-1.187-3.8,5.984,5.984,0,0,0-1.425-4.75,6.735,6.735,0,0,0-2.612-1.9,4.382,4.382,0,0,1-2.612-5.225,10.1,10.1,0,0,0,.475-2.612c1.187-8.074-6.887-16.149-6.887-16.149h0a5.108,5.108,0,0,1-6.174-1.425l-3.087-3.8a.673.673,0,0,0-1.187,0c-.475.238-.475.712-.237,1.187l1.9,2.612a7.489,7.489,0,0,1,0,9.262,12.192,12.192,0,0,0-2.375,5.7,51.652,51.652,0,0,0-.237,5.937c.237,2.612-1.425,5.7-4.037,6.412a15.914,15.914,0,0,1-9.974-.712,14.394,14.394,0,0,1-6.174-4.512l-4.037-4.75a.84.84,0,1,0-1.187,1.187l1.9,2.375a7,7,0,0,1,1.187,3.087C383.106,300.416,386.668,308.253,393.792,309.678Z" transform="translate(1055.662 1623.73)" fill="#0957ea"/>
    <ellipse id="Ellipse_47" data-name="Ellipse 47" cx="26.598" cy="25.648" rx="26.598" ry="25.648" transform="translate(1415.28 1914.435) rotate(-38.806)" fill="#0957ea"/>
    <path id="Path_239" data-name="Path 239" d="M419.114,389.311l-14.724.475c-9.974.237-18.523-1.9-19.473-11.637l-14.011-72.194c-.238-5.225,4.037-10.212,8.549-12.824,0,0,40.609-7.6,56.52,1.425l1.187.475c4.275,2.375,7.6,7.124,7.6,12.111l-7.6,70.057C436.212,386.7,428.613,388.836,419.114,389.311Z" transform="translate(1044.589 1655.474)" fill="#2a2a2a"/>
    <path id="Path_240" data-name="Path 240" d="M437.47,294.1a19.829,19.829,0,0,1-1.9,2.85,44.774,44.774,0,0,0-8.074,24.223c-.237,7.6.712,15.674-1.662,20.661-2.85,6.174-13.061,6.174-18.048,1.662l-.237-.238c-2.85-2.612-7.362-3.087-10.212-.475a15.4,15.4,0,0,1-10.687,3.8,15.557,15.557,0,0,1-12.349-5.462l6.174,31.347c.95,9.737,9.737,11.874,19.473,11.637l14.724-.475c9.5-.238,17.336-2.375,18.048-12.111l7.6-70.057a16.484,16.484,0,0,0-2.85-7.362Z" transform="translate(1049.269 1660.918)" fill="#0b0b0b"/>
    <path id="Path_241" data-name="Path 241" d="M401.125,314.77c-4.037,12.824-27.548,62.22-35.147,59.845-7.362-2.375,5.7-51.3,9.974-64.12,4.037-12.824,10.687-21.136,18.048-18.761C401.6,294.109,405.162,301.946,401.125,314.77Z" transform="translate(1034.793 1657.109)" fill="#2a2a2a"/>
    <path id="Path_242" data-name="Path 242" d="M396.51,316.512c5.937,11.874,37.522,55.808,44.646,52.483,6.887-3.325-14.486-48.446-20.423-60.32s-13.774-19.236-20.661-15.911S390.573,304.638,396.51,316.512Z" transform="translate(1075.267 1657.98)" fill="#2a2a2a"/>
    <path id="Path_243" data-name="Path 243" d="M444.7,319.656c-8.787.712-62.932,8.787-62.7,13.536.475,4.75,55.57,4.512,64.119,3.8,8.787-.712,12.349-5.225,11.874-9.974C457.756,322.268,453.244,318.943,444.7,319.656Z" transform="translate(1059.854 1695.92)" fill="#fa968c"/>
    <path id="Path_244" data-name="Path 244" d="M402.975,281.9h-19a16.441,16.441,0,0,1,.95,8.312l-1.9,9.737c-1.187,9.024,2.612,13.774,7.837,15.2a8.351,8.351,0,0,0,7.6-2.137c2.612-2.375,2.612-6.887,1.9-10.449l-.712-2.612C398.463,296.149,402.975,281.9,402.975,281.9Z" transform="translate(1060.966 1644.146)" fill="#fab9af"/>
    <path id="Path_245" data-name="Path 245" d="M402.3,281.9h-19a16.44,16.44,0,0,1,.95,8.312l-.712,3.562a38.1,38.1,0,0,0,6.412,6.175,5.751,5.751,0,0,0,7.362-.237c.475-.475.95-.712,1.425-1.187C398.5,293.536,402.3,281.9,402.3,281.9Z" transform="translate(1061.642 1644.146)" fill="#fa968c"/>
    <path id="Path_246" data-name="Path 246" d="M386.687,282.034c.238,3.087.238,6.649-2.375,6.887s-5.7-4.987-5.7-8.074c-.237-3.087,1.425-3.8,4.037-4.037C385.5,276.572,386.687,278.947,386.687,282.034Z" transform="translate(1055.167 1637.125)" fill="#fab9af"/>
    <path id="Path_247" data-name="Path 247" d="M392.756,281.825c-.237,3.087-.237,6.649,2.375,6.887s5.7-5.225,5.7-8.074c.237-3.087-1.425-3.8-4.037-4.037C394.181,276.6,392.994,278.975,392.756,281.825Z" transform="translate(1074.509 1636.859)" fill="#fab9af"/>
    <path id="Path_248" data-name="Path 248" d="M415.109,288.911c0,13.061-8.549,22.086-13.774,26.36a6.054,6.054,0,0,1-7.362.238c-5.225-3.8-13.774-12.349-13.774-26.36,0-15.436,8.312-21.848,17.573-21.848S415.109,273.474,415.109,288.911Z" transform="translate(1057.38 1624.074)" fill="#fab9af"/>
    <path id="Path_249" data-name="Path 249" d="M392,288.4a2.76,2.76,0,0,1-3.087,3.087h0a3.036,3.036,0,0,1-2.612-2.85l1.187-11.874a1.306,1.306,0,0,1,.712-1.187,1.814,1.814,0,0,1,1.187-.475,1.122,1.122,0,0,1,1.187,1.187Z" transform="translate(1065.766 1634.797)" fill="#fa968c"/>
    <path id="Path_250" data-name="Path 250" d="M419.875,272.585h0c1.662-2.137-2.612-9.024-10.212-7.124h0a13.45,13.45,0,0,1-8.074-.475,16.861,16.861,0,0,0-7.6-.95,10.462,10.462,0,0,0-8.312,5.225c-.712.475-1.425,1.187-2.137,1.662-6.175,5.462-4.987,16.624-4.987,16.624h0a4.831,4.831,0,0,1,4.037,4.75v4.987a1.022,1.022,0,0,0,.95.95,1.06,1.06,0,0,0,.95-.712l.237-3.087a8.177,8.177,0,0,1,5.7-7.124,12.113,12.113,0,0,0,5.462-2.85,22.561,22.561,0,0,0,3.8-4.512,6.016,6.016,0,0,1,7.362-2.375,16.139,16.139,0,0,1,9.024,14.249V298a.95.95,0,1,0,1.9,0v-3.087a5.092,5.092,0,0,1,.95-2.85c3.325-4.037,5.462-12.586.95-18.286a1.06,1.06,0,0,1,0-1.192Z" transform="translate(1054.99 1619.501)" fill="#0957ea"/>
    <path id="Path_251" data-name="Path 251" d="M444.484,325.8s-1.425-4.75-3.562-7.362c-1.662-1.662-8.074-.238-11.637.95a23.422,23.422,0,0,1-5.7.712c-14.249-.712-41.559-.237-47.971.95-8.549,1.662-12.586,8.312-11.636,13.061,1.662,7.6,6.174,9.262,14.724,7.6,6.175-1.187,31.347-9.262,44.884-15.436a20.984,20.984,0,0,1,11.4-1.662Z" transform="translate(1034.892 1693.338)" fill="#fab9af"/>
    <path id="Path_252" data-name="Path 252" d="M491.641,374.8c-2.85-.95-11.162-.712-16.149-.95s-7.6-4.512-10.687-6.175a11.119,11.119,0,0,0-10.212.475c-9.024,4.987-15.911,2.85-23.748,1.187,0,0-48.921-28.5-64.12-29.685-12.824-.95-19.236,5.7-21.136,12.112-2.375,7.837,4.037,13.536,11.637,16.149,27.785,9.262,72.194,12.586,91.9,12.349,0,0,25.41-2.137,38.709.237,4.987.95,6.649-.712,7.362-2.375C495.915,376.937,494.49,375.75,491.641,374.8Z" transform="translate(1009.109 1723.419)" fill="#fab9af"/>
    <path id="Path_253" data-name="Path 253" d="M449.031,380.3H375.174a8.008,8.008,0,0,1-8.074-8.074V325.674a8.008,8.008,0,0,1,8.074-8.074H449.03a8.008,8.008,0,0,1,8.074,8.074V372.22a8.008,8.008,0,0,1-8.073,8.075Z" transform="translate(1039.37 1693.226)" fill="#353537"/>
    <path id="Path_254" data-name="Path 254" d="M593.665,478.158H364.022a37.522,37.522,0,0,1,0-75.044h59.132v2.375H364.022a35.147,35.147,0,1,0,0,70.294H593.665a35.068,35.068,0,0,0,35.147-35.147V321.422a35.068,35.068,0,0,0-35.147-35.147H577.991V283.9h15.674a37.6,37.6,0,0,1,37.522,37.522V440.637a37.6,37.6,0,0,1-37.522,37.521Z" transform="translate(983.553 1646.895)" fill="rgba(0,146,255,0.47)"/>
  </g>
</svg>
