<svg xmlns="http://www.w3.org/2000/svg" width="601.911" height="369.621" viewBox="0 0 601.911 369.621">
  <g id="IllustrationWebDesign" transform="translate(-278 -3597)">
    <g id="Group_6" data-name="Group 6" transform="translate(-5.089 -101.563)">
      <rect id="Rectangle_57" data-name="Rectangle 57" width="500.665" height="15.928" transform="translate(383.712 3698.563)" fill="#f2f2f2"/>
      <circle id="Ellipse_29" data-name="Ellipse 29" cx="4.122" cy="4.122" r="4.122" transform="translate(392.988 3702.17)" fill="#fead2c"/>
      <circle id="Ellipse_30" data-name="Ellipse 30" cx="4.122" cy="4.122" r="4.122" transform="translate(406.385 3702.17)" fill="#fead2c"/>
      <circle id="Ellipse_31" data-name="Ellipse 31" cx="4.122" cy="4.122" r="4.122" transform="translate(419.783 3702.17)" fill="#fead2c"/>
      <path id="Path_184" data-name="Path 184" d="M175.322,362.763l-.355.3V470.517H675.629V281.779l-5.964.453Z" transform="translate(208.745 3587.721)" fill="#ffba4b"/>
      <rect id="Rectangle_58" data-name="Rectangle 58" width="139.811" height="5.638" transform="translate(419.844 3805.113)" fill="#3f3d56"/>
      <rect id="Rectangle_59" data-name="Rectangle 59" width="139.811" height="5.638" transform="translate(419.844 3817.515)" fill="#3f3d56"/>
      <rect id="Rectangle_60" data-name="Rectangle 60" width="47.355" height="5.638" transform="translate(419.844 3829.918)" fill="#3f3d56"/>
      <rect id="Rectangle_61" data-name="Rectangle 61" width="139.811" height="5.638" transform="translate(704.962 3961.624)" fill="#fff"/>
      <rect id="Rectangle_62" data-name="Rectangle 62" width="139.811" height="5.638" transform="translate(704.962 3974.027)" fill="#fff"/>
      <rect id="Rectangle_63" data-name="Rectangle 63" width="47.355" height="5.638" transform="translate(704.962 3986.429)" fill="#fff"/>
      <circle id="Ellipse_32" data-name="Ellipse 32" cx="5.5" cy="5.5" r="5.5" transform="translate(612.597 4042.041)" fill="#f2f2f2"/>
      <circle id="Ellipse_33" data-name="Ellipse 33" cx="5.5" cy="5.5" r="5.5" transform="translate(628.545 4042.591)" fill="#f2f2f2"/>
      <circle id="Ellipse_34" data-name="Ellipse 34" cx="5.5" cy="5.5" r="5.5" transform="translate(644.494 4043.141)" fill="#f2f2f2"/>
      <circle id="Ellipse_35" data-name="Ellipse 35" cx="4.4" cy="4.4" r="4.4" transform="translate(629.695 4043.691)" fill="#3f3d56"/>
      <rect id="Rectangle_64" data-name="Rectangle 64" width="47.355" height="10.804" transform="translate(465.948 3869.642)" fill="#3f3d56"/>
      <rect id="Rectangle_65" data-name="Rectangle 65" width="47.355" height="10.804" transform="translate(747.426 4015.841)" fill="#fff"/>
      <circle id="Ellipse_36" data-name="Ellipse 36" cx="32.758" cy="32.758" r="32.758" transform="translate(457.135 3842.344)" fill="#ffc550" opacity="0.3"/>
      <circle id="Ellipse_37" data-name="Ellipse 37" cx="21.839" cy="21.839" r="21.839" transform="translate(468.054 3853.263)" fill="#feedd1" opacity="0.3"/>
      <circle id="Ellipse_38" data-name="Ellipse 38" cx="15.166" cy="15.166" r="15.166" transform="translate(474.727 3859.936)" fill="#fead2c"/>
      <circle id="Ellipse_39" data-name="Ellipse 39" cx="32.758" cy="32.758" r="32.758" transform="translate(732.774 3761.158)" fill="#ffc550" opacity="0.3"/>
      <circle id="Ellipse_40" data-name="Ellipse 40" cx="21.839" cy="21.839" r="21.839" transform="translate(743.693 3772.078)" fill="#feedd1" opacity="0.3"/>
      <circle id="Ellipse_41" data-name="Ellipse 41" cx="15.166" cy="15.166" r="15.166" transform="translate(750.366 3778.751)" fill="#fead2c"/>
      <circle id="Ellipse_42" data-name="Ellipse 42" cx="32.758" cy="32.758" r="32.758" transform="translate(738.613 3988.542)" fill="#ffc550" opacity="0.3"/>
      <circle id="Ellipse_43" data-name="Ellipse 43" cx="21.839" cy="21.839" r="21.839" transform="translate(749.532 3999.462)" fill="#feedd1" opacity="0.3"/>
      <circle id="Ellipse_44" data-name="Ellipse 44" cx="15.166" cy="15.166" r="15.166" transform="translate(756.205 4006.135)" fill="#fead2c"/>
      <rect id="Rectangle_66" data-name="Rectangle 66" width="13.493" height="17.348" transform="translate(345.604 3765.428) rotate(-177.779)" fill="#0957ea"/>
      <path id="Path_185" data-name="Path 185" d="M241.624,311.857S260.3,302.936,260,310.641s-18.821,12.773-18.821,12.773Z" transform="translate(151.99 3496.424)" fill="#ffb9b9"/>
      <path id="Path_186" data-name="Path 186" d="M174.791,415.453s8.809,21.561,12.064,37.119,8.211,36.97,1.836,52.154-24.5,59.814-24.69,64.629,1.553,9.705-2.3,9.556-24.815-6.749-25.666-9.676,7.152-10.332,7.152-10.332l19.762-61.926-20.62-40.345L127.458,516.82l-2.913,75.118s-14.3-4.412-16.372-.635c0,0-6.4-8.929-7.219-12.819s3.025-78.008,3.025-78.008-13.123-84.421-2.529-84.01S153.537,391.481,174.791,415.453Z" transform="translate(208.579 3458.017)" fill="#0b0b0b"/>
      <path id="Path_187" data-name="Path 187" d="M184.344,680.937s9.772,21.6,10.7,22.6,7.294,10.892,2.478,10.706-16.185-5.45-24.554-13.491-19.4-21.972-18.4-22.9,7.854-3.553,7.854-3.553Z" transform="translate(186.085 3352.139)" fill="#0b0b0b"/>
      <path id="Path_188" data-name="Path 188" d="M127.389,703.872s.59,9.668,2.366,13.595,1.553,9.705-3.263,9.519-17.26-2.6-17.26-2.6-.739-5.816.261-6.741,5.263-11.37,3.449-14.334S127.389,703.872,127.389,703.872Z" transform="translate(203.995 3341.194)" fill="#0b0b0b"/>
      <path id="Path_189" data-name="Path 189" d="M117.78,187.821s-10.265,16-14.267,19.7,7.256,11.855,7.256,11.855l20.15,2.71s-.253-18.335.784-20.224S117.78,187.821,117.78,187.821Z" transform="translate(206.48 3543.504)" fill="#ffb9b9"/>
      <path id="Path_190" data-name="Path 190" d="M131.02,219.471s-4.151,7.555-8,7.406-23.778-8.638-24.629-11.565-6.6,20.963-6.6,20.963l48.756,85.8,11.893-8.219-5.762-50.378-4.733-27.19Z" transform="translate(210.754 3532.788)" fill="#0957ea"/>
      <path id="Path_191" data-name="Path 191" d="M86.715,292.5a26.981,26.981,0,0,1,2.991,12.655c-.007.193-.015.385-.032.577-.461,8.913-3.745,19.222-4.923,26.719-.855,5.378-.612,9.3,2.536,10.226,7.63,2.225-1.112,3.815,28.406,13.64s34.67,1.344,34.745-.582-4.18-16.559-3.18-17.484,14,12.117,17.925,10.34.448-11.557.448-11.557-8.846-20.6-8.66-25.413-13.4-27.526-13.4-27.526l-9.241-60.158s-3.553-7.854-8.331-9a11.836,11.836,0,0,0-8.742,1.59l8,17.671,8.436,31.191-1.411,11.519s-9.809-20.635-16.252-28.6-20.179-26.824-20.179-26.824-3.207-10.821-.786-14.054S84.96,203.7,79.621,217c-2.829,7.047-7.423,17.555-10.3,27.34-2.564,8.668-3.775,16.771-1.235,21.4C71.969,272.814,81.735,282.115,86.715,292.5Z" transform="translate(220.629 3536.546)" fill="#0092ff"/>
      <path id="Path_192" data-name="Path 192" d="M68.086,289.363c3.883,7.076,13.649,16.376,18.628,26.764,1.3-4.685,2.887-9.533,2.887-9.533s6.085-32.557-11.914-40.971a12.046,12.046,0,0,0-8.366,2.338C66.757,276.628,65.546,284.732,68.086,289.363Z" transform="translate(220.629 3512.921)" opacity="0.1"/>
      <path id="Path_193" data-name="Path 193" d="M185.815,301.411l15.26,4.45,21.187.822,2.18,18.41-34.82,2.508S180.924,303.151,185.815,301.411Z" transform="translate(174.354 3498.822)" fill="#0092ff"/>
      <path id="Path_194" data-name="Path 194" d="M141.232,403.451s20.414,3.387,15.755,9.53-22.744-.315-22.744-.315Z" transform="translate(194.054 3458.682)" fill="#ffb9b9"/>
      <path id="Path_195" data-name="Path 195" d="M101.389,370.725c-.461,8.913-3.745,19.222-4.923,26.719,6.5,6.155,12.687,11.584,15.018,11.674,4.815.187,12.557-.478,15.409.6s4.524-17.186,4.524-17.186-1.7-5.853-9.294-9.041a105.789,105.789,0,0,1-20.734-12.766Z" transform="translate(208.914 3471.556)" fill="#0957ea"/>
      <path id="Path_196" data-name="Path 196" d="M75.173,256.092s-16.3-2.561-15.417,24.479-1.718,44.3,4.837,49.377,27.846,28.086,32.661,28.273,12.557-.478,15.409.6,4.524-17.186,4.524-17.186-1.7-5.853-9.295-9.041-25.48-14.491-25.33-18.343,4.524-17.186,4.524-17.186S93.172,264.506,75.173,256.092Z" transform="translate(223.368 3516.674)" fill="#0092ff"/>
      <circle id="Ellipse_45" data-name="Ellipse 45" cx="21.203" cy="21.203" r="21.203" transform="translate(317.428 3712.608)" fill="#ffb9b9"/>
      <path id="Path_197" data-name="Path 197" d="M149.853,139.046a4.094,4.094,0,0,0,1.783.9,1.272,1.272,0,0,0,1.474-1.021,5.286,5.286,0,0,0,2.023,2.594c.99.516,2.522.083,2.665-1.024a4.674,4.674,0,0,0,1.076,2.271,1.612,1.612,0,0,0,2.265.076c-.434,2.37-.166,4.808-.3,7.214s-.778,4.956-2.6,6.539c-2.651,2.307-6.637,1.738-10.124,1.3a3.073,3.073,0,0,0-1.587.087c-1.306.556-1.246,2.374-1.264,3.793a10.539,10.539,0,0,1-9.228,10.008,5.283,5.283,0,0,1-3.926-.958c-.99-.839-1.5-2.207-2.63-2.837-1.845-1.025-4.084.47-5.433,2.094s-2.679,3.621-4.769,3.918c-2.764.393-4.87-2.424-5.9-5.018a29.254,29.254,0,0,1,.581-22.73C119.73,133.663,139.447,131.673,149.853,139.046Z" transform="translate(203.055 3564.375)" fill="#0b0b0b"/>
      <path id="Path_198" data-name="Path 198" d="M1010.55,679.207c7.468,12.735,22.528,17.777,22.528,17.777s2.953-15.6-4.514-28.34-22.528-17.776-22.528-17.776S1003.08,666.473,1010.55,679.207Z" transform="translate(-148.654 3361.357)" fill="#f2f2f2"/>
      <path id="Path_199" data-name="Path 199" d="M1003.09,687.279c12.914,7.153,18.324,22.085,18.324,22.085s-15.528,3.336-28.442-3.817-18.324-22.085-18.324-22.085S990.172,680.126,1003.09,687.279Z" transform="translate(-136.532 3348.841)" fill="#fead2c"/>
    </g>
  </g>
</svg>
