<svg width="143" height="33" viewBox="0 0 143 33" fill="none" xmlns="http://www.w3.org/2000/svg">
<rect width="12" height="33" rx="6" fill="#373737"/>
<path d="M29.628 30H27.576L21.402 20.658V30H19.35V17.472H21.402L27.576 26.796V17.472H29.628V30ZM34.3747 19.146V22.818H38.6947V24.492H34.3747V28.326H39.2347V30H32.3227V17.472H39.2347V19.146H34.3747ZM49.8441 17.49V19.164H46.5141V30H44.4621V19.164H41.1141V17.49H49.8441ZM68.2123 17.49L64.5043 30H62.1823L59.5543 20.532L56.7643 30L54.4603 30.018L50.9143 17.49H53.0923L55.6843 27.678L58.4923 17.49H60.7963L63.4063 27.624L66.0163 17.49H68.2123ZM75.6107 30.126C74.4467 30.126 73.3727 29.856 72.3887 29.316C71.4167 28.764 70.6427 28.002 70.0667 27.03C69.5027 26.046 69.2207 24.942 69.2207 23.718C69.2207 22.494 69.5027 21.396 70.0667 20.424C70.6427 19.452 71.4167 18.696 72.3887 18.156C73.3727 17.604 74.4467 17.328 75.6107 17.328C76.7867 17.328 77.8607 17.604 78.8327 18.156C79.8167 18.696 80.5907 19.452 81.1547 20.424C81.7187 21.396 82.0007 22.494 82.0007 23.718C82.0007 24.942 81.7187 26.046 81.1547 27.03C80.5907 28.002 79.8167 28.764 78.8327 29.316C77.8607 29.856 76.7867 30.126 75.6107 30.126ZM75.6107 28.344C76.4387 28.344 77.1767 28.158 77.8247 27.786C78.4727 27.402 78.9767 26.862 79.3367 26.166C79.7087 25.458 79.8947 24.642 79.8947 23.718C79.8947 22.794 79.7087 21.984 79.3367 21.288C78.9767 20.592 78.4727 20.058 77.8247 19.686C77.1767 19.314 76.4387 19.128 75.6107 19.128C74.7827 19.128 74.0447 19.314 73.3967 19.686C72.7487 20.058 72.2387 20.592 71.8667 21.288C71.5067 21.984 71.3267 22.794 71.3267 23.718C71.3267 24.642 71.5067 25.458 71.8667 26.166C72.2387 26.862 72.7487 27.402 73.3967 27.786C74.0447 28.158 74.7827 28.344 75.6107 28.344ZM90.5179 30L87.6379 24.996H86.0719V30H84.0199V17.49H88.3399C89.2999 17.49 90.1099 17.658 90.7699 17.994C91.4419 18.33 91.9399 18.78 92.2639 19.344C92.5999 19.908 92.7679 20.538 92.7679 21.234C92.7679 22.05 92.5279 22.794 92.0479 23.466C91.5799 24.126 90.8539 24.576 89.8699 24.816L92.9659 30H90.5179ZM86.0719 23.358H88.3399C89.1079 23.358 89.6839 23.166 90.0679 22.782C90.4639 22.398 90.6619 21.882 90.6619 21.234C90.6619 20.586 90.4699 20.082 90.0859 19.722C89.7019 19.35 89.1199 19.164 88.3399 19.164H86.0719V23.358ZM102.287 30L97.445 24.402V30H95.393V17.49H97.445V23.196L102.305 17.49H104.879L99.443 23.754L104.969 30H102.287Z" fill="#2F2E41"/>
<path d="M118.052 17.454V30H116.414V24.312H110.024V30H108.386V17.454H110.024V22.962H116.414V17.454H118.052ZM122.451 17.454V25.392C122.451 26.508 122.721 27.336 123.261 27.876C123.813 28.416 124.575 28.686 125.547 28.686C126.507 28.686 127.257 28.416 127.797 27.876C128.349 27.336 128.625 26.508 128.625 25.392V17.454H130.263V25.374C130.263 26.418 130.053 27.3 129.633 28.02C129.213 28.728 128.643 29.256 127.923 29.604C127.215 29.952 126.417 30.126 125.529 30.126C124.641 30.126 123.837 29.952 123.117 29.604C122.409 29.256 121.845 28.728 121.425 28.02C121.017 27.3 120.813 26.418 120.813 25.374V17.454H122.451ZM139.277 23.538C139.733 23.61 140.147 23.796 140.519 24.096C140.903 24.396 141.203 24.768 141.419 25.212C141.647 25.656 141.761 26.13 141.761 26.634C141.761 27.27 141.599 27.846 141.275 28.362C140.951 28.866 140.477 29.268 139.853 29.568C139.241 29.856 138.515 30 137.675 30H132.995V17.454H137.495C138.347 17.454 139.073 17.598 139.673 17.886C140.273 18.162 140.723 18.54 141.023 19.02C141.323 19.5 141.473 20.04 141.473 20.64C141.473 21.384 141.269 22.002 140.861 22.494C140.465 22.974 139.937 23.322 139.277 23.538ZM134.633 22.872H137.387C138.155 22.872 138.749 22.692 139.169 22.332C139.589 21.972 139.799 21.474 139.799 20.838C139.799 20.202 139.589 19.704 139.169 19.344C138.749 18.984 138.143 18.804 137.351 18.804H134.633V22.872ZM137.531 28.65C138.347 28.65 138.983 28.458 139.439 28.074C139.895 27.69 140.123 27.156 140.123 26.472C140.123 25.776 139.883 25.23 139.403 24.834C138.923 24.426 138.281 24.222 137.477 24.222H134.633V28.65H137.531Z" fill="#C4C4C4"/>
<rect width="12" height="12" rx="6" fill="#279AF1"/>
</svg>
