<svg xmlns="http://www.w3.org/2000/svg" width="48" height="48" viewBox="0 0 48 48"><path d="M19,33c0,8.576,10,15,19,11l8,3-3-6a9.988,9.988,0,0,0,4-8c0-6.308-6.268-12-14-12S19,26.692,19,33Z" fill="#f3f7fc" stroke="#1757c2" stroke-linecap="round" stroke-linejoin="round" stroke-width="2"/><path d="M34.8,17a11.644,11.644,0,0,0,.2-2C35,7.268,27.4,1,18,1S1,7.268,1,15a12.868,12.868,0,0,0,5.034,9.94L2,32l9.878-3.952A19.99,19.99,0,0,0,15,28.77" fill="none" stroke="#2c3238" stroke-linecap="round" stroke-linejoin="round" stroke-width="2"/></svg>