<svg xmlns="http://www.w3.org/2000/svg" width="47" height="48" viewBox="0 0 47 48"><g transform="translate(-0.5)"><path d="M8.5,47h-7l7-11a2.682,2.682,0,0,1,2-1,2.682,2.682,0,0,1,2,1l1.3,2.6" fill="#f3f7fc"/><path d="M8.5,47h-7l7-11a2.682,2.682,0,0,1,2-1,2.682,2.682,0,0,1,2,1l1.3,2.6" fill="none" stroke="#1757c2" stroke-linecap="round" stroke-linejoin="round" stroke-width="2"/><path d="M27.5,1H41.42a1,1,0,0,1,.78,1.624L40,5.376a1,1,0,0,0,0,1.248l2.2,2.752A1,1,0,0,1,41.42,11H27.5" fill="#f3f7fc"/><path d="M27.5,19V1H41.42a1,1,0,0,1,.78,1.624L40,5.376a1,1,0,0,0,0,1.248l2.2,2.752A1,1,0,0,1,41.42,11H27.5" fill="none" stroke="#1757c2" stroke-linecap="round" stroke-linejoin="round" stroke-width="2"/><path d="M8.5,47l17-27a2.518,2.518,0,0,1,4,0l17,27Z" fill="none" stroke="#2c3238" stroke-linecap="round" stroke-linejoin="round" stroke-width="2"/><path d="M17.41,32.848,22.1,36.812A2,2,0,0,0,24.8,36.7l1.284-1.284a2,2,0,0,1,2.828,0L30.2,36.7a2,2,0,0,0,2.706.114l4.6-3.886" fill="none" stroke="#2c3238" stroke-linecap="round" stroke-linejoin="round" stroke-width="2"/></g></svg>