<svg xmlns="http://www.w3.org/2000/svg" width="48.919" height="53.51" viewBox="0 0 48.919 53.51"><g transform="translate(-85.573 -2106.402)"><path d="M68.908,50.157a84.7,84.7,0,0,1-4.571,8.437c-1.541,2.659-3.03,5.062-4.93,7.721-.719,1.023-1.541,2.148-2.465,3.324-2.362,2.914-5.957,5.573-9.912,4.5-4.006-1.125-6.163-4.755-8.423-7.925a93.016,93.016,0,0,1-9.45-15.9c-2.568-5.624-4.93-12.732-1.284-18.458a13.685,13.685,0,0,1,3.7-3.784A18.226,18.226,0,0,1,34.7,26.432c7.5-3.068,16.845-2.966,24.6-1.176a22.422,22.422,0,0,1,6.677,2.608,12.845,12.845,0,0,1,3.492,3.17,11.645,11.645,0,0,1,2.414,6.085C72.452,41.465,70.809,46.067,68.908,50.157Z" transform="translate(61.001 2084)" fill="#f3f7fc"/><path d="M39.143,47l6.571,5.476L58.857,39.333M68.908,50.157a84.7,84.7,0,0,1-4.571,8.437c-1.541,2.659-3.03,5.062-4.93,7.721-.719,1.023-1.541,2.148-2.465,3.324-2.362,2.914-5.957,5.573-9.912,4.5-4.006-1.125-6.163-4.755-8.423-7.925a93.016,93.016,0,0,1-9.45-15.9c-2.568-5.624-4.93-12.732-1.284-18.458a13.685,13.685,0,0,1,3.7-3.784A18.226,18.226,0,0,1,34.7,26.432c7.5-3.068,16.845-2.966,24.6-1.176a22.422,22.422,0,0,1,6.677,2.608,12.845,12.845,0,0,1,3.492,3.17,11.645,11.645,0,0,1,2.414,6.085C72.452,41.465,70.809,46.067,68.908,50.157Z" transform="translate(61.001 2084)" fill="none" stroke="#1757c2" stroke-linecap="round" stroke-linejoin="round" stroke-width="3"/></g></svg>