<svg xmlns="http://www.w3.org/2000/svg" width="47.996" height="48.016" viewBox="0 0 47.996 48.016"><path d="M21,31H1a12,12,0,0,1,20.944-8m17-1.79a12,12,0,0,0-12.946-.6M20.5,8.5A7.5,7.5,0,1,1,13,1,7.5,7.5,0,0,1,20.5,8.5Zm19,0A7.5,7.5,0,1,1,32,1,7.5,7.5,0,0,1,39.5,8.5Z" fill="none" stroke="#2c3238" stroke-linecap="round" stroke-linejoin="round" stroke-width="2"/><path d="M45.589,35.941A38.665,38.665,0,0,1,43.5,39.793c-.7,1.214-1.383,2.311-2.251,3.525-.328.467-.7.98-1.125,1.517-1.079,1.33-2.72,2.544-4.525,2.054-1.829-.514-2.813-2.171-3.845-3.618a42.464,42.464,0,0,1-4.314-7.26c-1.172-2.568-2.251-5.812-.586-8.427a6.248,6.248,0,0,1,1.688-1.727,8.32,8.32,0,0,1,1.43-.747A19.391,19.391,0,0,1,41.2,24.573a10.236,10.236,0,0,1,3.048,1.191,5.864,5.864,0,0,1,1.594,1.447,5.316,5.316,0,0,1,1.1,2.778A11.272,11.272,0,0,1,45.589,35.941Z" fill="#f3f7fc"/><path d="M32,34.5,35,37l6-6m4.589,4.941A38.665,38.665,0,0,1,43.5,39.793c-.7,1.214-1.383,2.311-2.251,3.525-.328.467-.7.98-1.125,1.517-1.079,1.33-2.72,2.544-4.525,2.054-1.829-.514-2.813-2.171-3.845-3.618a42.464,42.464,0,0,1-4.314-7.26c-1.172-2.568-2.251-5.812-.586-8.427a6.248,6.248,0,0,1,1.688-1.727,8.32,8.32,0,0,1,1.43-.747A19.391,19.391,0,0,1,41.2,24.573a10.236,10.236,0,0,1,3.048,1.191,5.864,5.864,0,0,1,1.594,1.447,5.316,5.316,0,0,1,1.1,2.778A11.272,11.272,0,0,1,45.589,35.941Z" fill="none" stroke="#1757c2" stroke-linecap="round" stroke-linejoin="round" stroke-width="2"/></svg>