<svg width="616" height="621" viewBox="0 0 616 621" fill="none" xmlns="http://www.w3.org/2000/svg">
<path d="M296.353 33.9242H295.202V31.9118H296.065C296.217 31.9117 296.364 31.8512 296.472 31.7433C296.58 31.6355 296.64 31.4893 296.64 31.3368V20.987C296.64 20.8345 296.58 20.6882 296.472 20.5804C296.364 20.4726 296.217 20.412 296.065 20.412H295.202V14.5342C295.202 12.8898 294.878 11.2615 294.248 9.74233C293.619 8.22311 292.696 6.84272 291.533 5.67996C290.37 4.51721 288.988 3.59486 287.469 2.96559C285.949 2.33632 284.32 2.01244 282.675 2.01245H281.396V0.574987C281.396 0.422491 281.336 0.27624 281.228 0.168409C281.12 0.0605784 280.973 0 280.821 0H270.466C270.314 0 270.168 0.0605784 270.06 0.168409C269.952 0.27624 269.891 0.422491 269.891 0.574987V2.01245H82.8087C81.1636 2.01244 79.5345 2.33632 78.0146 2.96559C76.4947 3.59486 75.1137 4.51721 73.9504 5.67996C72.7871 6.84272 71.8644 8.22311 71.2348 9.74233C70.6053 11.2615 70.2812 12.8898 70.2813 14.5342V281.008C70.2812 282.653 70.6052 284.281 71.2348 285.8C71.8644 287.32 72.7871 288.7 73.9504 289.863C75.1137 291.026 76.4947 291.948 78.0146 292.577C79.5345 293.206 81.1636 293.53 82.8087 293.53H282.675C284.32 293.53 285.949 293.206 287.469 292.577C288.988 291.948 290.37 291.026 291.533 289.863C292.696 288.7 293.619 287.32 294.248 285.8C294.878 284.281 295.202 282.653 295.202 281.008V45.4239H296.353C296.505 45.4239 296.651 45.3633 296.759 45.2555C296.867 45.1476 296.928 45.0014 296.928 44.8489V34.4991C296.928 34.3466 296.867 34.2004 296.759 34.0926C296.651 33.9847 296.505 33.9242 296.353 33.9242Z" fill="#2A2A2A"/>
<path d="M286.575 10.2031H80.6348V283.327H286.575V10.2031Z" fill="white"/>
<path d="M554.209 90.8639H552.936V55.9927C552.936 53.3423 552.413 50.7179 551.399 48.2692C550.384 45.8205 548.897 43.5956 547.022 41.7215C545.147 39.8474 542.921 38.3607 540.471 37.3465C538.021 36.3322 535.396 35.8102 532.744 35.8102H458.831C456.18 35.8102 453.554 36.3322 451.104 37.3465C448.655 38.3607 446.429 39.8474 444.554 41.7215C442.679 43.5956 441.191 45.8205 440.177 48.2692C439.162 50.7178 438.64 53.3423 438.64 55.9927V247.299C438.64 249.949 439.162 252.574 440.177 255.023C441.191 257.471 442.679 259.696 444.554 261.57C446.429 263.444 448.655 264.931 451.104 265.945C453.554 266.96 456.18 267.482 458.831 267.482H532.744C535.396 267.482 538.021 266.96 540.471 265.945C542.921 264.931 545.147 263.444 547.022 261.57C548.897 259.696 550.384 257.471 551.399 255.023C552.413 252.574 552.936 249.949 552.936 247.299V115.686H554.209V90.8639Z" fill="#2A2A2A"/>
<path d="M548.636 57.179V248.206C548.637 252.204 547.049 256.038 544.221 258.865C541.394 261.692 537.559 263.281 533.559 263.281H459.29C455.291 263.281 451.456 261.692 448.628 258.865C445.801 256.038 444.213 252.204 444.213 248.206V57.179C444.214 53.1823 445.802 49.3495 448.63 46.5234C451.457 43.6974 455.292 42.1095 459.29 42.1091H468.301C467.857 43.1964 467.688 44.3759 467.808 45.5438C467.928 46.7118 468.334 47.8323 468.989 48.8067C469.644 49.7811 470.529 50.5794 471.566 51.1314C472.603 51.6834 473.759 51.972 474.934 51.972H517.278C518.453 51.972 519.61 51.6834 520.646 51.1314C521.683 50.5794 522.568 49.7811 523.223 48.8067C523.879 47.8323 524.284 46.7118 524.404 45.5438C524.524 44.3759 524.355 43.1963 523.912 42.1091H533.559C537.558 42.1095 541.392 43.6974 544.22 46.5234C547.047 49.3495 548.636 53.1823 548.636 57.179V57.179Z" fill="white"/>
<path d="M537.747 67.5077H475V69.8382H537.747V67.5077Z" fill="#0092FF"/>
<path d="M537.747 74.8877H475V77.2182H537.747V74.8877Z" fill="#0092FF"/>
<path d="M537.747 82.2677H475V84.5982H537.747V82.2677Z" fill="#0092FF"/>
<path d="M469.318 68.948H455.102V83.1579H469.318V68.948Z" fill="#0092FF"/>
<path d="M537.747 233.286H475V235.617H537.747V233.286Z" fill="#0092FF"/>
<path d="M537.747 240.666H475V242.997H537.747V240.666Z" fill="#0092FF"/>
<path d="M537.747 248.046H475V250.377H537.747V248.046Z" fill="#0092FF"/>
<path d="M469.318 234.726H455.102V248.936H469.318V234.726Z" fill="#0092FF"/>
<path d="M531.048 325.206H352.609V321.53H271.698V325.206H92.5241C90.9391 325.206 89.3695 325.518 87.9051 326.124C86.4407 326.731 85.1101 327.619 83.9893 328.74C82.8685 329.86 81.9795 331.19 81.3729 332.654C80.7663 334.117 80.4541 335.686 80.4541 337.271V581.498C80.4541 584.697 81.7258 587.766 83.9893 590.029C86.2529 592.291 89.323 593.562 92.5241 593.562H531.048C534.249 593.562 537.319 592.291 539.582 590.029C541.846 587.766 543.118 584.697 543.118 581.498V337.271C543.118 335.686 542.805 334.117 542.199 332.654C541.592 331.19 540.703 329.86 539.582 328.74C538.462 327.619 537.131 326.731 535.667 326.124C534.202 325.518 532.633 325.206 531.048 325.206V325.206Z" fill="#2A2A2A"/>
<path d="M526.935 346.527H96.6362V589.151H526.935V346.527Z" fill="white"/>
<path d="M311.418 339.91C313.856 339.91 315.832 337.935 315.832 335.499C315.832 333.063 313.856 331.088 311.418 331.088C308.981 331.088 307.005 333.063 307.005 335.499C307.005 337.935 308.981 339.91 311.418 339.91Z" fill="#0092FF"/>
<path d="M555.2 584.74H513.205V581.715C513.205 581.637 513.19 581.559 513.16 581.486C513.129 581.413 513.085 581.347 513.03 581.291C512.974 581.236 512.908 581.192 512.835 581.161C512.762 581.131 512.684 581.116 512.605 581.116H498.207C498.128 581.116 498.051 581.131 497.978 581.161C497.905 581.192 497.839 581.236 497.783 581.291C497.727 581.347 497.683 581.413 497.653 581.486C497.623 581.559 497.607 581.637 497.607 581.715V584.74H488.609V581.715C488.609 581.637 488.593 581.559 488.563 581.486C488.533 581.413 488.489 581.347 488.433 581.291C488.377 581.236 488.311 581.192 488.238 581.161C488.165 581.131 488.087 581.116 488.009 581.116H473.611C473.532 581.116 473.454 581.131 473.381 581.161C473.308 581.192 473.242 581.236 473.186 581.291C473.131 581.347 473.086 581.413 473.056 581.486C473.026 581.559 473.011 581.637 473.011 581.715V584.74H464.012V581.715C464.012 581.637 463.996 581.559 463.966 581.486C463.936 581.413 463.892 581.347 463.836 581.291C463.78 581.236 463.714 581.192 463.641 581.161C463.569 581.131 463.491 581.116 463.412 581.116H449.014C448.935 581.116 448.857 581.131 448.784 581.161C448.711 581.192 448.645 581.236 448.59 581.291C448.534 581.347 448.49 581.413 448.46 581.486C448.429 581.559 448.414 581.637 448.414 581.715V584.74H439.415V581.715C439.415 581.637 439.4 581.559 439.369 581.486C439.339 581.413 439.295 581.347 439.239 581.291C439.184 581.236 439.118 581.192 439.045 581.161C438.972 581.131 438.894 581.116 438.815 581.116H424.417C424.338 581.116 424.26 581.131 424.188 581.161C424.115 581.192 424.049 581.236 423.993 581.291C423.937 581.347 423.893 581.413 423.863 581.486C423.833 581.559 423.817 581.637 423.817 581.715V584.74H414.818V581.715C414.818 581.637 414.803 581.559 414.773 581.486C414.743 581.413 414.698 581.347 414.643 581.291C414.587 581.236 414.521 581.192 414.448 581.161C414.375 581.131 414.297 581.116 414.218 581.116H399.82C399.742 581.116 399.664 581.131 399.591 581.161C399.518 581.192 399.452 581.236 399.396 581.291C399.34 581.347 399.296 581.413 399.266 581.486C399.236 581.559 399.22 581.637 399.221 581.715V584.74H390.222V581.715C390.222 581.637 390.206 581.559 390.176 581.486C390.146 581.413 390.102 581.347 390.046 581.291C389.99 581.236 389.924 581.192 389.851 581.161C389.779 581.131 389.701 581.116 389.622 581.116H375.224C375.145 581.116 375.067 581.131 374.994 581.161C374.921 581.192 374.855 581.236 374.799 581.291C374.744 581.347 374.7 581.413 374.669 581.486C374.639 581.559 374.624 581.637 374.624 581.715V584.74H365.625V581.715C365.625 581.637 365.609 581.559 365.579 581.486C365.549 581.413 365.505 581.347 365.449 581.291C365.394 581.236 365.327 581.192 365.255 581.161C365.182 581.131 365.104 581.116 365.025 581.116H252.24C252.161 581.116 252.083 581.131 252.01 581.161C251.938 581.192 251.872 581.236 251.816 581.291C251.76 581.347 251.716 581.413 251.686 581.486C251.656 581.559 251.64 581.637 251.64 581.715V584.74H242.641V581.715C242.641 581.637 242.626 581.559 242.596 581.486C242.566 581.413 242.521 581.347 242.466 581.291C242.41 581.236 242.344 581.192 242.271 581.161C242.198 581.131 242.12 581.116 242.041 581.116H227.643C227.565 581.116 227.487 581.131 227.414 581.161C227.341 581.192 227.275 581.236 227.219 581.291C227.163 581.347 227.119 581.413 227.089 581.486C227.059 581.559 227.043 581.637 227.043 581.715V584.74H218.045V581.715C218.045 581.637 218.029 581.559 217.999 581.486C217.969 581.413 217.925 581.347 217.869 581.291C217.813 581.236 217.747 581.192 217.674 581.161C217.601 581.131 217.523 581.116 217.445 581.116H203.047C202.968 581.116 202.89 581.131 202.817 581.161C202.744 581.192 202.678 581.236 202.622 581.291C202.567 581.347 202.523 581.413 202.492 581.486C202.462 581.559 202.447 581.637 202.447 581.715V584.74H193.448V581.715C193.448 581.637 193.432 581.559 193.402 581.486C193.372 581.413 193.328 581.347 193.272 581.291C193.216 581.236 193.15 581.192 193.078 581.161C193.005 581.131 192.927 581.116 192.848 581.116H178.45C178.371 581.116 178.293 581.131 178.22 581.161C178.148 581.192 178.081 581.236 178.026 581.291C177.97 581.347 177.926 581.413 177.896 581.486C177.865 581.559 177.85 581.637 177.85 581.715V584.74H168.851V581.715C168.851 581.637 168.836 581.559 168.806 581.486C168.775 581.413 168.731 581.347 168.675 581.291C168.62 581.236 168.554 581.192 168.481 581.161C168.408 581.131 168.33 581.116 168.251 581.116H153.853C153.774 581.116 153.696 581.131 153.624 581.161C153.551 581.192 153.485 581.236 153.429 581.291C153.373 581.347 153.329 581.413 153.299 581.486C153.269 581.559 153.253 581.637 153.253 581.715V584.74H144.254V581.715C144.254 581.637 144.239 581.559 144.209 581.486C144.179 581.413 144.134 581.347 144.079 581.291C144.023 581.236 143.957 581.192 143.884 581.161C143.811 581.131 143.733 581.116 143.655 581.116H129.256C129.178 581.116 129.1 581.131 129.027 581.161C128.954 581.192 128.888 581.236 128.832 581.291C128.777 581.347 128.732 581.413 128.702 581.486C128.672 581.559 128.657 581.637 128.657 581.715V584.74H119.658V581.715C119.658 581.637 119.642 581.559 119.612 581.486C119.582 581.413 119.538 581.347 119.482 581.291C119.426 581.236 119.36 581.192 119.287 581.161C119.215 581.131 119.137 581.116 119.058 581.116H104.66C104.581 581.116 104.503 581.131 104.43 581.161C104.357 581.192 104.291 581.236 104.236 581.291C104.18 581.347 104.136 581.413 104.105 581.486C104.075 581.559 104.06 581.637 104.06 581.715V584.74H76.4635C72.6449 584.74 68.9827 586.256 66.2825 588.955C63.5824 591.654 62.0654 595.314 62.0654 599.131V605.639C62.0654 609.456 63.5824 613.116 66.2825 615.815C68.9827 618.514 72.6449 620.03 76.4635 620.03H555.2C559.018 620.03 562.681 618.514 565.381 615.815C568.081 613.116 569.598 609.456 569.598 605.639V599.131C569.598 597.241 569.225 595.37 568.502 593.624C567.778 591.878 566.718 590.291 565.381 588.955C564.044 587.619 562.457 586.558 560.71 585.835C558.963 585.112 557.09 584.74 555.2 584.74V584.74Z" fill="#2A2A2A"/>
<path d="M390.945 365.53H270.197V370.015H390.945V365.53Z" fill="#E6E6E6"/>
<path d="M390.945 379.732H270.197V384.216H390.945V379.732Z" fill="#E6E6E6"/>
<path d="M390.945 393.933H270.197V398.418H390.945V393.933Z" fill="#E6E6E6"/>
<path d="M390.945 365.53H270.197V370.015H390.945V365.53Z" fill="#0092FF"/>
<path d="M390.945 379.732H270.197V384.216H390.945V379.732Z" fill="#0092FF"/>
<path d="M390.945 393.933H270.197V398.418H390.945V393.933Z" fill="#0092FF"/>
<path d="M259.264 368.302H231.907V395.646H259.264V368.302Z" fill="#0092FF"/>
<path d="M390.945 525.327H270.197V529.811H390.945V525.327Z" fill="#0092FF"/>
<path d="M390.945 539.528H270.197V544.013H390.945V539.528Z" fill="#0092FF"/>
<path d="M390.945 553.73H270.197V558.215H390.945V553.73Z" fill="#0092FF"/>
<path d="M259.264 528.098H231.907V555.443H259.264V528.098Z" fill="#0092FF"/>
<path d="M603.173 264.09C596.079 256.367 586.534 251.332 576.152 249.837L580.596 245.825L575.68 245.577L569.598 251.072L575.095 257.151L580.012 257.4L576.328 253.328C586.8 255.018 596.251 260.589 602.8 268.93C609.348 277.272 612.513 287.773 611.664 298.342C610.816 308.911 606.016 318.773 598.22 325.964C590.425 333.155 580.206 337.147 569.598 337.146V340.564C578.459 340.564 587.129 337.985 594.547 333.141C601.966 328.297 607.813 321.398 611.374 313.288C614.934 305.177 616.055 296.205 614.599 287.469C613.142 278.732 609.172 270.608 603.173 264.09V264.09Z" fill="#3F3D56"/>
<path d="M12.8165 264.09C19.9096 256.367 29.4553 251.332 39.8368 249.837L35.3927 245.825L40.309 245.577L46.3913 251.072L40.8937 257.151L35.9774 257.4L39.661 253.328C29.1889 255.018 19.7377 260.589 13.1894 268.93C6.64116 277.272 3.47625 287.773 4.32486 298.342C5.17348 308.911 9.97338 318.773 17.7688 325.964C25.5642 333.155 35.7832 337.147 46.391 337.146V340.564C37.5298 340.564 28.8604 337.985 21.4417 333.141C14.0231 328.297 8.17631 321.398 4.61552 313.288C1.05472 305.177 -0.0659379 296.205 1.39042 287.469C2.84678 278.732 6.81711 270.608 12.8165 264.09V264.09Z" fill="#3F3D56"/>
<path d="M263.124 23.7187H142.376V28.2034H263.124V23.7187Z" fill="#0092FF"/>
<path d="M263.124 37.9204H142.376V42.4052H263.124V37.9204Z" fill="#0092FF"/>
<path d="M263.124 52.1222H142.376V56.607H263.124V52.1222Z" fill="#0092FF"/>
<path d="M131.443 26.4904H104.085V53.8352H131.443V26.4904Z" fill="#0092FF"/>
<path d="M262.708 236.496H141.96V240.981H262.708V236.496Z" fill="#0092FF"/>
<path d="M262.708 250.698H141.96V255.183H262.708V250.698Z" fill="#0092FF"/>
<path d="M262.708 264.9H141.96V269.384H262.708V264.9Z" fill="#0092FF"/>
<path d="M131.028 239.268H103.67V266.613H131.028V239.268Z" fill="#0092FF"/>
<path d="M134.331 169.107C145.598 169.107 154.732 159.977 154.732 148.715C154.732 137.452 145.598 128.323 134.331 128.323C123.063 128.323 113.929 137.452 113.929 148.715C113.929 159.977 123.063 169.107 134.331 169.107Z" fill="#F065A6"/>
<path d="M188.734 165.378C197.941 165.378 205.405 157.918 205.405 148.715C205.405 139.512 197.941 132.051 188.734 132.051C179.527 132.051 172.063 139.512 172.063 148.715C172.063 157.918 179.527 165.378 188.734 165.378Z" fill="#F065A6"/>
<path d="M243.137 158.853C248.739 158.853 253.28 154.314 253.28 148.715C253.28 143.116 248.739 138.577 243.137 138.577C237.536 138.577 232.995 143.116 232.995 148.715C232.995 154.314 237.536 158.853 243.137 158.853Z" fill="#F065A6"/>
<path d="M470.409 161.982C476.328 161.982 481.127 157.185 481.127 151.269C481.127 145.352 476.328 140.556 470.409 140.556C464.49 140.556 459.691 145.352 459.691 151.269C459.691 157.185 464.49 161.982 470.409 161.982Z" fill="#F065A6"/>
<path d="M498.989 159.786C503.695 159.786 507.51 155.973 507.51 151.269C507.51 146.565 503.695 142.752 498.989 142.752C494.283 142.752 490.468 146.565 490.468 151.269C490.468 155.973 494.283 159.786 498.989 159.786Z" fill="#F065A6"/>
<path d="M527.57 156.854C530.656 156.854 533.158 154.354 533.158 151.269C533.158 148.184 530.656 145.683 527.57 145.683C524.483 145.683 521.981 148.184 521.981 151.269C521.981 154.354 524.483 156.854 527.57 156.854Z" fill="#F065A6"/>
<path d="M311.414 507.616C337.855 507.616 359.289 486.192 359.289 459.763C359.289 433.334 337.855 411.909 311.414 411.909C284.973 411.909 263.539 433.334 263.539 459.763C263.539 486.192 284.973 507.616 311.414 507.616Z" fill="#F065A6"/>
<path d="M329.225 470.287L311.368 434.236L293.603 470.333L303.641 470.32V485.29H319.179V470.3L329.225 470.287Z" fill="white"/>
</svg>
